<?xml version="1.0" encoding="utf-8"?>
<!-- Generator: Adobe Illustrator 19.2.0, SVG Export Plug-In . SVG Version: 6.00 Build 0)  -->
<svg version="1.1" id="Layer_1" xmlns:sketch="http://www.bohemiancoding.com/sketch/ns"
	 xmlns="http://www.w3.org/2000/svg" xmlns:xlink="http://www.w3.org/1999/xlink" x="0px" y="0px" viewBox="0 0 380 86"
	 enable-background="new 0 0 380 86" xml:space="preserve">
<title>Slice 1</title>
<desc>Created with Sketch.</desc>
<g id="Page-1" sketch:type="MSPage">
	<g id="BT_LOGO_Primary" sketch:type="MSLayerGroup">
		<path id="Fill-1" sketch:type="MSShapeGroup" fill="#576683" d="M78.9,33.9c0,0-13.5,7.9-38.8-0.9c-22.9-7.9-29.7-19.2-29.7-19.2
			s28.3,5.8,44.7,4.8L78.9,33.9"/>
		<path id="Fill-2" sketch:type="MSShapeGroup" fill="#576683" d="M113.5,22.9h-3c-1.4,0-2.2,0.7-2.4,2L106.5,35
			c-0.1,1.1,0.7,2.1,1.8,2.1h3.1c2,0,3.7-1,5.2-2.9c1.5-1.8,2.2-3.7,2.2-5.7C118.9,25.2,116.6,22.9,113.5,22.9L113.5,22.9z
			 M114.4,48.1c-1.3-1.5-2.8-2.4-4.5-2.4h-2.9c-1.4,0-2.2,0.7-2.4,2.1l-1.8,13c-0.2,1.1,0.7,2.1,1.8,2.1h4.1c2.1,0,4-1,5.6-3.1
			c1.5-2,2.2-4.1,2.2-6.3C116.5,51.5,115.8,49.7,114.4,48.1L114.4,48.1z M122.7,39.6c-0.5,0.4-0.8,0.8-0.8,1.3
			c0,0.3,0.1,0.6,0.5,0.9c3.6,2.8,5.4,6.5,5.4,11.1c0,5.2-2.1,9.7-6.4,13.6c-4.2,3.8-9,5.7-14.2,5.7H93.1c-1.2,0-2.1-1-1.8-2.1
			L99,15.4c0.2-1.4,1-2.1,2.4-2.1h12.7c5,0,8.9,1.2,11.7,3.6c2.6,2.3,3.9,5.3,3.9,9.1c0,0.8-0.1,1.5-0.1,2.4
			C128.9,33.1,126.6,36.9,122.7,39.6L122.7,39.6z"/>
		<path id="Fill-3" sketch:type="MSShapeGroup" fill="#576683" d="M155.1,38.6c0.3-2.1-1.1-3.9-3.2-3.9h-1.8c-2.1,0-4.2,1.8-4.5,3.9
			l-3.1,22.2c-0.3,2.1,1.3,4,3.4,4h1.7c2.1,0,4-1.8,4.3-4L155.1,38.6L155.1,38.6z M160.7,61c-0.4,3.3-2,6.2-4.7,8.5
			c-2.7,2.3-5.6,3.5-8.9,3.5h-3.2c-3,0-5.5-1-7.5-2.9c-2-2-2.9-4.4-2.9-7.4c0-0.5,0.1-1.1,0.1-1.7l3.2-22.8c0.4-3.3,2-6.1,4.6-8.4
			c2.7-2.3,5.7-3.5,9-3.5h3.2c3,0,5.4,1,7.4,2.9c2,1.9,2.9,4.3,2.9,7.3c0,0.5,0,1.1-0.1,1.6L160.7,61L160.7,61z"/>
		<path id="Fill-4" sketch:type="MSShapeGroup" fill="#576683" d="M195.9,70.2c-0.2,1.4-1,2.1-2.3,2.1h-5.2c-1.1,0-1.8-1-1.8-2.1
			l4.5-31.7c0.4-2.6-0.5-3.8-2.7-3.8c-1.4,0-2.9,0.5-4.4,1.5c-1.5,1-2.4,2.1-2.6,3.1l-4.3,30.9c-0.2,1.4-1,2.1-2.4,2.1h-5.2
			c-1.1,0-2-1-1.8-2.1l5.7-40.9c0.2-1.4,1-2.1,2.4-2.1h5.2c1.1,0,1.8,0.9,1.8,2.1l-0.1,1c-0.1,0.5,0,0.8,0.4,0.8
			c0.4,0,0.8-0.3,1.5-0.9c2.7-2.5,5.8-3.8,9.3-3.8c4.4,0,7.1,2.9,7.1,7.1c0,0.5,0,1-0.1,1.5L195.9,70.2"/>
		<path id="Fill-5" sketch:type="MSShapeGroup" fill="#576683" d="M237.1,20.2c-0.2,1.3-1,2-2.4,2h-9c-1,0-2.2,1-2.3,1.9L217,70.2
			c-0.2,1.3-0.9,2-2.1,2h-6c-1.3,0-1.9-0.7-1.7-2l6.5-46.1c0.2-1.3-0.4-1.9-1.6-1.9h-9c-1.3,0-1.9-0.7-1.7-2l0.7-5
			c0.2-1.3,1-1.9,2.2-1.9H236c1.4,0,2,0.7,1.8,1.9L237.1,20.2"/>
		<path id="Fill-6" sketch:type="MSShapeGroup" fill="#576683" d="M253.8,34.7c-0.2,1.2-1.3,2.1-2.4,2.1c-0.8-0.1-1.6-0.1-2.4-0.1
			c-4.2,0-6.6,1.8-7.1,5.2l-4,28.4c-0.2,1.4-1,2.1-2.4,2.1h-5.4c-1.1,0-2-1-1.8-2.1l5.7-40.9c0.2-1.4,1-2.1,2.4-2.1h5.4
			c1.1,0,2,0.9,1.8,2.1l-0.1,1.2c-0.1,0.7,0,1.1,0.4,1.1c0.2,0,0.5-0.1,0.9-0.4l3-2.6c1.5-1.1,3.1-1.8,4.6-2.1
			c1.4-0.3,2.4,0.6,2.1,2L253.8,34.7"/>
		<path id="Fill-7" sketch:type="MSShapeGroup" fill="#576683" d="M271.7,19.8c-0.2,1.4-1,2.1-2.4,2.1h-5.1c-1.1,0-2-1-1.8-2.1
			l0.7-5.2c0.2-1.4,1-2.1,2.4-2.1h5.1c1.1,0,1.8,1,1.8,2.1L271.7,19.8L271.7,19.8z M264.6,70.2c-0.2,1.4-1,2.1-2.4,2.1h-5.1
			c-1.1,0-2-1-1.8-2.1l5.7-40.9c0.2-1.4,1-2.1,2.4-2.1h5.1c1.1,0,1.8,0.9,1.8,2.1L264.6,70.2L264.6,70.2z"/>
		<path id="Fill-8" sketch:type="MSShapeGroup" fill="#576683" d="M295.8,51.5c0.1-0.4-0.1-0.7-0.3-0.9s-0.5-0.1-0.9,0.1
			c-3.2,1.5-5.4,2.7-6.6,3.5c-2.3,1.7-3.6,3.8-3.9,6c-0.4,2.4,0.7,3.7,3,3.7c1.5,0,3.1-0.5,4.6-1.5c1.8-1.1,2.7-2.4,2.9-3.8
			L295.8,51.5L295.8,51.5z M302.6,66.7c-0.1,0.7,0.1,1.8,0.3,3.5c0.1,1.4-0.6,2.1-2.1,2.1h-4.9c-1,0-1.5-0.7-1.8-1.9
			c-0.1-1.3-0.4-1.9-0.9-1.9c0.1,0-1,0.8-3.1,2.4c-2.1,1.5-4.3,2.3-6.3,2.3c-6.1,0-9.6-3.4-9.6-9.1c0-0.7,0.1-1.4,0.1-2.2l0.2-1.6
			c0.5-3.6,2.7-6.9,6.6-9.8c2.1-1.6,5.6-3.6,10.5-5.9c3.7-1.8,5.6-3,5.7-3.8l0.4-3.2c0.3-2-1.2-3.6-3-3.6h-3.2c-2,0-3.8,1.6-4.1,3.6
			l-0.1,1.2c-0.2,1.4-1,2.1-2.4,2.1H280c-1.1,0-1.8-1-1.8-2.1l0.2-1.5c0.4-3,1.9-5.6,4.3-7.6c2.4-2.1,5.2-3.1,8.3-3.1h6.1
			c5.6,0,9.6,3.8,9.6,9.1c0,0.5,0,1-0.1,1.5L302.6,66.7L302.6,66.7z"/>
		<path id="Fill-9" sketch:type="MSShapeGroup" fill="#576683" d="M333.2,38.9c0.3-2.1-1.3-3.8-3.4-3.8H329c-2.1,0-4.2,1.8-4.5,3.8
			l-1.5,10.8c-0.3,2.1,1.3,3.9,3.4,3.9h1c2.1,0,4.2-1.8,4.5-3.9L333.2,38.9L333.2,38.9z M332.8,73.4c-0.8-0.8-2.2-1.2-4-1.2h-6
			c-2.1,0-4,1.5-4.3,3c-0.2,1.8,1.3,3.5,3.4,3.5h7.7c1,0,2-0.4,2.9-1.2c0.7-0.7,1.1-1.4,1.2-2.1C333.7,74.7,333.5,74,332.8,73.4
			L332.8,73.4z M347.4,34.1c-0.1,1-0.6,1.5-1.3,1.8c-0.4,0.1-1.3,0.1-2.4,0.1c-0.8-0.1-1.3,0.2-1.3,1c-0.1,0.3-0.1,0.7-0.1,1.4
			c0.1,0.6,0.1,1,0,1.3l-1.3,9.6c-0.5,3.3-2.1,6.2-4.8,8.6c-2.7,2.4-5.7,3.6-9.1,3.6h-4c-1.2,0-2.6,1.3-2.8,2.4
			c-0.1,1.2,0.9,2.2,2.1,2.2h8c8,0,12,2.6,12,7.7c0,0.5,0,1.1-0.1,1.8c-0.9,6-6.1,10-13.8,10h-10.5c-5.7,0-9.3-2.9-8.8-6.6
			c0.3-2.1,1.3-3.8,3-4.9l2.6-1.7c0,0.1-0.5-0.5-1.6-1.7c-1.1-1.3-1.5-2.6-1.3-4.1c0.2-1.8,1-3.2,2.4-4.3c0.1-0.1,1-0.7,3-1.8
			c0.5-0.3,0.8-0.5,0.8-0.7c0-0.2-0.2-0.4-0.6-0.7c-2.4-2-3.7-4.6-3.7-7.9c0-0.6,0.1-1.2,0.1-1.8l1.5-10.7c0.5-3.4,2.1-6.3,4.8-8.5
			c2.7-2.4,5.7-3.5,9.1-3.5h2.7c3.2,0,6,1.5,8.5,4.5c0.4,0.4,0.7,0.4,1,0c1.3-2.1,3.8-3.7,5.3-3.7c1.1,0,1.5,0.7,1.3,2.1L347.4,34.1
			L347.4,34.1z"/>
		<path id="Fill-10" sketch:type="MSShapeGroup" fill="#576683" d="M371.4,38.5c0.3-2.1-1-3.5-3.1-3.5h-3.5c-2.1,0-3.8,1.5-4.1,3.5
			l-0.8,5.3c-0.1,0.7,0.2,1,0.9,1h8.7c0.7,0,1.1-0.3,1.2-1L371.4,38.5L371.4,38.5z M378.5,50.1c-0.2,1.4-1,2.1-2.4,2.1h-16.3
			c-0.7,0-1,0.3-1.1,1l-1.1,7.5c-0.3,2,1.1,3.7,3.1,3.7h3.1c2,0,3.9-1.7,4.2-3.7l0.1-0.7c0.2-1.4,1-2.1,2.4-2.1h5.1
			c1.1,0,2,1,1.8,2.1c-0.5,3.8-2.2,7-5,9.4c-2.7,2.4-6,3.7-9.9,3.7H360c-7.1,0-11.4-4.3-11.4-10.8c0-0.7,0.1-1.5,0.1-2.2l2.9-20.5
			c0.5-3.7,2.1-6.8,4.5-9.3c2.4-2.5,5.4-3.8,8.8-3.8h5.4c6,0,9.6,5.1,9.6,11.6c0,0.8-0.1,1.6-0.2,2.4L378.5,50.1L378.5,50.1z"/>
		<path id="Fill-11" sketch:type="MSShapeGroup" fill="#576683" d="M50.7,18.7c-0.2,0-0.4,0-0.6,0v0C50.3,18.7,50.5,18.7,50.7,18.7
			c1.5,0,3,0,4.3-0.1C53.7,18.6,52.2,18.7,50.7,18.7"/>
		<path id="Fill-12" sketch:type="MSShapeGroup" fill="#576683" d="M73.5,35.9c-6.2-1.1-15.1-5.9-23.4-17.2c0.2,0,0.4,0,0.6,0
			c1.5,0,3,0,4.3-0.1l23.8,15.4C78.9,33.9,77,35,73.5,35.9"/>
		<path id="Fill-13" sketch:type="MSShapeGroup" fill="#576683" d="M67.8,68.3c0,0-28.2,0-49.2-10.7C1.9,48.9,4,44.6,4,44.6
			s18.2,4.3,32.2-0.9L67.8,68.3"/>
		<path id="Fill-14" sketch:type="MSShapeGroup" fill="#576683" d="M67.8,68.3L36.1,43.7L67.8,68.3 M29,45.5
			C29,45.5,29,45.5,29,45.5c2.3-0.4,4.6-0.9,6.8-1.7C33.6,44.6,31.3,45.1,29,45.5 M35.8,43.8C35.8,43.8,35.8,43.8,35.8,43.8
			C35.8,43.8,35.8,43.8,35.8,43.8"/>
		<path id="Fill-15" sketch:type="MSShapeGroup" fill="#576683" d="M67.8,68.3c0,0-5.8,0-14-1c-3.8-1.9-8.4-4.9-13.8-9.5
			c-4.6-3.9-7.9-8.2-11.1-12.3c2.3-0.4,4.6-0.9,6.8-1.7c0,0,0,0,0,0c0,0,0,0,0,0c0.1,0,0.2-0.1,0.3-0.1L67.8,68.3"/>
		<path id="Fill-16" sketch:type="MSShapeGroup" fill="#576683" d="M9.4,14.4c0.4-0.4,0.9-0.7,1.5-0.7c2.8,0.3,11.4,1.8,20.8,8.5
			c11.4,8.2,21.1,19,25.6,22.3c4.4,3.2,10.3,6.4,20.4,5.3c1.2-0.1,2.1,0.9,1.9,2.1c-1.6,6.9-6.4,13.6-7.9,15.5
			c-0.3,0.4-0.7,0.6-1.2,0.7c-2.8,0.3-11.8,2-28.4-12.4C28.4,43.7,25.6,28.5,5,28c-1.2,0-2-1-1.8-2.1C5,19.2,7.8,15.8,9.4,14.4"/>
		<path id="Fill-17" sketch:type="MSShapeGroup" fill="#576683" d="M1.6,44.3c-1,0-1.8,0.8-1.6,1.8C1,51.5,4.8,67,17.9,74.8
			c11.8,7,22.9,7.9,33.8,5c1.4-0.4,1.3-2.8-0.2-2.7c-6.8,0.5-16.7-1.4-20.3-8C22.5,53.1,13.5,44.8,1.6,44.3"/>
		<path id="Fill-18" sketch:type="MSShapeGroup" fill="#576683" d="M30.5,1.8c-1.6,0.4-1.7,3,0,3.1c6.2,0.3,15.5,2.6,20.3,9.8
			C60.6,29.1,71.6,33.9,78,34.1c1,0,1.7-0.8,1.6-1.7c-0.8-9.3-4.3-17-15.9-25.2C53-0.3,40.6-0.5,30.5,1.8"/>
	</g>
</g>
</svg>
