<?xml version="1.0" encoding="utf-8"?>
<!-- Generator: Adobe Illustrator 19.2.0, SVG Export Plug-In . SVG Version: 6.00 Build 0)  -->
<svg version="1.1" id="Layer_1" xmlns="http://www.w3.org/2000/svg" xmlns:xlink="http://www.w3.org/1999/xlink" x="0px" y="0px"
	 viewBox="0 0 560.5 157.9" enable-background="new 0 0 560.5 157.9" xml:space="preserve">
<title>Car_and_Truck_logo</title>
<path fill="#576683" d="M529.4,117.7l5,0.3c0.2-1.5,0.6-2.3,1.7-2.3c0.7-0.1,1.3,0.4,1.4,1.1c0,0,0,0.1,0,0.1v2.9
	c-6,0.6-8.9,3.1-8.9,7.8c0,3.8,2.2,6.3,4.9,6.3c1.8-0.1,3.4-1,4.4-2.4c0.1,0.7,0.3,1.3,0.7,1.9h5.2c-0.3-1.2-0.5-2.4-0.5-3.6V118
	c0-4.4-1.8-6.4-6.8-6.4C532.2,111.5,529.8,113.6,529.4,117.7 M537.5,128.6c-0.3,0.6-0.9,1-1.6,1.1c-0.9,0-1.7-1.1-1.7-2.8
	c-0.2-1.8,1.1-3.4,2.9-3.6c0.1,0,0.3,0,0.4,0V128.6L537.5,128.6z M526.9,125.3l-4.6-0.1v0.3c0,2.9-0.8,4.3-2,4.3
	c-1.5,0-1.8-2.6-1.8-8.4c0-4,0.1-5.9,1.5-5.9c1,0,1.6,1.2,1.6,3.6v0.9h4.9v-0.7c0-5-2.4-7.7-6.6-7.7c-4.7,0-7.6,4.1-7.6,11.7
	c0,7.1,2.6,10.8,7.5,10.8C524.3,134,526.9,131,526.9,125.3 M503.7,133.5h6.5v-5.8h-6.5V133.5z M448.1,133.5H468v-29.9l3.9-6.8
	l9.1,36.7H502l-15.8-55l13.4-22.4h-17.8l-13.7,24V23.8h-19.9L448.1,133.5L448.1,133.5z M444.9,103.9l-16.5-0.5v0.9
	c0,10.3-2.9,15.6-7.2,15.6c-5.5,0-6.5-9.5-6.5-30.2c0-14.3,0.5-21.4,5.5-21.4c3.8,0,5.7,4.3,5.7,13v3.2h17.8V82
	c0-18-8.8-27.8-23.8-27.8c-17,0-27.6,14.8-27.6,42.2c0,25.7,9.3,38.8,27.1,38.8C435.5,135.3,444.9,124.4,444.9,103.9 M384.7,56.1
	H365V115c-1,3.1-3.3,4.8-6.2,4.8c-2.7,0-4.5-2-4.5-5.4V56h-19.7v64.3c0,10.2,4.1,15.1,13.5,15.1c6.2,0,11.3-2.9,16.8-8.8v6.8h21.6
	c-1.2-4.2-1.8-8.6-1.9-13L384.7,56.1L384.7,56.1z M287.9,133.5h19.9V83.3c0-5.4,5-8.9,13.5-8.9c2.8,0.1,5.5,0.4,8.2,0.9V54.8
	c-9.6,0.8-16.6,4.9-21.8,12.3V56h-19.9L287.9,133.5L287.9,133.5z M236.7,42.5h18.7v90.9h23.3V42.5h18.7V24.6h-60.7V42.5z"/>
<path fill="#576683" d="M243.2,128.3V90h-7.9v14.6c-1.3-1.4-3.1-2.1-5-2.1c-5.6,0-8.2,5.4-8.2,16.3c0,10.2,2.1,15.3,7.5,15.3
	c2.1,0,4.1-0.8,5.6-2.3v1.5h8.5C243.4,131.7,243.1,130,243.2,128.3 M235.3,109.4v17.5c0,1.1-0.8,2.1-1.9,2.1c-2.3,0-2.7-3.2-2.7-9.9
	c0-8,0.3-11.9,3-11.9C234.8,107.3,235.3,108,235.3,109.4 M199,133.4h7.9v-23.3c0.3-1.1,1.2-1.9,2.4-1.9c1.1,0,1.8,0.7,1.8,2.1v23.1
	h7.9V108c0-4-1.7-6-5.4-6c-2.4,0-4.4,1.2-6.6,3.5v-2.7h-7.9L199,133.4L199,133.4z M175.1,110.9l7.2,0.4c0.2-2.2,0.9-3.3,2.4-3.3
	c1-0.1,1.9,0.6,2,1.6c0,0.1,0,0.1,0,0.2v4.2c-8.6,0.9-12.8,4.4-12.8,11.2c0,5.5,3.2,9,7,9c2.3,0,4.4-1.2,6.2-3.5
	c0.1,1,0.4,1.9,1,2.8h7.5c-0.4-1.7-0.7-3.4-0.7-5.1v-17c0-6.3-2.5-9.2-9.7-9.2C179.2,102.1,175.6,105.1,175.1,110.9 M186.8,126.4
	c-0.4,0.8-1.3,1.4-2.2,1.5c-1.4,0-2.5-1.5-2.5-4c0-3.1,1.7-4.9,4.7-5.1L186.8,126.4L186.8,126.4z"/>
<path fill="#576683" d="M143.7,133.4h19.9V83.3c0-5.4,5-8.9,13.5-8.9c2.8,0.1,5.5,0.4,8.2,0.9V54.8c-9.6,0.8-16.6,4.9-21.8,12.3V56
	h-19.9V133.4L143.7,133.4z M85.8,76.4l18.2,1.1c0.5-5.5,2.2-8.3,6.2-8.3c2.9,0,5,1.9,5,4.5v10.6c-21.8,2.2-32.2,11.1-32.2,28.2
	c0,13.9,8.1,22.8,17.7,22.8c5.8,0,11.1-2.9,15.8-8.8c0.3,2.5,1.1,4.8,2.4,6.9h18.9c-1.1-4.2-1.7-8.6-1.7-13v-43
	c0-15.9-6.4-23.3-24.5-23.3C96,54.2,87.1,61.8,85.8,76.4 M115.2,115.7c-1.5,2.5-3.8,3.9-5.7,3.9c-3.4,0-6.2-3.9-6.2-10.2
	c0-7.9,4.3-12.5,11.8-13L115.2,115.7L115.2,115.7z M79.5,91.7H58.8v1.5c0,15.9-2.6,23.6-8.8,23.6c-8.1,0-9.3-10.8-9.3-33.9
	c0-30.2,1-44.1,9.1-44.1c5.7,0,7,6.3,7,19.3v5.1h23v-2.5c0-25.1-10.5-38.2-29.7-38.2c-22.5,0-33.4,19.7-33.4,59
	c0,36.5,9.4,53.9,31.9,53.9C68.8,135.4,79,120.9,79.5,91.7"/>
</svg>
