<?xml version="1.0" encoding="utf-8"?>
<!-- Generator: Adobe Illustrator 19.2.0, SVG Export Plug-In . SVG Version: 6.00 Build 0)  -->
<svg version="1.1" id="Layer_1" xmlns="http://www.w3.org/2000/svg" xmlns:xlink="http://www.w3.org/1999/xlink" x="0px" y="0px"
	 viewBox="0 0 432 268" enable-background="new 0 0 432 268" xml:space="preserve">
<g id="Layer_1_1_">
	<g>
		<path fill="#576683" d="M138.2,91.2c-27.4,0-44.2,21.4-44.2,43c0,26,21.2,43,44.4,43c15.4,0,30-6.8,42.4-17.8v32.2
			c-13,7.8-30.8,12.6-44.6,12.6c-39.6,0-72.8-32.2-72.8-70c0-40,33.4-70,73-70c15.2,0,33,4.6,44.6,10.4v31.6
			C166.4,96.6,151.6,91.2,138.2,91.2z"/>
		<path fill="#576683" d="M265,204.2c-39.8,0-73.4-31-73.4-70c0-39.4,33.4-70,75.2-70c15.2,0,34,4,45.6,9.4V105
			c-13.2-7.6-30.2-13.8-45-13.8c-27.4,0-45.2,21.4-45.2,43c0,25.4,21,43.8,45.6,43.8c5.2,0,10.2-0.4,16.6-2.8V150H262v-26.6h51.2
			v70.8C298.6,200.8,282.2,204.2,265,204.2z"/>
		<path fill="#576683" d="M335.6,201.4V67h28.8v134.4L335.6,201.4L335.6,201.4z"/>
	</g>
</g>
<g id="Protection">
</g>
<g id="Guides">
</g>
</svg>
