<?xml version="1.0" encoding="utf-8"?>
<!-- Generator: Adobe Illustrator 19.1.0, SVG Export Plug-In . SVG Version: 6.00 Build 0)  -->
<svg version="1.1" id="Layer_1" xmlns="http://www.w3.org/2000/svg" xmlns:xlink="http://www.w3.org/1999/xlink" x="0px" y="0px"
	 viewBox="233 -72.3 923 729.4" style="enable-background:new 233 -72.3 923 729.4;" xml:space="preserve">
<style type="text/css">
	.st0{fill:none;stroke:#FFFFFF;stroke-width:80;stroke-miterlimit:10;}
</style>
<g>
	<path class="st0" d="M694.5,617H324.1c0,0-51,0-50.9-53.8c0.1-52.8-0.1-271.6-0.1-271.6V4.6c0,0,0-36.9,35-36.9
		c17.1,0,30.5,8.2,53.3,30.9c66,66,574,618.5,574,618.5L694.5,617L694.5,617z"/>
	<path class="st0" d="M755.5,421.8l304.7-324.2c0,0,14.1-16.5,34.9-11.5c9.1,2.2,21,10.9,21,33.1V563c0,0,0,54-54,54H935.3"/>
</g>
</svg>
