<?xml version="1.0" encoding="utf-8"?>
<!-- Generator: Adobe Illustrator 19.2.0, SVG Export Plug-In . SVG Version: 6.00 Build 0)  -->
<svg version="1.1" id="Layer_1" xmlns="http://www.w3.org/2000/svg" xmlns:xlink="http://www.w3.org/1999/xlink" x="0px" y="0px"
	 viewBox="0 0 404.6 28.8" enable-background="new 0 0 404.6 28.8" xml:space="preserve">
<title>mcc_logo</title>
<g>
	<path fill="#576683" d="M0,0.6h6.5l7.3,11.7l7.2-11.7h6.6v27.6h-6v-18L13.8,22h-0.2L6,10.3v17.9H0L0,0.6L0,0.6z"/>
	<path fill="#576683" d="M34.2,0.6h20.8V6H40.3v5.6h13V17h-13v5.8h15v5.4h-21L34.2,0.6L34.2,0.6z"/>
	<path fill="#576683" d="M60.7,0.6h10.8c8.7,0,14.7,6,14.7,13.7v0.1c0,7.8-6,13.8-14.7,13.8H60.7V0.6z M71.4,22.8
		c5,0,8.3-3.4,8.3-8.2v-0.1c0.2-4.4-3.1-8.1-7.5-8.3c-0.3,0-0.5,0-0.8,0h-4.7v16.6H71.4z"/>
	<path fill="#576683" d="M91.8,0.6h6.1v27.6h-6.1V0.6z"/>
	<path fill="#576683" d="M146.5,14.5v-0.1c-0.1-7.8,6-14.2,13.8-14.3c0.2,0,0.4,0,0.6,0c5.2,0,8.3,1.7,10.9,4.3l-3.9,4.5
		c-1.9-1.9-4.4-3-7.1-3.1c-4.7,0-8,3.9-8,8.6v0.1c0,4.7,3.3,8.7,8,8.7c3.2,0,5.1-1.3,7.3-3.2l3.9,3.9c-2.8,3.3-7,5.1-11.3,4.9
		c-7.7,0.1-14-6-14.1-13.7C146.5,14.9,146.5,14.7,146.5,14.5z"/>
	<path fill="#576683" d="M176.9,0.6h6.1v22.1h13.8v5.5h-19.9V0.6z"/>
	<path fill="#576683" d="M230.6,24.2l3.6-4.3c2.3,2.1,5.2,3.3,8.3,3.3c2.5,0,4-1,4-2.6v-0.1c0-1.5-1-2.3-5.6-3.5
		c-5.6-1.4-9.2-3-9.2-8.4v0c0-5,4-8.3,9.7-8.3c3.7-0.1,7.3,1.2,10.3,3.5l-3.2,4.6c-2.1-1.6-4.6-2.6-7.2-2.8c-2.3,0-3.6,1.1-3.6,2.4
		V8c0,1.8,1.2,2.4,6,3.6c5.6,1.5,8.7,3.5,8.7,8.3V20c0,5.5-4.2,8.6-10.1,8.6C238,28.6,233.8,27.1,230.6,24.2z"/>
	<path fill="#576683" d="M255.8,24.2l3.6-4.3c2.3,2.1,5.2,3.3,8.3,3.3c2.5,0,4-1,4-2.6v-0.1c0-1.5-0.9-2.3-5.6-3.5
		c-5.6-1.4-9.2-3-9.2-8.4v0c0-5,4-8.3,9.7-8.3c3.7-0.1,7.3,1.2,10.3,3.5l-3.1,4.6c-2.1-1.6-4.6-2.6-7.2-2.7c-2.3,0-3.6,1.1-3.6,2.4
		v0.1c0,1.8,1.2,2.4,6,3.6c5.6,1.5,8.8,3.5,8.8,8.3v0.1c0,5.5-4.2,8.6-10.2,8.6C263.2,28.6,259.1,27.1,255.8,24.2z"/>
	<path fill="#576683" d="M283.2,0.6h6.1v27.6h-6.1V0.6z"/>
	<path fill="#576683" d="M296.2,0.6h21v5.5h-15V12h13.2v5.5h-13.1v10.7h-6.1V0.6z"/>
	<path fill="#576683" d="M322.4,0.6h6.1v27.6h-6.1V0.6z"/>
	<path fill="#576683" d="M335.4,0.6h20.8V6h-14.8v5.6h13V17h-13v5.8h15v5.4h-21V0.6z"/>
	<path fill="#576683" d="M361.8,0.6h10.8c8.7,0,14.7,6,14.7,13.7v0.1c0,7.8-6,13.8-14.7,13.8h-10.8V0.6z M372.6,22.8
		c5,0,8.3-3.4,8.3-8.2v-0.1c0.2-4.4-3.1-8.1-7.5-8.3c-0.3,0-0.5,0-0.8,0h-4.7v16.6H372.6z"/>
	<polygon fill="#576683" points="122.8,22 116.5,22 113.3,16.7 120.6,16.7 117,7.7 108.6,28.2 102.4,28.2 114.2,0.4 119.8,0.4 
		131.7,28.2 125.3,28.2 	"/>
	<polygon fill="#576683" points="219.5,22 213.3,22 210,16.7 217.4,16.7 213.7,7.7 205.3,28.2 199.1,28.2 211,0.4 216.6,0.4 
		228.4,28.2 222.1,28.2 	"/>
</g>
<path fill="#576683" d="M389.7,7.6L389.7,7.6c0-4.1,3.3-7.5,7.5-7.5s7.5,3.3,7.5,7.5l0,0c0,4.1-3.3,7.5-7.5,7.5
	S389.7,11.7,389.7,7.6z M403.8,7.6L403.8,7.6c0-3.6-3-6.6-6.6-6.6c-3.6,0-6.6,3-6.6,6.6l0,0l0,0c0,3.6,3,6.6,6.6,6.6
	C400.8,14.2,403.8,11.2,403.8,7.6L403.8,7.6z M394.1,3.4h3.5c0.9-0.1,1.8,0.3,2.5,0.9c0.4,0.5,0.7,1.1,0.7,1.7l0,0
	c0,1.1-0.7,2.1-1.7,2.4l1.9,2.8h-2l-1.7-2.6h-1.4v2.6h-1.8L394.1,3.4L394.1,3.4z M397.6,7.3c0.6,0.1,1.2-0.3,1.3-1
	c0-0.1,0-0.1,0-0.2l0,0c0-0.6-0.5-1.2-1.2-1.2c-0.1,0-0.2,0-0.2,0h-1.7v2.2L397.6,7.3L397.6,7.3z"/>
</svg>
