<?xml version="1.0" encoding="utf-8"?>
<!-- Generator: Adobe Illustrator 19.2.0, SVG Export Plug-In . SVG Version: 6.00 Build 0)  -->
<svg version="1.1" id="Layer_1" xmlns="http://www.w3.org/2000/svg" xmlns:xlink="http://www.w3.org/1999/xlink" x="0px" y="0px"
	 viewBox="0 0 101.1 101.5" enable-background="new 0 0 101.1 101.5" xml:space="preserve">
<g>
	<g>
		<defs>
			<rect id="SVGID_1_" width="101.1" height="101.5"/>
		</defs>
		<clipPath id="SVGID_2_">
			<use xlink:href="#SVGID_1_"  overflow="visible"/>
		</clipPath>
		<path clip-path="url(#SVGID_2_)" fill="#576683" d="M94.6,68.4c-0.1,0.2-0.1,0.4-0.2,0.5c-0.7-0.5-1.8-1.4-3.2-2.3
			c-0.2-0.1-0.5-0.2-0.7-0.1c-0.2,0.1-0.4,0.2-0.5,0.5c-0.3,0.8-0.7,1.6-1.1,2.5c-0.1,0.2-0.1,0.4,0,0.6c1,2.8,0.9,6-0.5,9.3
			c-0.5-0.7-1.3-1.7-2.4-2.9c-0.2-0.2-0.4-0.3-0.6-0.3c-0.2,0-0.5,0.1-0.6,0.3c-0.6,0.8-1.1,1.5-1.7,2.1c-0.1,0.2-0.2,0.4-0.2,0.6
			c0.3,3-0.7,6-2.9,8.9c-0.3-0.8-0.9-2-1.6-3.5c-0.1-0.2-0.3-0.4-0.6-0.4c-0.2-0.1-0.5,0-0.7,0.2c-0.7,0.6-1.4,1.1-2.2,1.6
			c-0.2,0.1-0.3,0.3-0.3,0.5c-0.5,3-2.2,5.6-5.1,7.8c-0.1-0.9-0.3-2.2-0.6-3.8c0-0.2-0.2-0.5-0.4-0.6c-0.2-0.1-0.5-0.1-0.7,0
			c-0.8,0.3-1.6,0.7-2.5,1c-0.2,0.1-0.4,0.2-0.5,0.4c-1.3,2.7-3.6,4.8-7,6.3c0.1-0.9,0.3-2.2,0.4-3.8c0-0.2-0.1-0.5-0.3-0.7
			S57.5,93,57.3,93c-0.9,0.1-1.8,0.2-2.7,0.3c-0.2,0-0.4,0.1-0.6,0.3c-1.9,2.3-4.7,3.7-8.3,4.2c0.3-0.8,0.8-2,1.3-3.6
			c0.1-0.2,0.1-0.5-0.1-0.7s-0.4-0.4-0.6-0.4c-0.9-0.1-1.8-0.2-2.7-0.4c-0.2,0-0.4,0-0.6,0.1c-2.5,1.7-5.5,2.4-9.2,2
			c0.5-0.7,1.3-1.8,2.2-3.1c0.1-0.2,0.2-0.5,0.1-0.7c-0.1-0.2-0.3-0.4-0.5-0.5c-0.8-0.3-1.7-0.7-2.5-1.1c-0.2-0.1-0.4-0.1-0.6,0
			c-2.8,1.1-6,0.9-9.4-0.5c0.7-0.5,1.7-1.4,2.9-2.4c0.2-0.2,0.3-0.4,0.3-0.7c0-0.2-0.1-0.5-0.3-0.6c-0.7-0.5-1.4-1.1-2.1-1.7
			c-0.2-0.1-0.4-0.2-0.6-0.2c-3,0.3-6-0.7-8.9-2.9c0.8-0.4,2-0.9,3.5-1.6c0.2-0.1,0.4-0.3,0.4-0.6c0.1-0.2,0-0.5-0.2-0.7
			c-0.6-0.7-1.1-1.4-1.6-2.2c-0.1-0.2-0.3-0.3-0.5-0.3c-3-0.5-5.6-2.2-7.9-5.1c0.9-0.1,2.2-0.3,3.8-0.6c0.2,0,0.5-0.2,0.6-0.4
			s0.1-0.5,0-0.7c-0.4-0.8-0.7-1.7-1-2.5l-0.3-0.8l-1.5,0.6l0.3,0.8c0.2,0.6,0.4,1.1,0.7,1.6c-2.5,0.4-4,0.6-4,0.6
			c-0.3,0-0.5,0.2-0.7,0.5c-0.1,0.3-0.1,0.6,0.1,0.8c2.6,3.8,5.8,6.1,9.4,6.8c0.3,0.4,0.6,0.8,0.9,1.2c-2.3,1.1-3.7,1.6-3.7,1.6
			c-0.3,0.1-0.5,0.3-0.5,0.6c0,0.3,0.1,0.6,0.3,0.8c3.5,3,7.1,4.4,10.8,4.1c0.4,0.3,0.8,0.6,1.1,0.9c-1.9,1.6-3.1,2.5-3.2,2.5
			c-0.2,0.2-0.4,0.4-0.3,0.7c0,0.3,0.2,0.5,0.5,0.7c4.1,2,8,2.4,11.5,1.2c0.4,0.2,0.9,0.4,1.3,0.6c-1.4,2.1-2.4,3.2-2.4,3.3
			c-0.2,0.2-0.2,0.5-0.1,0.8c0.1,0.3,0.3,0.5,0.6,0.5c4.5,0.9,8.4,0.2,11.5-1.8c0.5,0.1,0.9,0.2,1.4,0.2c-0.9,2.4-1.5,3.7-1.5,3.8
			c-0.1,0.3-0.1,0.6,0.1,0.8c0.2,0.2,0.4,0.4,0.7,0.3C49,99.3,52.6,97.8,55,95c0.5,0,1-0.1,1.4-0.2c-0.2,2.5-0.5,4-0.5,4
			c0,0.3,0.1,0.6,0.3,0.8c0.2,0.1,0.3,0.2,0.5,0.2c0.1,0,0.2,0,0.3,0c4.3-1.5,7.4-4,9-7.3c0.5-0.2,0.9-0.3,1.3-0.5
			c0.4,2.5,0.6,4,0.6,4c0,0.3,0.2,0.5,0.5,0.7c0.3,0.1,0.6,0.1,0.8-0.1c3.8-2.6,6.1-5.7,6.8-9.4c0.4-0.3,0.8-0.6,1.2-0.8
			c1.1,2.3,1.6,3.7,1.6,3.7c0.1,0.3,0.3,0.5,0.6,0.5c0.3,0.1,0.6-0.1,0.8-0.3c3-3.5,4.4-7.1,4.2-10.8c0.3-0.4,0.6-0.7,0.9-1.1
			c1.6,1.9,2.5,3.2,2.5,3.2c0.2,0.2,0.4,0.4,0.7,0.3c0.3,0,0.5-0.2,0.7-0.5c2-4.1,2.4-8,1.3-11.5c0.2-0.4,0.4-0.9,0.6-1.3
			c2.1,1.5,3.2,2.4,3.2,2.4c0.2,0.2,0.5,0.2,0.8,0.1c0.3-0.1,0.5-0.3,0.5-0.6c0.1-0.3,0.3-1,0.5-1.6c0.4-1.2,0.5-1.6,0.6-2.1
			l-1.5-0.6C95.2,66.6,94.9,67.7,94.6,68.4"/>
	</g>
	<g>
		<defs>
			<rect id="SVGID_3_" width="101.1" height="101.5"/>
		</defs>
		<clipPath id="SVGID_4_">
			<use xlink:href="#SVGID_3_"  overflow="visible"/>
		</clipPath>
		<path clip-path="url(#SVGID_4_)" fill="#576683" d="M87.4,50.4c0-2.3-0.2-4.6-0.7-6.8l0,0l0,0c-0.9-4.8-2.8-9.3-5.4-13.3l0,0l0,0
			c-6.6-10-17.9-16.6-30.7-16.6c-20.3,0-36.8,16.5-36.8,36.8c0,20.3,16.5,36.8,36.8,36.8S87.4,70.8,87.4,50.4
			C87.4,50.5,87.4,50.5,87.4,50.4L87.4,50.4L87.4,50.4z M80.4,31.8c0.4,0.6,0.8,1.3,1.2,2l-1.2-0.7V31.8z M80.4,35l2.5,1.5
			c0.3,0.6,0.5,1.2,0.8,1.9l-3.2-1.9C80.4,36.5,80.4,35,80.4,35z M80.4,38.4l4,2.3c0.2,0.6,0.3,1.2,0.5,1.8l-4.4-2.6V38.4z
			 M80.4,41.7l4.9,2.9c0.1,0.5,0.2,1,0.2,1.5l-5.1-3V41.7z M80.4,45.1l5.3,3.1c0,0.5,0.1,0.9,0.1,1.4l-5.4-3V45.1z M85.7,51.4
			c-0.1,2.1-0.3,4.2-0.7,6.2h-4.6v-9.2L85.7,51.4z M15.5,51.8l5.6-3.3v9.1h-4.9C15.8,55.7,15.5,53.8,15.5,51.8 M64.3,48.8v8.8h-6.5
			v-5.8l2.3,1.3l0.8-1.4l-10-5.9l-10,5.9l0.8,1.4l2-1.2v5.6h-6v-8.8L51,41.1L64.3,48.8z M60.5,44.7v-1.9h1.4v2.7L60.5,44.7z
			 M82.4,65.5c-0.1-2.4,0.1-4.4,0.2-6.2h2C84.1,61.4,83.3,63.5,82.4,65.5 M69.7,80.1c0-0.2-0.1-0.4-0.1-0.6
			c-1.4-5.8-10.4-11.2-14-11.2c-1.1,0-1.6,0.5-1.8,0.9c-0.9,1.7-0.4,9.1,2.8,16c-0.7,0.1-1.5,0.2-2.3,0.3c-0.8-1.6-1.5-3.4-2-5.9
			c-1.9-9.1-0.6-13.3,1.1-17.4c0.3-0.7,0.7-1.7,1.2-3h1.9c-1,2.5-1.8,5.6,0.6,6.8c1.5,0.7,2.9,1.6,4,2.3c1.6,1.1,3,2,4.3,2
			c0.3,0,0.7-0.1,1-0.2c0.4-0.2,0.7-0.5,0.8-0.9c0.4-1-0.4-2.5-1.6-4.6c-0.9-1.6-1.9-3.5-2.6-5.4h3.4c0.9,2.8,1.8,5.4,2.6,7.7
			c1.1,3.1,2,5.7,2.6,8c0.3,1.2,0.4,2.4,0.5,3.4C71.3,79,70.5,79.5,69.7,80.1 M66.1,82.1c-0.7-2.7-2-5.5-3.3-5.9L62,75.9l-0.5,1.5
			l0.7,0.3c0.5,0.2,1.8,2.6,2.3,5.1c-0.9,0.4-1.9,0.8-2.8,1.1c-1.4-3-2.7-7.5-3.5-10.6l-0.2-0.8l-1.6,0.4l0.2,0.8
			c0.4,1.5,1.7,6.7,3.5,10.7c-0.6,0.2-1.3,0.3-1.9,0.5c-3.1-6.6-3.7-13.7-3-14.9c0,0,0.1-0.1,0.4-0.1c2.7,0,11.2,4.8,12.4,10
			c0.1,0.4,0.1,0.7,0.2,1.1C67.5,81.4,66.8,81.8,66.1,82.1 M50.2,83.1l0-0.8l-1.6,0.1l0,0.8c0,0.9,0.1,1.8,0.2,2.5
			c-0.4,0-0.8,0-1.2-0.1c-0.1-0.9-0.1-1.8-0.2-2.8C46.9,74.3,47,68.7,48,59.2h4.8c-0.4,0.9-0.7,1.7-1,2.3C50,66,48.7,70.4,50.7,80
			c0.5,2.3,1.1,4.1,1.9,5.7c-0.6,0-1.3,0.1-2,0.1c-0.1,0-0.1,0-0.2,0C50.3,84.9,50.2,84.1,50.2,83.1 M44,85.1c0-0.5-0.1-1-0.1-1.6
			c-0.6-8.8-0.5-17.2-0.1-24.2h2.5c-1,9.4-1.1,15.1-0.7,23.6c0,0.9,0.1,1.7,0.2,2.5C45.2,85.3,44.6,85.2,44,85.1 M39.7,84
			c-0.6-7.5-0.9-15.9-0.3-24.7h2.8c-0.4,7.1-0.6,15.5,0.1,24.4c0,0.4,0.1,0.7,0.1,1.1C41.5,84.5,40.6,84.2,39.7,84 M35.7,82.4
			c-0.4-7.1-0.3-15.8,0.4-23.1h1.7c-0.6,8.6-0.3,16.8,0.2,24.1C37.2,83.1,36.4,82.7,35.7,82.4 M24,73.5c0-4.7-0.1-9.2-0.1-13
			c0-0.4,0-0.8,0-1.2h3.3C26.8,64.2,26.6,70,26.4,76C25.5,75.2,24.7,74.4,24,73.5 M16.5,59.2h2.7c0.1,2.5,0.1,4.9,0.1,7.3
			C18.1,64.3,17.2,61.8,16.5,59.2 M20.9,69.4c0-3.2,0-6.6-0.1-10.1h1.5c0,0.4,0,0.8,0,1.2c0,3.3,0,7,0.1,10.9
			C21.8,70.7,21.4,70.1,20.9,69.4 M28,77.4c0.2-6.5,0.5-12.9,0.9-18.2h2.2c-0.5,5.1-0.7,12.3-0.8,20C29.5,78.7,28.7,78.1,28,77.4
			 M32,80.3c0.1-8.4,0.3-15.9,0.8-21.1h1.7c-0.6,7-0.8,15.3-0.5,22.3C33.3,81.1,32.6,80.7,32,80.3 M58.2,59.3
			C58.2,59.3,58.2,59.3,58.2,59.3l3.1,0c0.6,2.3,1.8,4.4,2.8,6.2c0.6,1.1,1.5,2.7,1.5,3.2C64.8,68.9,63.5,68,62,67
			c-1.2-0.8-2.6-1.7-4.2-2.5C57.4,64.4,56.2,63.8,58.2,59.3 M56.2,57.6H45.5v-6.5l5.5-3.2l5.2,3.1V57.6z M73.5,77.1
			c-0.1-0.8-0.2-1.7-0.4-2.6c-0.5-2.4-1.5-5.1-2.6-8.2c-0.8-2.2-1.6-4.6-2.4-7.2h2.4c0.7,2.6,1.5,5,2.2,7.1c0.5,1.3,0.9,2.5,1.4,3.6
			c0.7,1.7,1.4,3.2,1.8,5C75.1,75.7,74.3,76.4,73.5,77.1 M75.6,69.2c-0.5-1.1-0.9-2.2-1.4-3.4c-0.7-2-1.4-4.2-2.1-6.6h3
			c1.3,5.7,2.3,9.4,2.3,9.5l0.2,0.8l1.6-0.4L79,68.3c0-0.1-1-3.6-2.2-9H81c-0.2,2.4-0.4,5.3-0.1,9c-1.1,1.9-2.3,3.6-3.7,5.2
			C76.8,72,76.2,70.6,75.6,69.2 M50.6,15.3c11.6,0,21.8,5.6,28.3,14.3l-2.5,1.5l0.8,1.4l1.6-0.9v1.6l-3.4,2l0.8,1.4l2.6-1.5v1.5
			l-4.9,2.9l0.8,1.4l4.1-2.4v1.5l-5.9,3.5l0.8,1.4l5.1-3v1.5l-7.6,4.4L72,49l6.8-3.9v1.5l-9.2,5.4l0.8,1.4l8.4-4.9v9.1H65.9v-7.9
			l2,1.2l0.8-1.4l-5.2-3v-3.6h0.8v-1.6h-3.8h-1.6h-0.8v1.6h0.8v0.9L51,39.2L33.4,49.5l0.8,1.4l2-1.2v7.9H22.7v-9.2l8.5,4.9L32,52
			l-9.3-5.4v-1.5l6.8,4l0.8-1.4l-7.7-4.4v-1.5l5.2,3l0.8-1.4l-6-3.5v-1.5l4.2,2.4l0.8-1.4l-5-2.9V35l2.6,1.5l0.8-1.4l-3.4-2v-1.6
			l1.7,1l0.8-1.4l-2.7-1.6C28.9,20.9,39.1,15.3,50.6,15.3 M21,31.5L21,31.5l0,1.6L19.5,34C20,33.2,20.5,32.3,21,31.5 M18.3,36.6
			L21,35v1.4l-3.4,1.8C17.8,37.7,18,37.2,18.3,36.6 M16.9,40.6l4.2-2.2v1.5l-4.7,2.7C16.5,41.9,16.7,41.2,16.9,40.6 M15.9,44.6
			l5.1-2.9v1.5l-5.3,3C15.8,45.7,15.8,45.2,15.9,44.6 M15.5,48.2l5.5-3.2v1.5l-5.6,3.3C15.4,49.4,15.5,48.8,15.5,48.2"/>
	</g>
	<g>
		<defs>
			<rect id="SVGID_5_" width="101.1" height="101.5"/>
		</defs>
		<clipPath id="SVGID_6_">
			<use xlink:href="#SVGID_5_"  overflow="visible"/>
		</clipPath>
		<path clip-path="url(#SVGID_6_)" fill="#576683" d="M9.3,57.5c-0.3-1.9-2.1-3.2-4.1-2.9c-1.9,0.3-3.2,2.1-2.9,4.1
			c0.3,1.9,2.1,3.2,4.1,2.9C8.3,61.2,9.6,59.4,9.3,57.5 M3.9,58.4c-0.2-1.1,0.6-2.1,1.6-2.3c1.1-0.2,2.1,0.5,2.2,1.6
			c0.2,1.1-0.5,2.1-1.6,2.2C5.1,60.1,4.1,59.4,3.9,58.4"/>
	</g>
	<g>
		<defs>
			<rect id="SVGID_7_" width="101.1" height="101.5"/>
		</defs>
		<clipPath id="SVGID_8_">
			<use xlink:href="#SVGID_7_"  overflow="visible"/>
		</clipPath>
		<path clip-path="url(#SVGID_8_)" fill="#576683" d="M8.6,50.9l0.1-3.7c0-0.1-0.1-0.2-0.2-0.2l-1.1,0c-0.1,0-0.2,0.1-0.2,0.2
			l-0.1,2.3L2,49.3c-0.1,0-0.2,0.1-0.2,0.2l0,1.2c0,0.1,0.1,0.2,0.2,0.2L8.4,51C8.5,51,8.6,51,8.6,50.9"/>
	</g>
	<g>
		<defs>
			<rect id="SVGID_9_" width="101.1" height="101.5"/>
		</defs>
		<clipPath id="SVGID_10_">
			<use xlink:href="#SVGID_9_"  overflow="visible"/>
		</clipPath>
		<path clip-path="url(#SVGID_10_)" fill="#576683" d="M2.4,42.9l6.3,1.4c0.1,0,0.2,0,0.2-0.1l0.5-2.3c0.4-1.8-0.8-3.7-2.6-4.1
			c-1.8-0.4-3.7,0.8-4.1,2.6l-0.5,2.3C2.3,42.8,2.4,42.9,2.4,42.9 M4.2,40.7c0.2-1.1,1.3-1.7,2.3-1.5c1.1,0.2,1.8,1.2,1.5,2.3
			l-0.2,0.9L4,41.7L4.2,40.7z"/>
	</g>
	<g>
		<defs>
			<rect id="SVGID_11_" width="101.1" height="101.5"/>
		</defs>
		<clipPath id="SVGID_12_">
			<use xlink:href="#SVGID_11_"  overflow="visible"/>
		</clipPath>
		<path clip-path="url(#SVGID_12_)" fill="#576683" d="M8.3,29.9c1,0.6,2.1,0,2.8-0.6c0.6-0.5,1-0.6,1.4-0.4
			c0.3,0.2,0.4,0.5,0.2,0.9c-0.3,0.6-1.1,0.9-1.1,1c-0.1,0-0.2,0.2-0.1,0.3l0.5,0.8c0.1,0.1,0.1,0.1,0.3,0.1
			c0.3-0.1,1.1-0.5,1.7-1.6c0.7-1.3,0.2-2.5-0.7-3c-1.2-0.6-2.3,0.1-2.9,0.7c-0.6,0.5-1,0.7-1.3,0.5c-0.2-0.1-0.3-0.5-0.1-0.8
			c0.3-0.5,1.1-0.9,1.2-0.9c0.1,0,0.1-0.2,0-0.4l-0.4-0.8c0-0.1-0.2-0.2-0.3-0.1C9,25.6,8.2,26.1,7.7,27C6.9,28.3,7.4,29.4,8.3,29.9
			"/>
	</g>
	<g>
		<defs>
			<rect id="SVGID_13_" width="101.1" height="101.5"/>
		</defs>
		<clipPath id="SVGID_14_">
			<use xlink:href="#SVGID_13_"  overflow="visible"/>
		</clipPath>
		<path clip-path="url(#SVGID_14_)" fill="#576683" d="M18.5,23.5c0.6-0.7,0.9-1.5,0.8-2.4c0-0.1-0.1-0.2-0.2-0.2L18,21
			c-0.1,0-0.2,0.1-0.2,0.2c0,0.5-0.2,1-0.5,1.3c-0.7,0.9-1.9,0.9-2.8,0.2c-0.9-0.7-1-1.9-0.3-2.8c0.3-0.4,0.7-0.6,1.2-0.7
			c0.1,0,0.2-0.1,0.2-0.2l-0.1-1.1c0-0.1-0.1-0.2-0.2-0.2c-0.9,0.1-1.6,0.5-2.2,1.3c-1.2,1.5-1,3.7,0.5,5
			C15.1,25.2,17.3,25,18.5,23.5"/>
	</g>
	<g>
		<defs>
			<rect id="SVGID_15_" width="101.1" height="101.5"/>
		</defs>
		<clipPath id="SVGID_16_">
			<use xlink:href="#SVGID_15_"  overflow="visible"/>
		</clipPath>
		<path clip-path="url(#SVGID_16_)" fill="#576683" d="M21.9,19.4c0.1,0.1,0.2,0.1,0.3,0l0.9-0.7c0.1-0.1,0.1-0.2,0-0.3l-1.6-2
			l2.2-1.8l1.6,2c0.1,0.1,0.2,0.1,0.3,0l0.9-0.7c0.1-0.1,0.1-0.2,0-0.3l-4.1-5.1c-0.1-0.1-0.2-0.1-0.3,0l-0.9,0.7
			c-0.1,0.1-0.1,0.2,0,0.3l1.5,1.9l-2.2,1.8l-1.5-1.9c-0.1-0.1-0.2-0.1-0.3,0l-0.9,0.7c-0.1,0.1-0.1,0.2,0,0.3L21.9,19.4z"/>
	</g>
	<g>
		<defs>
			<rect id="SVGID_17_" width="101.1" height="101.5"/>
		</defs>
		<clipPath id="SVGID_18_">
			<use xlink:href="#SVGID_17_"  overflow="visible"/>
		</clipPath>
		<path clip-path="url(#SVGID_18_)" fill="#576683" d="M32.3,12.8c1.8-0.9,2.5-2.9,1.6-4.7c-0.9-1.8-3-2.5-4.7-1.6
			c-1.8,0.9-2.5,3-1.6,4.7C28.4,13,30.5,13.7,32.3,12.8 M29.9,7.9c1-0.5,2.2-0.1,2.6,0.9c0.5,1,0.1,2.1-0.9,2.6
			c-1,0.5-2.1,0.1-2.6-0.9C28.5,9.5,28.9,8.3,29.9,7.9"/>
	</g>
	<g>
		<defs>
			<rect id="SVGID_19_" width="101.1" height="101.5"/>
		</defs>
		<clipPath id="SVGID_20_">
			<use xlink:href="#SVGID_19_"  overflow="visible"/>
		</clipPath>
		<path clip-path="url(#SVGID_20_)" fill="#576683" d="M41.1,9.7c1.9-0.4,3.1-2.3,2.6-4.2c-0.4-1.9-2.3-3.1-4.2-2.7
			c-1.9,0.4-3.1,2.3-2.6,4.2C37.3,9,39.2,10.1,41.1,9.7 M39.9,4.3c1-0.2,2.1,0.4,2.4,1.5c0.2,1-0.4,2.1-1.5,2.3
			c-1,0.2-2.1-0.4-2.3-1.5C38.2,5.7,38.8,4.6,39.9,4.3"/>
	</g>
	<g>
		<defs>
			<rect id="SVGID_21_" width="101.1" height="101.5"/>
		</defs>
		<clipPath id="SVGID_22_">
			<use xlink:href="#SVGID_21_"  overflow="visible"/>
		</clipPath>
		<path clip-path="url(#SVGID_22_)" fill="#576683" d="M47.6,8.6l3.7-0.1c0.1,0,0.2-0.1,0.2-0.2l0-1.1c0-0.1-0.1-0.2-0.2-0.2
			l-2.3,0.1l-0.2-5.2c0-0.1-0.1-0.2-0.2-0.2l-1.2,0c-0.1,0-0.2,0.1-0.2,0.2l0.2,6.5C47.4,8.5,47.5,8.6,47.6,8.6"/>
	</g>
	<g>
		<defs>
			<rect id="SVGID_23_" width="101.1" height="101.5"/>
		</defs>
		<clipPath id="SVGID_24_">
			<use xlink:href="#SVGID_23_"  overflow="visible"/>
		</clipPath>
		<path clip-path="url(#SVGID_24_)" fill="#576683" d="M54.4,8.6l1.2,0.2c0.1,0,0.2-0.1,0.2-0.2l0.4-2.5l2.8,0.4l-0.4,2.5
			c0,0.1,0,0.2,0.2,0.2l1.2,0.2c0.1,0,0.2-0.1,0.2-0.2l1-6.4c0-0.1-0.1-0.2-0.2-0.2l-1.2-0.2c-0.1,0-0.2,0.1-0.2,0.2l-0.4,2.4
			l-2.8-0.4l0.4-2.4c0-0.1,0-0.2-0.2-0.2l-1.2-0.2c-0.1,0-0.2,0.1-0.2,0.2l-1,6.4C54.2,8.5,54.3,8.6,54.4,8.6"/>
	</g>
	<g>
		<defs>
			<rect id="SVGID_25_" width="101.1" height="101.5"/>
		</defs>
		<clipPath id="SVGID_26_">
			<use xlink:href="#SVGID_25_"  overflow="visible"/>
		</clipPath>
		<path clip-path="url(#SVGID_26_)" fill="#576683" d="M66.1,11.6c1.8,0.7,3.9-0.1,4.6-2c0.7-1.8-0.1-3.9-2-4.6
			c-1.8-0.7-3.9,0.2-4.6,2C63.4,8.9,64.3,10.9,66.1,11.6 M65.6,7.6c0.4-1,1.6-1.5,2.5-1.1c1,0.4,1.5,1.6,1.1,2.6
			c-0.4,1-1.5,1.5-2.5,1.1C65.7,9.8,65.2,8.6,65.6,7.6"/>
	</g>
	<g>
		<defs>
			<rect id="SVGID_27_" width="101.1" height="101.5"/>
		</defs>
		<clipPath id="SVGID_28_">
			<use xlink:href="#SVGID_27_"  overflow="visible"/>
		</clipPath>
		<path clip-path="url(#SVGID_28_)" fill="#576683" d="M74.1,15.9c1.3,0.9,3,0.6,3.9-0.7l2.3-3.3c0.1-0.1,0-0.2,0-0.3l-1-0.7
			c-0.1-0.1-0.2,0-0.3,0l-2.2,3.3c-0.4,0.6-1.1,0.7-1.7,0.3c-0.6-0.4-0.7-1.1-0.3-1.7l2.2-3.3c0.1-0.1,0-0.2,0-0.3l-1-0.7
			c-0.1-0.1-0.2,0-0.3,0L73.3,12C72.4,13.3,72.8,15,74.1,15.9"/>
	</g>
	<g>
		<defs>
			<rect id="SVGID_29_" width="101.1" height="101.5"/>
		</defs>
		<clipPath id="SVGID_30_">
			<use xlink:href="#SVGID_29_"  overflow="visible"/>
		</clipPath>
		<path clip-path="url(#SVGID_30_)" fill="#576683" d="M79.2,18.8c0,0.3,0.1,1.2,1,2.1c1,1,2.4,0.9,3.1,0.2c0.9-0.9,0.5-2.2,0.2-3
			c-0.3-0.8-0.3-1.2-0.1-1.4c0.2-0.2,0.5-0.2,0.8,0.1c0.4,0.4,0.5,1.3,0.6,1.4c0,0.1,0.2,0.2,0.3,0.1l0.9-0.2c0.1,0,0.2-0.1,0.2-0.3
			c-0.1-0.4-0.2-1.3-1-2c-1.1-1.1-2.3-0.9-3-0.2c-0.8,0.8-0.6,2-0.2,2.9c0.3,0.7,0.3,1.1,0,1.4c-0.2,0.2-0.6,0.2-0.9-0.1
			c-0.5-0.5-0.6-1.3-0.6-1.4c0-0.1-0.1-0.2-0.3-0.2l-0.9,0.2C79.2,18.7,79.2,18.7,79.2,18.8"/>
	</g>
	<g>
		<defs>
			<rect id="SVGID_31_" width="101.1" height="101.5"/>
		</defs>
		<clipPath id="SVGID_32_">
			<use xlink:href="#SVGID_31_"  overflow="visible"/>
		</clipPath>
		<path clip-path="url(#SVGID_32_)" fill="#576683" d="M83.9,25l2.3,3.3c0.1,0.1,0.2,0.1,0.3,0l0.9-0.6c0.1-0.1,0.1-0.2,0-0.3
			l-1.6-2.2l1.1-0.8l1.3,1.8c0.1,0.1,0.2,0.1,0.3,0l0.9-0.6c0.1-0.1,0.1-0.2,0-0.3l-1.3-1.8l1-0.7l1.6,2.2c0.1,0.1,0.2,0.1,0.3,0
			l0.9-0.6c0.1-0.1,0.1-0.2,0-0.3L89.5,21c-0.1-0.1-0.2-0.1-0.3,0l-5.3,3.7C83.8,24.8,83.8,24.9,83.9,25"/>
	</g>
	<g>
		<defs>
			<rect id="SVGID_33_" width="101.1" height="101.5"/>
		</defs>
		<clipPath id="SVGID_34_">
			<use xlink:href="#SVGID_33_"  overflow="visible"/>
		</clipPath>
		<path clip-path="url(#SVGID_34_)" fill="#576683" d="M89.5,34.5l0.3,1.1c0,0.1,0.1,0.1,0.2,0.1l3-0.5l0,0l-2.5,2.5
			c0,0-0.1,0.1-0.1,0.2l0.1,0.2c0,0,0.1,0.1,0.2,0.1l3.5,0.6l0,0l-2.8,1.3c-0.1,0-0.1,0.1-0.1,0.2l0.3,1.1c0,0.1,0.1,0.2,0.3,0.1
			l6-3c0.1,0,0.1-0.1,0.1-0.2l0-0.2c0,0-0.1-0.1-0.1-0.1l-4.7-0.9l0,0l3.4-3.4c0,0,0.1-0.1,0-0.2l0-0.2c0-0.1-0.1-0.1-0.2-0.1
			l-6.6,0.9C89.5,34.3,89.5,34.4,89.5,34.5"/>
	</g>
	<g>
		<defs>
			<rect id="SVGID_35_" width="101.1" height="101.5"/>
		</defs>
		<clipPath id="SVGID_36_">
			<use xlink:href="#SVGID_35_"  overflow="visible"/>
		</clipPath>
		<path clip-path="url(#SVGID_36_)" fill="#576683" d="M92.1,45l0.1,1.2c0,0.1,0.1,0.2,0.2,0.2l6.4-0.7c0.1,0,0.2-0.1,0.2-0.2
			l-0.1-1.2c0-0.1-0.1-0.2-0.2-0.2l-6.4,0.7C92.2,44.8,92.1,44.9,92.1,45"/>
	</g>
	<g>
		<defs>
			<rect id="SVGID_37_" width="101.1" height="101.5"/>
		</defs>
		<clipPath id="SVGID_38_">
			<use xlink:href="#SVGID_37_"  overflow="visible"/>
		</clipPath>
		<path clip-path="url(#SVGID_38_)" fill="#576683" d="M99.2,50.1l-6.5-0.2c-0.1,0-0.2,0.1-0.2,0.2l-0.1,3.7c0,0.1,0.1,0.2,0.2,0.2
			l1.1,0c0.1,0,0.2-0.1,0.2-0.2l0.1-2.3l5.2,0.2c0.1,0,0.2-0.1,0.2-0.2l0-1.2C99.3,50.2,99.3,50.1,99.2,50.1"/>
	</g>
	<g>
		<defs>
			<rect id="SVGID_39_" width="101.1" height="101.5"/>
		</defs>
		<clipPath id="SVGID_40_">
			<use xlink:href="#SVGID_39_"  overflow="visible"/>
		</clipPath>
		<path clip-path="url(#SVGID_40_)" fill="#576683" d="M98.6,57.9l-6.4-1.2c-0.1,0-0.2,0-0.2,0.1l-0.7,3.6c0,0.1,0.1,0.2,0.1,0.2
			l1,0.2c0.1,0,0.2,0,0.2-0.1l0.4-2.3l5.1,1c0.1,0,0.2-0.1,0.2-0.1l0.2-1.1C98.8,58,98.7,57.9,98.6,57.9"/>
	</g>
	<g>
		<defs>
			<rect id="SVGID_41_" width="101.1" height="101.5"/>
		</defs>
		<clipPath id="SVGID_42_">
			<use xlink:href="#SVGID_41_"  overflow="visible"/>
		</clipPath>
		<path clip-path="url(#SVGID_42_)" fill="#576683" d="M39.1,36c0.5,0,1.1-0.1,1.6-0.3c0.3-0.1,0.6-0.4,0.6-0.8s-0.2-0.7-0.6-0.8
			c-1.4-0.5-2.4-1.8-2.4-3.3s1-2.8,2.4-3.3c0.3-0.1,0.6-0.4,0.6-0.8S41,26.1,40.7,26c-0.6-0.2-1.1-0.3-1.6-0.3
			c-2.8,0-5.1,2.3-5.1,5.1C33.9,33.7,36.2,36,39.1,36 M37.9,27.5c-0.8,0.9-1.2,2.1-1.2,3.3c0,1.2,0.4,2.4,1.2,3.3
			c-1.4-0.5-2.3-1.8-2.3-3.3S36.6,28,37.9,27.5"/>
	</g>
	<g>
		<defs>
			<rect id="SVGID_43_" width="101.1" height="101.5"/>
		</defs>
		<clipPath id="SVGID_44_">
			<use xlink:href="#SVGID_43_"  overflow="visible"/>
		</clipPath>
		<polygon clip-path="url(#SVGID_44_)" fill="#576683" points="48,54.7 51,53 53.9,54.7 54.7,53.3 51,51.2 47.2,53.3 		"/>
	</g>
	<g>
		<defs>
			<rect id="SVGID_45_" width="101.1" height="101.5"/>
		</defs>
		<clipPath id="SVGID_46_">
			<use xlink:href="#SVGID_45_"  overflow="visible"/>
		</clipPath>
		<polygon clip-path="url(#SVGID_46_)" fill="#576683" points="50.2,32.2 50.8,33.3 51.4,32.2 52.4,31.6 51.4,31.1 50.8,30 
			50.2,31.1 49.2,31.6 		"/>
	</g>
	<g>
		<defs>
			<rect id="SVGID_47_" width="101.1" height="101.5"/>
		</defs>
		<clipPath id="SVGID_48_">
			<use xlink:href="#SVGID_47_"  overflow="visible"/>
		</clipPath>
		<polygon clip-path="url(#SVGID_48_)" fill="#576683" points="59.3,27.1 59.9,26 60.9,25.4 59.9,24.9 59.3,23.8 58.7,24.9 
			57.7,25.4 58.7,26 		"/>
	</g>
	<g>
		<defs>
			<rect id="SVGID_49_" width="101.1" height="101.5"/>
		</defs>
		<clipPath id="SVGID_50_">
			<use xlink:href="#SVGID_49_"  overflow="visible"/>
		</clipPath>
		<polygon clip-path="url(#SVGID_50_)" fill="#576683" points="61.4,35.2 61.9,36.2 62.5,35.2 63.6,34.6 62.5,34 61.9,33 61.4,34 
			60.3,34.6 		"/>
	</g>
	<g>
		<defs>
			<rect id="SVGID_51_" width="101.1" height="101.5"/>
		</defs>
		<clipPath id="SVGID_52_">
			<use xlink:href="#SVGID_51_"  overflow="visible"/>
		</clipPath>
		<polygon clip-path="url(#SVGID_52_)" fill="#576683" points="68.8,31.4 69.4,30.3 70.4,29.7 69.4,29.2 68.8,28.1 68.2,29.2 
			67.2,29.7 68.2,30.3 		"/>
	</g>
	<g>
		<defs>
			<rect id="SVGID_53_" width="101.1" height="101.5"/>
		</defs>
		<clipPath id="SVGID_54_">
			<use xlink:href="#SVGID_53_"  overflow="visible"/>
		</clipPath>
		<polygon clip-path="url(#SVGID_54_)" fill="#576683" points="48.1,24.5 48.7,23.5 49.7,22.9 48.7,22.3 48.1,21.3 47.5,22.3 
			46.4,22.9 47.5,23.5 		"/>
	</g>
</g>
</svg>
