<?xml version="1.0" encoding="utf-8"?>
<!-- Generator: Adobe Illustrator 19.2.0, SVG Export Plug-In . SVG Version: 6.00 Build 0)  -->
<svg version="1.1" id="Layer_1" xmlns="http://www.w3.org/2000/svg" xmlns:xlink="http://www.w3.org/1999/xlink" x="0px" y="0px"
	 viewBox="0 0 300 85" enable-background="new 0 0 300 85" xml:space="preserve">
<g>
	<path fill="#2B354A" d="M289.8,8.7c-4.3,0-7.5,3.5-7.5,8c0,4.6,3.3,8.1,7.5,8.1s7.5-3.5,7.5-8.1C297.2,12.2,294,8.7,289.8,8.7z
		 M292.5,22.3l-2.9-4.8h-1.7v4.8h-1.7v-11h4.1c2.5,0,3.7,1,3.7,3.2c0,2-1.2,2.8-2.8,3l3,4.9h-1.7V22.3z"/>
	<path fill="#2B354A" d="M292.4,14.3c0-1.5-1.2-1.7-2.3-1.7h-2.2v3.5h1.7C291.1,16.2,292.4,16.1,292.4,14.3z"/>
	<polygon fill="#2B354A" points="206.7,46.4 216,46.4 206.7,33.3 	"/>
	<polygon fill="#576683" points="116.2,1.9 59.6,82.8 73.7,82.8 129.7,1.9 	"/>
	<polygon fill="#576683" points="147.2,51.9 147.2,7.7 137.6,7.7 87.5,78 102.9,78 133.4,35.2 133.4,78 144.7,78 174.9,34.9 
		174.9,78 188.8,78 188.8,7.7 178.8,7.7 	"/>
	<path fill="#576683" d="M278.3,7.7h-15.8l-17.2,24.1l-16.7-24h-15.8L237.4,43l-4.2,5.9L204.4,7.7h-11.1V78h13.4V58.8h16.5l1.5,2
		L212.4,78h15.8l4.4-6.2l4.5,6.3l16.3-0.1l-12.5-17.9l4.2-5.9L261.7,78h15.8l-24.3-35L278.3,7.7z M206.7,46.4v-13l9.3,13H206.7z"/>
	<path fill="#576683" d="M294.1,14.4c0-2.1-1.2-3.2-3.7-3.2h-4.1v11.1h1.7v-4.8h1.7l2.9,4.8h1.8l-3-4.9
		C292.8,17.3,294.1,16.4,294.1,14.4z M289.6,16.2h-1.7v-3.5h2.2c1.1,0,2.3,0.2,2.3,1.7C292.4,16.1,291.1,16.2,289.6,16.2z"/>
	<path fill="#576683" d="M289.8,7.3c-5,0-9.2,4.1-9.2,9.4c0,5.4,4.2,9.5,9.2,9.5s9.1-4.1,9.1-9.5C298.9,11.4,294.7,7.3,289.8,7.3z
		 M289.8,24.9c-4.3,0-7.5-3.5-7.5-8.1c0-4.5,3.3-8,7.5-8s7.5,3.5,7.5,8C297.2,21.4,294,24.9,289.8,24.9z"/>
	<path fill="#576683" d="M69.2,65h-3.4V47.8H81l5.3-7.1v-5H65.7V20.4h19.7V7.8H52.2v68.6l-19-22.6c9.5-2.9,16.4-12.2,16.4-22.6
		c0-12.9-10.4-23.3-23.3-23.3H2.8v20.3V78h13.3V55.1L35.3,78h25.1L69.2,65z M26,40.6l-9.8,0.1V20.3H26c5.6,0,10.2,4.6,10.2,10.2
		C36.1,36.1,31.6,40.6,26,40.6z"/>
	<polygon fill="#576683" points="86,78 86,70 79.8,78 	"/>
</g>
</svg>
