<?xml version="1.0" encoding="utf-8"?>
<!-- Generator: Adobe Illustrator 19.2.1, SVG Export Plug-In . SVG Version: 6.00 Build 0)  -->
<svg version="1.1" id="Layer_1" xmlns="http://www.w3.org/2000/svg" xmlns:xlink="http://www.w3.org/1999/xlink" x="0px" y="0px"
	 viewBox="0 0 654.9 206.6" style="enable-background:new 0 0 654.9 206.6;" xml:space="preserve">
<style type="text/css">
	.st0{fill:#576683;}
	.st1{fill:#38455A;}
</style>
<g>
	<path class="st0" d="M617.2,206.6c10.1,0,19.5-3.9,26.6-11s11-16.6,11-26.6V37.7c0-10.1-3.9-19.5-11-26.6S627.3,0,617.2,0H37.7
		C16.9,0,0,16.9,0,37.7V169c0,10.1,3.9,19.5,11,26.6s16.6,11,26.6,11H617.2z"/>
	<path class="st1" d="M617.2,201.8c8.8,0,17-3.4,23.2-9.6s9.6-14.4,9.6-23.2V37.7c0-8.8-3.4-17-9.6-23.2c-6.2-6.2-14.4-9.6-23.2-9.6
		H37.7C19.6,4.9,4.9,19.6,4.9,37.7V169c0,8.8,3.4,17,9.6,23.2s14.4,9.6,23.2,9.6H617.2L617.2,201.8z"/>
	<path class="st0" d="M617.2,196.9c15.4,0,28-12.5,28-28V37.7c0-15.4-12.5-28-28-28H37.7c-15.4,0-28,12.5-28,28V169
		c0,15.4,12.5,28,28,28h579.5V196.9z"/>
	<path class="st1" d="M349.7,38.8c2.9,0,2.6,3.9,2.6,3.9v73.4c0,7.7,0.2,11.1,4.9,14.2c0.9,2.2-0.4,3.3-2.7,3.3h-21.8
		c-1.5,0-3-1.7-1.9-3.3s6.1-2.5,6.1-8.3V50.5c-0.4-3.9-1.6-5.6-4.6-6.8c-1.2-0.8-1.9-1.4-2.5-2.7c0-0.8,0.2-2.1,1.4-2.1L349.7,38.8
		L349.7,38.8z"/>
	<path class="st1" d="M63.2,133.6c-1.8,0-1.7-0.7-1.7-0.7c-3.5-5.7,6.4-5.2,7.4-10.5c0,0-0.1-69.2,0-69.5c-9.5-2.1-20,3.7-26.4,11.1
		l-2.7,0.4c-1.6-0.6-1.6-2.1-1.2-3.5c3.1-7.4,6.2-14.9,10.1-21.7c3.1-1.2,4.7,2.5,7,3.1c0.1,0,47,0,47.1,0c2.3-0.6,3.9-4.3,7-3.1
		c3.9,6.8,7,14.4,10.1,21.7c0.4,1.4,0.4,2.9-1.2,3.5L116,64c-6.4-7.4-16.9-13.2-26.4-11.1c0.1,0.3,0,69.5,0,69.5
		c1,5.2,10.9,4.8,7.4,10.5c0,0,0,0.6-1.7,0.7C95.2,133.6,63.1,133.6,63.2,133.6z"/>
	<path class="st1" d="M112.2,133.6c-0.9,0-2-0.4-2.4-1.8c-0.2-1.2-0.1-1.6,0.9-2.3c3.1-1.6,5.5-3.9,5.9-7.6c0,0,0.2-34,0.1-34.2
		c-1.4-3.7-6.2-5-8.2-7.8c-1-2.3,0.4-5.1,3.2-5.4c0.1,0,12.3-0.1,12.4-0.1c3.3,0,4.3,9.2,7.7,7c2.7-3.1,5.4-8.2,8.9-7.8
		c1.8,0.2,4.5,5.6,6.8,9.1c1,2.7,3.7,5,2.3,8.5c-0.8,1.2-2.1,1.2-3.7,0.6c-2.7-1.9-4.7-7.4-9.1-6c-2.5,1-4,1.9-5.2,4.7
		c0.1,0.4,0.1,31.3,0,31.3c0.4,3.7,2.9,6,6,7.6c1,0.8,1.1,1.2,0.9,2.3c-0.4,1.5-1.4,1.8-2.4,1.8L112.2,133.6L112.2,133.6z"/>
	<path class="st1" d="M607.5,94.9c-0.8,1.6-2.7,2-4.8,2c0.1,0-28.8,0-28.8,0c-3.3,1.7-2.1,5-1.6,10.5c0.7,7.3,6,16.1,14.6,20
		c4.5,0.6,7.9,1.1,12.2-2.5c6.4-5.3,7.4-11.8,9.7-11.8c1.4,0,0.2,6.4,0.2,9.5c-0.8,2.7,0,6.8-3.3,7.6c-2.7-0.4-8.1,2.8-10.3,3.7
		s-4.4,1.8-9.3,2.3c-8.3,0.9-17.5-4.4-22.1-12.6c-2.7-4.8-4.4-11.3-4.2-19.9s5.8-20.1,12.2-24.8c6.4-4.7,14.1-5.4,22.9-2.5
		C604.5,79.3,609.3,91.6,607.5,94.9z M587.3,79.7c-2.9-1.4-4.9-1.2-7.8-0.2c-2.9,1.9-5,4.7-5.4,8.3c0.2,0.8-0.4,2.7,1.4,2.7
		c-0.1,0.1,15,0,15.1,0c2.2,0,3.1-1.4,2.3-3.5C592.2,84.2,591,82.2,587.3,79.7z"/>
	<path class="st1" d="M483,122c0,3.4,3.4,5,5.4,7c1.8,1.8,1.9,4.6-0.5,4.6h-16.6c-1.6-0.2-2.7-3.8-4.7-3c-7.2,5.6-13.8,6.4-23.7,2.1
		c-9.9-4.2-13.5-23.6-10.5-34.6c3.1-10.9,14-23,26.8-23.5c4.9-0.2,7.8,3.5,9.1-1.4v-8.9c-0.3-3.1-1.3-5.6-4.5-7
		c-1.3,0-3.5-1.8-3.5-3.1c0-1.9,1.6-2.7,3.8-2.7c0.1,0,22.6,0,22.7,0c2.1,0,2.5,2.9-0.3,3.9s-3.6,5.7-3.5,9.7L483,122z M451.4,124.2
		c1.9,2.9,5.8,4.7,9.1,3.9c4.3-0.6,8.3-5.6,8.3-9.1l0.1-33.6c0-4.1-6.3-9.8-15.1-4.9c-5.3,3-8.2,15.5-8,23.3
		C446,110,448.1,119.3,451.4,124.2z"/>
	<path class="st1" d="M417.4,88.5c6.8,9.7,5.2,25.8-0.8,34.6c-5.8,8.7-15.7,13.8-25.8,13c-9.9-0.8-18.4-7.4-23.1-16.1
		c-4.5-8.7-4.5-21.6,0-29.7c5.8-11.5,17.5-17.1,29.5-15.5C405.6,75.3,413,81.3,417.4,88.5z M384,86.2c-5,8.7-5.1,30.3-0.2,37.9
		c5,7.7,13.9,7.8,18.3,1.4c5.7-8.4,5.8-34.7-1.6-41.5C394.8,78.5,387.4,80.4,384,86.2z"/>
	<path class="st1" d="M200,83.2c5,13.2,8.5,27.6,13.2,40.4c1,2.4,5.4,3.6,6.8,5c1.5,1.5,1.3,5-2.1,5c-1.5,0-11.5,0-11.8,0
		c-5.6-0.1-6.2-0.5-8.7-4.2c-4.5,1.7-8.5,5.6-13.8,6.8c-5.6,1.6-13.6,1.2-18.8-2.7c-5.8-4.3-9.5-11.1-7.6-19
		c2.1-10.7,12-14.9,19.8-20c3.1-2.1,9.1-2.9,8.9-6.2c-0.1-3.3-1.9-4.1-3.7-5.4c-9.1-3.3-14,6.2-20.2,9.5c-0.9,0.8-2.4,0.5-2.3-0.4
		c0.1-1.7,6.6-16.3,7.8-16.3c2.9,0.1,3.3,1.5,4.9,1.5c5.7,0,11.5-5.2,17.8-2.3C194.3,75.9,197.8,79.5,200,83.2z M185.4,97
		c-6.6,3.7-15.3,9.7-14,19.2c0.4,5,3.5,8.9,7.6,11.6c3.5,1.6,8.2,1.7,11.5-0.2c10.5-6.4,2.4-20.6,0.2-25.6
		C189.7,99.8,188.6,95.6,185.4,97z"/>
	<path class="st1" d="M272.1,79c-2.7,2.1-7.3,2.4-9.1,6.3l-19.4,48.1c-1.2,2.7-5.1,2.7-5.9,0.4s-17.5-49.3-17.5-49.3
		c-1.4-3.4-4.1-3.2-5.9-5.3c-1.5-1.6-2.1-4.5,0.8-4.5c1.3-0.1,22-0.1,22.8,0c0.9,0.1,2.9-0.1,3.5,1.7c0.5,2.9-2.4,3-4.1,5.8
		c-1,1.7-0.6,3.1-0.4,4.7c0.7,2.2,7.6,20.2,8.2,21.6c0.6,1.4,1.6,1.4,2.2,0c0-0.1,6.7-17.6,7.2-19.3s1.2-5.6-1-7.2
		c-1.9-1.9-6.8-2.9-5.6-6.2c0.4-0.6,0.9-1.1,2.6-1.1c0.8,0.1,19.8,0.1,19.8,0C273.3,74.6,273.9,77.5,272.1,79z"/>
	<path class="st1" d="M553.5,76.2c0.9,1.4,1.2,3.5,0.2,4.9c-2.9,2.9-8,0-11.3,1.2c-1,0-1.9,1.2-1,2.1c6.2,7.6,8.5,19,4.9,28.5
		c-2.9,8.5-10.9,15.3-19.4,17.3c-4.3,0.4-8.2,1.2-12.8-0.6c-1.6-1-2.7,0.8-3.3,1.4c-1,1.9,0.6,3.7,2.1,4.1
		c11.8,1.9,24.7,1.9,34.9,8.9c3.7,3.1,4.3,8.4,3.3,13.4c-5,12.4-20.4,12.4-32.6,12.2c-8.5-1-20.4-1.7-24.3-11.5
		c-0.2-4.9,2.5-8.2,5.2-11.1c-1.4-3.1-3.5-4.7-4.3-8.2c0.6-5.4,3.9-9.1,8.7-11.6c-0.2-0.1,1.7-1.6,0.6-2.5c-8.7-8.7-12-22.3-7.4-34
		c4.5-9.5,13.6-17.9,25.5-15.8c7,1.2,11.3,1.9,20.8-0.5C545.9,73.9,550.8,73.7,553.5,76.2z M521.1,81.3
		c-7.8,1.3-10.6,11.3-11.1,18.8c-0.5,7.6,1.1,20.6,10.7,24.7c2.7,1.1,7.9-3.1,9.1-4.9c5.5-7.8,5.9-21.6,1.2-30.7
		C528.8,84.9,525.3,80.6,521.1,81.3z M510,148.7c-1.7,1.2-2.7,1.6-3.5,3.5c-1,2.1-0.4,5,1,6.6c6.4,5,14.8,4.1,21.7,4.1
		c3.7-1,8.3-1.2,9.3-6c0-2.5-2.9-4.1-4.9-4.9C525.6,150.2,518.8,149.6,510,148.7z"/>
	<path class="st1" d="M321.4,94.9c-0.9,1.6-2.7,2-4.8,2c0.1,0-28.8,0-28.8,0c-3.3,1.7-2.1,5-1.6,10.5c0.7,7.3,6,16.1,14.6,20
		c4.5,0.6,7.9,1.1,12.2-2.5c6.4-5.3,7.4-11.8,9.7-11.8c1.4,0,0.2,6.4,0.2,9.5c-0.8,2.7,0,6.8-3.3,7.6c-2.7-0.4-8.1,2.8-10.3,3.7
		c-2.2,0.9-4.4,1.8-9.3,2.3c-8.3,0.9-17.5-4.4-22.1-12.6c-2.7-4.8-4.4-11.3-4.2-19.9s5.8-20.1,12.2-24.8s14.1-5.4,22.9-2.5
		C318.3,79.3,323.1,91.6,321.4,94.9z M301.2,79.7c-2.9-1.4-4.9-1.2-7.8-0.2c-2.9,1.9-5,4.7-5.4,8.3c0.2,0.8-0.4,2.7,1.4,2.7
		c-0.1,0.1,15,0,15.1,0c2.2,0,3.1-1.4,2.3-3.5C306.1,84.2,304.9,82.2,301.2,79.7z"/>
	<rect x="59" y="155.9" class="st1" width="425.2" height="5.3"/>
	<rect x="559.9" y="155.9" class="st1" width="49.5" height="5.3"/>
	<path class="st1" d="M626.9,181.7l-1-2c-0.4-0.9-1.2-1.9-1.7-2.4s-0.9-0.6-2-0.6h-0.5v5.1h-2.5v-12.3h6.1c2.6,0,3.9,1.5,3.9,3.4
		s-1.2,3.2-3.3,3.4v0.1c1.1,0.4,1.4,0.7,2.6,2.9l1.4,2.5L626.9,181.7L626.9,181.7z M624.3,174.7c1.7,0,2.3-0.8,2.3-1.7
		c0-1.1-0.9-1.7-2.5-1.7h-2.3v3.4H624.3z M615.2,175.5c0,5.2,4.2,9.4,9.3,9.4s9.4-4.2,9.4-9.4s-4.2-9.3-9.4-9.3
		S615.2,170.3,615.2,175.5z M636.1,175.5c0,6.4-5.2,11.6-11.6,11.6c-6.4,0-11.6-5.2-11.6-11.6c0-6.4,5.2-11.6,11.6-11.6
		C630.9,163.9,636.1,169.1,636.1,175.5z"/>
</g>
</svg>
