<?xml version="1.0" encoding="utf-8"?>
<!-- Generator: Adobe Illustrator 19.2.1, SVG Export Plug-In . SVG Version: 6.00 Build 0)  -->
<svg version="1.1" id="Layer_1" xmlns="http://www.w3.org/2000/svg" xmlns:xlink="http://www.w3.org/1999/xlink" x="0px" y="0px"
	 viewBox="0 0 446.2 160.3" style="enable-background:new 0 0 446.2 160.3;" xml:space="preserve">
<style type="text/css">
	.st0{fill:#586684;}
</style>
<g>
	<g>
		<path class="st0" d="M218.5,14.6c1.8-0.2,3.4-0.4,5.3-0.5c5.3-0.1,7.1-0.1,12.4-0.2c5-0.1,6.6-0.1,11.7-0.2
			c3.2-0.1,6.3-0.4,9.3-0.9c0.9-0.2,1.4-0.5,1.7-0.9c0.4-0.6,0.4-1.6,0-3.1c-0.5-2.1-1.8-3.4-4-4c-1.1-0.3-2.3-0.6-3.4-0.7
			c-5.3-0.7-7.8-1-14-1c-6.2,0-8,0.4-13,0.7c-18.7,1.3-34.8,4.1-49.5,7.7c-3.1,0.8-6.4,1.5-9.3,2.5c-0.5,0.2-0.9,0.6-1.1,1.1
			c-0.4,1-0.1,2.4,0.6,3.7c1.2,2.3,3.2,3.7,5.4,3.7c0.5,0,1-0.1,1.5-0.1c0,0,0.1,0,0.1,0c2.2-0.3,4.5-0.6,6.7-1
			c5.1-0.8,10.3-1.8,15.6-2.8c2.8-0.5,5.7-0.8,8.5-1.2c1.3-0.2,2.6-0.3,3.9-0.5c0.2,0,0.4-0.1,0.6-0.1c0,0.2,0.1,0.4,0.1,0.7
			c0,0.2,0.1,0.3,0.1,0.4c0,0.2,0,0.4,0,0.7c0,4-14.7,34-19.5,55.8c-0.1,0.4-0.2,0.8-0.3,1.3c-1.5,7-3,14.1-3,21.8
			c0,3.4,1.4,6.3,4,8.7c1.3,1.1,2.5,1.8,3.5,1.9c1.6,0.2,2.2-1.1,2.4-2.2c0.1-0.4,0.1-0.8,0.1-1.2c0-0.2,0-0.5,0.1-0.7
			c0.2-1.9,0.3-3.9,0.5-5.9c0.3-4.3,0.7-8.7,1.4-13c1.7-9.9,6.4-25.6,10.5-40.5c4.2-15.1,8.5-26,7.7-28.5c-0.1-0.3-0.2-0.6-0.3-0.8
			c0.3,0,0.5-0.1,0.8-0.1C216.6,14.9,217.6,14.8,218.5,14.6z"/>
		<path class="st0" d="M275.6,24.7c-0.1,0-0.2,0-0.2,0c-1,0.1-2,0.5-2.7,1c-2.8,2.3-4.4,5.5-4.9,9.3c-0.1,0.9,0,2,0.3,3
			c0.6,2.4,2.6,4,4.7,3.8c0.3,0,0.6-0.1,0.9-0.2c1.6-0.5,3.4-2.1,4.7-4.4c1.7-2.9,2.4-6.3,1.8-8.7C279.5,26,277.9,24.6,275.6,24.7z"
			/>
		<path class="st0" d="M339.6,24.4c-0.2,0-0.3,0-0.5,0c-0.9,0.1-1.9,0.5-2.5,1c-2.7,2.1-4.3,4.9-4.9,8.2c-0.1,0.8-0.1,1.8,0.2,2.7
			c0.6,2.2,2.6,3.6,4.7,3.5c0.3,0,0.6-0.1,1-0.2c3.9-1.2,7.5-7.7,6.5-11.7C343.5,25.7,341.8,24.3,339.6,24.4z"/>
		<path class="st0" d="M384.3,155.9c2.8,2.8,6.2,4.4,9.6,4.4c0,0,0,0,0,0c2,0,4-0.6,5.8-1.6c6-3.6,10.2-9.6,12.6-17.8
			c3-10.3,5.5-20.8,7.8-30.6c0.2-0.8,0.4-1.6,0.6-2.4c0.7-2.8,1.8-4.5,3.9-5.8c10.4-6.2,16.9-12.4,20.4-20.8c0.7-1.6,1-3.6,1.3-5.4
			c0.1-0.6,0.1-2.3-1.7-3.4c-1.4-0.9-2.3-0.7-2.6,0.4c-2.1,6.6-6.3,11.1-9.7,14.5c-1.3,1.3-2.9,2.4-4.4,3.5c-0.7,0.5-1.4,1-2,1.5
			c-0.1,0.1-0.3,0.2-0.4,0.3c-0.4-0.4-0.8-0.8-1.3-1.2c0-0.1,0-0.2,0.1-0.3c0.1-0.5,0.2-1.1,0.2-1.6c0.2-1.2,0.3-2.4,0.7-3.5
			c1.4-4.5,2.9-9.1,4.3-13.4c1.2-3.7,2.4-7.4,3.6-11.1c0.8-2.5,1.5-4.8,2-7.2c0.4-2.2-0.6-4.3-2.6-5.8c-1.6-1.2-3.4-1.1-4.6,0.3
			c-1,1.1-1.9,2.4-2.8,4c-4.7,8.7-9.5,17.2-16.6,24.3c-2.5,2.5-5.4,4.7-7.7,6.4c-0.4,0.3-1.1,0.5-1.9,0.4c-0.4,0-1.4-0.1-2.1-0.7
			c-1-0.8-1.6-2.9-1.4-4c0-0.2,0.1-0.4,0.1-0.6c0.6-2.8,1.2-5.7,2.6-8c1.7-3,3.7-5.8,5.6-8.6c1.3-1.9,2.6-3.7,3.9-5.6
			c1-1.5,1.8-3.3,2.2-5.1c0.3-1.1-0.5-2.5-2-3.7c-1.3-0.9-2.4-1.1-3.8-0.6c-0.5,0.2-1,0.5-1.5,1c-4.1,3.6-6.9,8.5-9.5,13.4
			c-1.1,2-2.2,4.1-3.5,6.2c-1.6,2.6-3,5.6-4.3,8.4c-0.9,1.9-1.8,3.9-2.7,5.8c-0.7,1.5-2,2.6-3.2,3.6c-1.4,1.1-3.2,0.8-4.8-0.8
			c-2.1-2.3-5.4-13.5-4.3-16.1c0.1-0.2,0.2-0.5,0.3-0.7c0.6-1.3,1.1-2.7,2-3.8c1.9-2.6,3.8-5.2,5.7-7.7c1.6-2.1,3.3-4.2,4.9-6.3
			c1-1.3,2.1-2.8,2.8-4.5c0.5-1.2,0-2.6-1.3-3.5c-1-0.7-2-0.7-3,0.2c-1.8,1.5-3.6,3.2-5.1,5.1c-2,2.6-4,5.3-5.8,8
			c-0.8,1.1-1.6,2.2-2.3,3.3c-0.3,0.4-0.5,0.7-0.8,1.1c-0.1-0.4-0.2-0.8-0.3-1.2c-0.3-1.3-0.7-2.7-1-4c-0.7-3.1-1.5-6.3-2.4-9.3
			c-0.6-2.2-2.3-3.7-4.3-3.6c-0.6,0-1.1,0.2-1.6,0.5c-1.3,0.7-3.1,1.8-4.2,3.5c-0.7,1.1-1.4,2.3-2.1,3.4c-2.7,4.3-5.5,8.9-7.5,13.8
			c-0.3,0.9-0.9,2.5-1.6,4.4c-1.8,5.2-4.2,12.4-5.8,14.8c-1.1,1.7-2.7,3.4-4.8,5.2c-0.5,0.4-1.3,0.7-2.1,0.8c-0.7,0.1-1.3,0-1.8-0.3
			c-1-0.6-1.8-2.4-1.8-3.6c0-2.3,0.1-4.9,0.8-7.1c1.1-3.2,2.4-6.5,3.6-9.5c0.8-2.1,1.7-4.2,2.5-6.3c0.6-1.5,1.2-3.4,1.4-5.4
			c0-0.6-0.7-1.9-1.5-2.5c-0.4-0.3-1.1-0.4-1.8-0.3c-0.4,0-0.6,0.1-0.7,0.2c-1.2,0.7-2.2,1.7-2.9,2.9c-4.5,7.4-7.4,15.4-8.6,23.5
			c-0.5,3.5-0.5,7.2,0.1,10.6c0.8,5.1,4.8,8.5,9.3,8c1.2-0.1,2.5-0.5,3.6-1.2c5.3-3.2,8.3-8.4,11-13.4c2.3-4.4,3.8-9,5.3-13.9
			c0.1-0.3,0.2-0.6,0.3-1c1.2-3.9,3.3-7.3,5.3-10.6c0.9-1.4,1.7-2.8,2.5-4.3c0.1-0.1,0.1-0.2,0.2-0.3c0.1,0,0.3,0,0.4,0
			c0.1,0,0.2,0,0.4,0c0,0,0.1,0,0.2,0c0.1,0,0.2,0,0.4,0.1c0.3,1.2,0.6,2.3,0.9,3.5c0.9,3.8,1.9,7.6,2.8,11.5
			c0.1,0.5,0.1,1.3-0.2,1.9c-0.4,0.6-0.7,1.2-1.1,1.9c-1.3,2.2-2.6,4.5-4.2,6.7c-1.9,2.8-4,5.5-6,8.2c-1.1,1.5-2.3,3-3.4,4.6
			c-1.5,2.1-1.4,4.5,0.4,6.7c1.3,1.6,2.4,2,3.5,1c1.8-1.6,3.1-3.2,4.1-4.8c1.3-2.2,2.5-4.5,3.6-6.7c0.5-1,1.1-2.1,1.6-3.1
			c0.6-1.2,1.3-2.4,2-3.7c0.6-1.1,1.2-2.1,1.8-3.2c0.1,0.4,0.3,0.9,0.4,1.3c0.1,0.4,0.2,0.8,0.3,1.1c0.2,0.6,0.3,1,0.4,1.3
			c0.4,1,0.8,2,1.1,3c0.9,2.5,1.8,5,3,7.5c1.6,3.3,4.2,4.8,7.6,4.6c2.2-0.1,4.1-1.1,5.9-3.3c0.9-1,1.6-2.2,2.4-3.3
			c0.4-0.5,0.8-1.1,1.2-1.7c0.2-0.3,0.4-0.5,0.6-0.8c0.1,0.3,0.3,0.6,0.4,0.9c2.8,5.4,6.6,7.5,11.1,6c2.2-0.7,4-1.7,5.3-3
			c2.5-2.3,4.9-4.9,7.6-8.2c1.6-1.9,3.1-4,4.5-6c0.6-0.9,1.3-1.8,1.9-2.7c0.3-0.4,0.6-0.8,0.9-1.2c0.1,0.5,0.1,1.1,0.2,1.6
			c0.1,0.8-0.1,1.5-0.2,2c-0.4,1.5-0.9,3.1-1.3,4.6c-1,3.4-2,6.9-2.5,10.7c-0.6,4.9-2.9,8.1-7.4,10.5c-7.1,3.8-16.1,9.7-22.8,18.8
			c-3.5,4.8-7.1,11-6.4,19.9C378.7,147.6,380.6,152.2,384.3,155.9z M388.8,131c4.5-8.5,11.2-15.3,20.4-20.5c0.2-0.1,0.4-0.1,0.6-0.1
			c0.1,0,0.2,0,0.4,0c0.3,0,0.6,0,0.8,0c-0.1,0.3-0.1,0.6-0.2,0.9c-0.8,3-1.4,6.2-1.9,9.2c-1.3,6.7-2.6,13.8-5.5,19.9
			c-1.3,2.7-3,5.4-5.1,7.9c-1.1,1.3-3,1.8-4.5,1.9c-0.2,0-0.5,0-0.7,0c-3.2,0-5.5-2.4-6.2-6.4C386,139.4,386.6,135,388.8,131z"/>
		<path class="st0" d="M272.6,135.9c1.4-7.6,2.9-15.6,4.4-23.6c0.6-3.3,1.4-6.6,2.2-9.9c0.3-1.4,0.7-2.8,1-4.2
			c0.1-0.2,0.1-0.4,0.2-0.7c0.2,0.1,0.4,0.1,0.6,0.2c1,0.3,1.9,0.5,2.8,0.8c1.8,0.5,3.4,1,5,1.1c1,0.1,1.9,0.1,2.8,0c0,0,0,0,0,0
			c3.5-0.4,6.6-2,9.7-4.8c6.5-6,10.9-14.1,13.9-25.2c1.1-4.1,2.3-9.6,0.9-15.7c-1.5-6.7-5.5-9.5-11.9-8.5c-0.5,0.1-1.2,0.2-1.6,0.5
			c-1.8,1-3.6,2-5.5,3.1c-1.1,0.7-2.3,1.3-3.4,2c0.2-0.5,0.3-0.9,0.5-1.4c0.3-0.9,0.6-1.7,0.9-2.5c0.7-1.9,1.4-3.8,1.8-5.7
			c0.3-1.3,0.6-3.2,0.1-5c-0.5-1.8-2-2.7-3.2-2.6c-0.5,0-1,0.2-1.4,0.6c-1,0.9-1.7,2-2.1,3.2c-1.8,5.4-3.6,11-5.4,16.3
			c-1.5,4.7-3,9.3-4.6,13.9c-0.3,1-0.7,2.1-1,3.1c-1.3,4-2.7,8.1-4.5,11.9c-1.3,2.7-3.5,4.9-5.5,7.1c-0.4,0.4-0.8,0.9-1.2,1.3
			c-0.5,0.5-1.4,0.7-1.8,0.7c-0.8,0.1-1.5-0.1-1.9-0.3c-1-0.6-1.8-2.3-1.8-3.4c0-2.2,0-4.9,0.8-7.1c1.2-3.5,2.6-7,3.9-10.5
			c0.9-2.3,1.8-4.6,2.6-6.9c0.7-1.8,1-3.4,1-4.8c0-0.8-0.3-1.5-0.9-2.1c-0.9-0.8-2.1-1.1-3-0.6c-0.9,0.5-1.7,1.3-2.4,2.2
			c-0.1,0.1-0.2,0.2-0.2,0.3c-3.6,4-7.6,6.7-12,8.2c-0.3,0.1-0.7,0.2-1.1,0.2c-1,0.1-2.4-0.1-3.4-0.9c-1.4-1.1-1.6-2.8-0.4-4.9
			c1.2-2.2,2.7-4.4,4.4-6.9c0.6-0.8,1.2-1.6,1.8-2.3c0.8-0.9,1.5-1.8,2.1-2.7c0.3-0.5,0.4-1.7,0.1-2.4c-0.9-1.9-2.3-3-3.6-2.9
			c-0.6,0-1.2,0.3-1.7,0.8c-4.6,4.1-9.4,8.3-13.6,12.8c-2.7,2.8-5.1,5.8-7.6,9c-1.1,1.4-2.3,2.8-3.5,4.2c-0.5,0.6-1,1.2-1.5,1.8
			c0.2-1,0.4-2.1,0.7-3.1c0.1-0.4,0.1-0.7,0.2-1c0.7-4.2,2.7-7.7,4.6-11.1c0.4-0.7,0.8-1.5,1.2-2.3c0.6-1.2,1.4-2.8,1.8-4.5
			c0.2-1,0-2.1-0.6-3c-0.7-1-1.9-1.5-3.1-1.3c-1.4,0.2-2.7,1-3.4,1.9c-1.8,2.7-3.9,6-5.4,9.6c-5,12.1-6.9,25.5-8.3,36.7
			c-0.3,2.3-0.3,4.6,0,6.8c0.2,1.9,1.7,3.3,3.4,3.3c0.4,0,0.7-0.1,1.1-0.2c0.8-0.3,1.6-1,2.3-2.1c0.5-0.8,0.8-1.8,1-2.8
			c0-0.1,0-0.2,0.1-0.3c2.5-9.9,7-19.4,13.4-28.3c0.8-1.1,1.7-2.3,2.7-3.4c0.6-0.7,1.3-1.4,2-2.1c0.3-0.3,0.6-0.6,0.9-0.9
			c0.3-0.3,0.5-0.6,0.8-0.8c0.1,0.4,0.1,0.7,0.2,1.1c0.2,0.9,0,1.5-0.1,2.1c0,0,0,0.1,0,0.1c-0.8,3.7,1.7,7.4,5.7,8.3
			c1.3,0.3,2.6,0.4,3.8,0.2c1.8-0.3,3.4-0.7,5.2-1.1c0.7-0.2,1.5-0.4,2.3-0.5c0.3-0.1,0.6-0.1,0.9-0.2c-0.2,0.7-0.4,1.5-0.6,2.2
			c-0.2,0.9-0.5,1.7-0.7,2.6c-1.1,4.6-2,9.6-0.9,15.1c1,5.1,5,8.5,9.4,8.1c1.2-0.1,2.4-0.5,3.6-1.1c0.6-0.4,1.2-0.8,1.9-1.2
			c0.4-0.2,0.7-0.5,1.2-0.8c0.4-0.2,0.8-0.5,1.2-0.8c-0.1,0.4-0.2,0.9-0.3,1.3c-0.4,1.7-0.8,3.3-1.1,4.9c-0.8,3.4-1.6,6.7-2.2,9.9
			c-1.9,10.2-3.7,20.4-5.5,29.9c-0.2,1-0.4,2-0.5,2.9c-0.4,2.1,0.2,3.9,1.8,5.4c0.9,0.9,2,1.5,2.8,1.4c0.6,0,1.2-0.3,1.6-0.9
			c0.6-0.9,0.8-2,1-2.8C270.8,145.3,271.7,140.6,272.6,135.9z M282.8,87.7c0.5-1.8,1.1-3.6,1.6-5.5c0.9-3.2,1.9-6.6,2.9-9.9
			c2.4-7.5,5.9-13.2,10.6-17.3c1.3-1.1,2.6-1.9,4-2.3c0.4-0.1,0.8-0.2,1.1-0.2c2.5-0.3,4.5,1.4,4.8,4.1c0.3,2.3,0.3,4.7-0.1,6.8
			c-1.5,9.2-5,17.2-10.5,23.8c-2.5,3-5.3,4.6-8.6,5c-0.2,0-0.4,0-0.6,0.1c-0.2,0-0.3,0-0.5,0c-0.4,0-0.9,0-1.4,0
			c-1.6-0.2-2.7-0.7-3.2-1.5C282.4,89.9,282.4,88.9,282.8,87.7z"/>
	</g>
</g>
<g id="_x32__16_">
	<g>
		<g>
			<path class="st0" d="M120.8,11.4h-4.1V0H87.7v11.4H10.9C4.9,11.4,0,16.3,0,22.3v67.7c0,6,4.9,10.9,10.9,10.9h47.4
				c-1.6-2.1-3.3-4.4-5-6.7c-0.1-0.2-0.3-0.4-0.4-0.5h-42c-2,0-3.6-1.6-3.6-3.6V22.3c0-2,1.6-3.6,3.6-3.6H95V7.3h14.4v11.4h11.4
				c2,0,3.6,1.6,3.6,3.6v67.7c0,2-1.6,3.6-3.6,3.6H78.6c-1.8,2.6-3.6,5-5.3,7.3h47.5c6,0,10.9-4.9,10.9-10.9V22.3
				C131.7,16.3,126.8,11.4,120.8,11.4z"/>
		</g>
	</g>
	<g>
		<g>
			<path class="st0" d="M65.8,115.4c-4.1,0-6.3-2.5-7.8-4.1l-0.3-0.3c-1.9-2-8.5-9.4-14.5-18.6c-8.1-12.3-12.2-23.2-12.2-32.3
				c0-19.2,15.6-34.8,34.8-34.8s34.8,15.6,34.8,34.8c0,9.1-4.1,20-12.2,32.3c-6.1,9.2-12.7,16.6-14.5,18.6l-0.3,0.3
				C72.2,113,69.9,115.4,65.8,115.4z M65.8,33.4c-14.7,0-26.7,12-26.7,26.7c0,7.4,3.8,17.1,10.9,27.9c5.7,8.7,11.9,15.7,13.7,17.6
				l0.3,0.3c1.3,1.4,1.4,1.5,1.9,1.5s0.6-0.1,1.9-1.5l0.3-0.3c1.8-1.9,8-8.8,13.7-17.6c7.1-10.8,10.9-20.5,10.9-27.9
				C92.6,45.4,80.6,33.4,65.8,33.4z"/>
		</g>
	</g>
	<g>
		<g>
			<path class="st0" d="M65.8,79.6c-10.7,0-19.3-8.7-19.3-19.3S55.2,41,65.8,41s19.3,8.7,19.3,19.3S76.5,79.6,65.8,79.6z M65.8,48.4
				c-6.6,0-12,5.4-12,12s5.4,12,12,12s12-5.4,12-12S72.4,48.4,65.8,48.4z"/>
		</g>
	</g>
</g>
<g>
</g>
<g>
</g>
<g>
</g>
<g>
</g>
<g>
</g>
<g>
</g>
</svg>
