<?xml version="1.0" encoding="utf-8"?>
<!-- Generator: Adobe Illustrator 19.2.0, SVG Export Plug-In . SVG Version: 6.00 Build 0)  -->
<svg version="1.1"
	 id="svg2" xmlns:cc="http://creativecommons.org/ns#" xmlns:dc="http://purl.org/dc/elements/1.1/" xmlns:rdf="http://www.w3.org/1999/02/22-rdf-syntax-ns#" xmlns:svg="http://www.w3.org/2000/svg"
	 xmlns="http://www.w3.org/2000/svg" xmlns:xlink="http://www.w3.org/1999/xlink" x="0px" y="0px" viewBox="0 0 200 75.8"
	 enable-background="new 0 0 200 75.8" xml:space="preserve">
<g id="g10" transform="matrix(1.25,0,0,-1.25,-74.19125,149.0417)">
	<g id="g4163" transform="matrix(0.6384875,0,0,0.6384875,24.348951,24.07854)">
		<g id="g12" transform="translate(143.448,67.609)">
			<path id="path14" fill="#586684" d="M0,0l10.9,67.7h17.5L17.5,0H0"/>
		</g>
		<g id="g16" transform="translate(224.353,133.66)">
			<path id="path18" fill="#586684" d="M0,0c-3.5,1.4-8.9,2.8-15.7,2.8c-17.3,0-29.5-9.2-29.6-22.3c-0.1-9.7,8.7-15.2,15.3-18.4
				c6.8-3.3,9.1-5.4,9.1-8.4c0-4.5-5.4-6.6-10.5-6.6c-7,0-10.7,1-16.5,3.6l-2.2,1.1l-2.4-15.2c4.1-1.9,11.6-3.5,19.5-3.6
				c18.4,0,30.3,9.1,30.4,23.1c0.1,7.7-4.6,13.6-14.7,18.4c-6.1,3.1-9.9,5.2-9.8,8.4c0,2.8,3.2,5.8,10,5.8c5.7,0.1,9.9-1.2,13.1-2.6
				l1.6-0.8L0,0"/>
		</g>
		<g id="g20" transform="translate(247.634,91.616)">
			<path id="path22" fill="#586684" d="M0,0c1.4,3.9,7,18.9,7,18.9c-0.1-0.2,1.4,3.9,2.3,6.5l1.2-5.8c0,0,3.4-16.2,4-19.5
				C11.8,0,3.4,0,0,0z M21.6,43.6H8.1c-4.2,0-7.3-1.2-9.2-5.6l-26-62.1h18.4c0,0,3,8.3,3.7,10.2c2,0,19.8,0,22.4,0
				c0.5-2.4,2.1-10.1,2.1-10.1h16.2L21.6,43.6"/>
		</g>
		<g id="g24" transform="translate(128.78,135.265)">
			<path id="path26" fill="#586684" d="M0,0l-17.1-46.2l-1.8,9.4C-22.1-26-32.1-14.2-43.2-8.4l15.7-59.2l18.5,0L18.5,0H0"/>
		</g>
		<g id="g28" transform="translate(95.781,135.311)">
			<path id="path30" fill="#586684" d="M0,0h-28.2l-0.2-1.4C-6.5-7,8-20.6,14.1-36.8L7.9-5.7C6.9-1.4,3.8-0.2,0,0"/>
		</g>
		<g id="g32" transform="translate(288.329,72.034)">
			<path id="path34" fill="#586684" d="M0,0h0.8c0.6,0,0.7,0.3,0.7,0.6c0,0.5-0.3,0.6-0.8,0.6H0V0z M-0.7,1.7H1
				c0.4,0,1.3-0.1,1.3-1.1c0-0.3-0.1-0.6-0.6-0.9v0c0.5-0.1,0.5-0.5,0.5-0.9c0-0.6,0-0.7,0.2-0.9H1.6C1.4-2,1.5-1.9,1.4-1.3
				c0,0.4,0,0.7-0.8,0.7H0v-1.6h-0.7C-0.7-2.1-0.7,1.7-0.7,1.7z M0.7-3.5c1.8,0,3.1,1.5,3.1,3.3C3.8,1.6,2.4,3,0.7,3
				c-1.8,0-3.1-1.5-3.1-3.3C-2.4-2.1-1.1-3.5,0.7-3.5z M0.7,3.6c2.2,0,3.9-1.7,3.9-3.9c0-2.1-1.7-3.9-3.9-3.9
				c-2.2,0-3.9,1.7-3.9,3.9C-3.2,1.9-1.5,3.6,0.7,3.6"/>
		</g>
	</g>
</g>
</svg>
