<?xml version="1.0" encoding="utf-8"?>
<!-- Generator: Adobe Illustrator 16.0.0, SVG Export Plug-In . SVG Version: 6.00 Build 0)  -->
<!DOCTYPE svg PUBLIC "-//W3C//DTD SVG 1.1//EN" "http://www.w3.org/Graphics/SVG/1.1/DTD/svg11.dtd">
<svg version="1.1" id="Layer_1" xmlns="http://www.w3.org/2000/svg" xmlns:xlink="http://www.w3.org/1999/xlink" x="0px" y="0px"
	 width="2000px" height="1400px" viewBox="0 0 2000 1400" enable-background="new 0 0 2000 1400" xml:space="preserve">
<g>
	<defs>
		<rect id="SVGID_1_" width="2000" height="1400"/>
	</defs>
	<clipPath id="SVGID_2_">
		<use xlink:href="#SVGID_1_"  overflow="visible"/>
	</clipPath>
	<g clip-path="url(#SVGID_2_)">
		<defs>
			<rect id="SVGID_3_" width="2000" height="1400"/>
		</defs>
		<clipPath id="SVGID_4_">
			<use xlink:href="#SVGID_3_"  overflow="visible"/>
		</clipPath>
		<g opacity="0.1" clip-path="url(#SVGID_4_)">
			<g>
				<defs>
					<rect id="SVGID_5_" x="924.06" y="416" width="751.879" height="22.473"/>
				</defs>
				<clipPath id="SVGID_6_">
					<use xlink:href="#SVGID_5_"  overflow="visible"/>
				</clipPath>
				<rect x="924.06" y="416" clip-path="url(#SVGID_6_)" fill="#D1D9E8" width="751.883" height="22.473"/>
			</g>
		</g>
	</g>
	<g clip-path="url(#SVGID_2_)">
		<defs>
			<rect id="SVGID_7_" width="2000" height="1400"/>
		</defs>
		<clipPath id="SVGID_8_">
			<use xlink:href="#SVGID_7_"  overflow="visible"/>
		</clipPath>
		<g opacity="0.1" clip-path="url(#SVGID_8_)">
			<g>
				<defs>
					<rect id="SVGID_9_" x="1274" y="306.35" width="104.22" height="109.65"/>
				</defs>
				<clipPath id="SVGID_10_">
					<use xlink:href="#SVGID_9_"  overflow="visible"/>
				</clipPath>
				<path clip-path="url(#SVGID_10_)" fill="#D1D9E8" d="M1274,306.346v94.948c0,8.122,6.584,14.706,14.706,14.706h67.707
					c8.122,0,14.706-6.584,14.706-14.706v-82.168l6.67-9.212c1.077-1.487,0.015-3.568-1.821-3.568H1274z"/>
			</g>
		</g>
	</g>
	<rect x="1274" y="394.64" clip-path="url(#SVGID_2_)" fill="#2A344B" width="8.834" height="3.258"/>
	<rect x="1274" y="380.862" clip-path="url(#SVGID_2_)" fill="#2A344B" width="8.834" height="3.258"/>
	<rect x="1274" y="367.083" clip-path="url(#SVGID_2_)" fill="#2A344B" width="8.834" height="3.258"/>
	<rect x="1274" y="353.305" clip-path="url(#SVGID_2_)" fill="#2A344B" width="8.834" height="3.258"/>
	<rect x="1274" y="339.526" clip-path="url(#SVGID_2_)" fill="#2A344B" width="8.834" height="3.258"/>
	<rect x="1274" y="325.748" clip-path="url(#SVGID_2_)" fill="#2A344B" width="8.834" height="3.258"/>
	<g clip-path="url(#SVGID_2_)">
		<defs>
			<rect id="SVGID_11_" width="2000" height="1400"/>
		</defs>
		<clipPath id="SVGID_12_">
			<use xlink:href="#SVGID_11_"  overflow="visible"/>
		</clipPath>
		<g opacity="0.1" clip-path="url(#SVGID_12_)">
			<g>
				<defs>
					<rect id="SVGID_13_" x="344.057" y="96.32" width="367.824" height="25.68"/>
				</defs>
				<clipPath id="SVGID_14_">
					<use xlink:href="#SVGID_13_"  overflow="visible"/>
				</clipPath>
				<polygon clip-path="url(#SVGID_14_)" fill="#D1D9E8" points="523.065,122 532.874,122 711.881,122 711.881,96.319 
					344.057,96.319 344.057,122 				"/>
			</g>
		</g>
	</g>
	<g clip-path="url(#SVGID_2_)">
		<defs>
			<rect id="SVGID_15_" width="2000" height="1400"/>
		</defs>
		<clipPath id="SVGID_16_">
			<use xlink:href="#SVGID_15_"  overflow="visible"/>
		</clipPath>
		<g opacity="0.1" clip-path="url(#SVGID_16_)">
			<g>
				<defs>
					<rect id="SVGID_17_" x="344.057" y="476.404" width="367.824" height="21.596"/>
				</defs>
				<clipPath id="SVGID_18_">
					<use xlink:href="#SVGID_17_"  overflow="visible"/>
				</clipPath>
				<rect x="344.057" y="476.404" clip-path="url(#SVGID_18_)" fill="#D1D9E8" width="367.824" height="21.596"/>
			</g>
		</g>
	</g>
	<g clip-path="url(#SVGID_2_)">
		<defs>
			<rect id="SVGID_19_" width="2000" height="1400"/>
		</defs>
		<clipPath id="SVGID_20_">
			<use xlink:href="#SVGID_19_"  overflow="visible"/>
		</clipPath>
		<g opacity="0.1" clip-path="url(#SVGID_20_)">
			<g>
				<defs>
					<rect id="SVGID_21_" x="534" y="132" width="177.881" height="334"/>
				</defs>
				<clipPath id="SVGID_22_">
					<use xlink:href="#SVGID_21_"  overflow="visible"/>
				</clipPath>
				<path clip-path="url(#SVGID_22_)" fill="#D1D9E8" d="M534,466h177.881V132H534V466z M562.299,442.074
					c-6.771,0-12.261-5.489-12.261-12.261c0-6.771,5.49-12.261,12.261-12.261s12.261,5.489,12.261,12.261
					C574.561,436.585,569.07,442.074,562.299,442.074"/>
			</g>
		</g>
	</g>
	<g clip-path="url(#SVGID_2_)">
		<defs>
			<rect id="SVGID_23_" width="2000" height="1400"/>
		</defs>
		<clipPath id="SVGID_24_">
			<use xlink:href="#SVGID_23_"  overflow="visible"/>
		</clipPath>
		<g opacity="0.1" clip-path="url(#SVGID_24_)">
			<g>
				<defs>
					<rect id="SVGID_25_" x="344.057" y="132" width="177.943" height="334"/>
				</defs>
				<clipPath id="SVGID_26_">
					<use xlink:href="#SVGID_25_"  overflow="visible"/>
				</clipPath>
				<path clip-path="url(#SVGID_26_)" fill="#D1D9E8" d="M344.057,466H522V132H344.057V466z M493.639,442.074
					c-6.771,0-12.261-5.489-12.261-12.261c0-6.771,5.49-12.261,12.261-12.261s12.261,5.489,12.261,12.261
					C505.9,436.585,500.41,442.074,493.639,442.074"/>
			</g>
		</g>
	</g>
	<g clip-path="url(#SVGID_2_)">
		<defs>
			<rect id="SVGID_27_" width="2000" height="1400"/>
		</defs>
		<clipPath id="SVGID_28_">
			<use xlink:href="#SVGID_27_"  overflow="visible"/>
		</clipPath>
		<g opacity="0.1" clip-path="url(#SVGID_28_)">
			<g>
				<defs>
					<rect id="SVGID_29_" x="947.624" y="204" width="133.606" height="212.404"/>
				</defs>
				<clipPath id="SVGID_30_">
					<use xlink:href="#SVGID_29_"  overflow="visible"/>
				</clipPath>
				<path clip-path="url(#SVGID_30_)" fill="#D1D9E8" d="M1036,286.194V220h12v-16h-66v16h10v66.194
					c-25.188,8.814-44.376,33.862-44.376,63.406c0,36.896,29.909,66.804,66.804,66.804c36.896,0,66.805-29.909,66.805-66.804
					C1081.232,320.056,1062.044,295.008,1036,286.194"/>
			</g>
		</g>
	</g>
	<g clip-path="url(#SVGID_2_)">
		<defs>
			<rect id="SVGID_31_" width="2000" height="1400"/>
		</defs>
		<clipPath id="SVGID_32_">
			<use xlink:href="#SVGID_31_"  overflow="visible"/>
		</clipPath>
		<g opacity="0.1" clip-path="url(#SVGID_32_)">
			<g>
				<defs>
					<rect id="SVGID_33_" x="1108.67" y="204" width="133.61" height="212.404"/>
				</defs>
				<clipPath id="SVGID_34_">
					<use xlink:href="#SVGID_33_"  overflow="visible"/>
				</clipPath>
				<path clip-path="url(#SVGID_34_)" fill="#D1D9E8" d="M1198,286.194V220h10v-16h-66v16h12v66.194
					c-26.143,8.814-45.329,33.862-45.329,63.406c0,36.896,29.909,66.804,66.803,66.804c36.896,0,66.805-29.909,66.805-66.804
					C1242.278,320.056,1223.091,295.008,1198,286.194"/>
			</g>
		</g>
	</g>
	<g clip-path="url(#SVGID_2_)">
		<defs>
			<rect id="SVGID_35_" width="2000" height="1400"/>
		</defs>
		<clipPath id="SVGID_36_">
			<use xlink:href="#SVGID_35_"  overflow="visible"/>
		</clipPath>
		<g opacity="0.1" clip-path="url(#SVGID_36_)">
			<g>
				<defs>
					<rect id="SVGID_37_" x="1542.811" y="306.35" width="104.22" height="109.65"/>
				</defs>
				<clipPath id="SVGID_38_">
					<use xlink:href="#SVGID_37_"  overflow="visible"/>
				</clipPath>
				<path clip-path="url(#SVGID_38_)" fill="#D1D9E8" d="M1542.813,306.346v94.948c0,8.122,6.584,14.706,14.706,14.706h67.707
					c8.122,0,14.706-6.584,14.706-14.706v-82.168l6.67-9.212c1.077-1.487,0.015-3.568-1.821-3.568H1542.813z"/>
			</g>
		</g>
	</g>
	<rect x="1542.814" y="394.64" clip-path="url(#SVGID_2_)" fill="#2A344B" width="8.834" height="3.258"/>
	<rect x="1542.814" y="380.862" clip-path="url(#SVGID_2_)" fill="#2A344B" width="8.834" height="3.258"/>
	<rect x="1542.814" y="367.083" clip-path="url(#SVGID_2_)" fill="#2A344B" width="8.834" height="3.258"/>
	<rect x="1542.814" y="353.305" clip-path="url(#SVGID_2_)" fill="#2A344B" width="8.834" height="3.258"/>
	<rect x="1542.814" y="339.526" clip-path="url(#SVGID_2_)" fill="#2A344B" width="8.834" height="3.258"/>
	<rect x="1542.814" y="325.748" clip-path="url(#SVGID_2_)" fill="#2A344B" width="8.834" height="3.258"/>
	<g clip-path="url(#SVGID_2_)">
		<defs>
			<rect id="SVGID_39_" width="2000" height="1400"/>
		</defs>
		<clipPath id="SVGID_40_">
			<use xlink:href="#SVGID_39_"  overflow="visible"/>
		</clipPath>
		<g opacity="0.1" clip-path="url(#SVGID_40_)">
			<g>
				<defs>
					<rect id="SVGID_41_" x="1408.41" y="306.35" width="104.22" height="109.65"/>
				</defs>
				<clipPath id="SVGID_42_">
					<use xlink:href="#SVGID_41_"  overflow="visible"/>
				</clipPath>
				<path clip-path="url(#SVGID_42_)" fill="#D1D9E8" d="M1408.407,306.346v94.948c0,8.122,6.584,14.706,14.706,14.706h67.707
					c8.121,0,14.705-6.584,14.705-14.706v-82.168l6.67-9.212c1.077-1.487,0.016-3.568-1.82-3.568H1408.407z"/>
			</g>
		</g>
	</g>
	<rect x="1408.407" y="394.64" clip-path="url(#SVGID_2_)" fill="#2A344B" width="8.834" height="3.258"/>
	<rect x="1408.407" y="380.862" clip-path="url(#SVGID_2_)" fill="#2A344B" width="8.834" height="3.258"/>
	<rect x="1408.407" y="367.083" clip-path="url(#SVGID_2_)" fill="#2A344B" width="8.834" height="3.258"/>
	<rect x="1408.407" y="353.305" clip-path="url(#SVGID_2_)" fill="#2A344B" width="8.834" height="3.258"/>
	<rect x="1408.407" y="339.526" clip-path="url(#SVGID_2_)" fill="#2A344B" width="8.834" height="3.258"/>
	<rect x="1408.407" y="325.748" clip-path="url(#SVGID_2_)" fill="#2A344B" width="8.834" height="3.258"/>
	<g clip-path="url(#SVGID_2_)">
		<defs>
			<rect id="SVGID_43_" width="2000" height="1400"/>
		</defs>
		<clipPath id="SVGID_44_">
			<use xlink:href="#SVGID_43_"  overflow="visible"/>
		</clipPath>
		<g opacity="0.85" clip-path="url(#SVGID_44_)">
			<g>
				<defs>
					<rect id="SVGID_45_" x="695.602" y="508.473" width="322.158" height="356"/>
				</defs>
				<clipPath id="SVGID_46_">
					<use xlink:href="#SVGID_45_"  overflow="visible"/>
				</clipPath>
				<path clip-path="url(#SVGID_46_)" fill="#FFFFFF" d="M820,508.473v50L698.141,824.825c-3.967,8.668-3.25,18.757,1.9,26.777
					c5.151,8.021,14.028,12.871,23.561,12.871h266.161c9.795,0,18.876-5.117,23.951-13.496c5.073-8.379,5.4-18.799,0.862-27.479
					L876,558.473v-50"/>
			</g>
		</g>
	</g>
	<g clip-path="url(#SVGID_2_)">
		<defs>
			<rect id="SVGID_47_" width="2000" height="1400"/>
		</defs>
		<clipPath id="SVGID_48_">
			<use xlink:href="#SVGID_47_"  overflow="visible"/>
		</clipPath>
		<g opacity="0.85" clip-path="url(#SVGID_48_)">
			<g>
				<defs>
					<rect id="SVGID_49_" x="1160" y="780" width="174" height="184.473"/>
				</defs>
				<clipPath id="SVGID_50_">
					<use xlink:href="#SVGID_49_"  overflow="visible"/>
				</clipPath>
				<path clip-path="url(#SVGID_50_)" fill="#FFFFFF" d="M1160,780v156.403c0,15.502,12.566,28.069,28.07,28.069h117.859
					c15.502,0,28.07-12.567,28.07-28.069V780H1160z"/>
			</g>
		</g>
	</g>
	<g clip-path="url(#SVGID_2_)">
		<defs>
			<rect id="SVGID_51_" width="2000" height="1400"/>
		</defs>
		<clipPath id="SVGID_52_">
			<use xlink:href="#SVGID_51_"  overflow="visible"/>
		</clipPath>
		<path clip-path="url(#SVGID_52_)" fill="#DB4C40" d="M845.05,924.81c0,10.438,4.994,19.823,12.95,26.336
			c7.956-6.513,12.95-15.897,12.95-26.336c0-10.44-4.994-19.826-12.95-26.336C850.043,904.983,845.05,914.369,845.05,924.81"/>
	</g>
	<g clip-path="url(#SVGID_2_)">
		<defs>
			<rect id="SVGID_53_" width="2000" height="1400"/>
		</defs>
		<clipPath id="SVGID_54_">
			<use xlink:href="#SVGID_53_"  overflow="visible"/>
		</clipPath>
		<path clip-path="url(#SVGID_54_)" fill="#F9B938" d="M852.066,934.407c0,4.782,2.288,9.084,5.934,12.065
			c3.646-2.981,5.933-7.283,5.933-12.065c0-4.783-2.288-9.084-5.933-12.068C854.354,925.323,852.066,929.624,852.066,934.407"/>
	</g>
	<rect x="662" y="864.473" clip-path="url(#SVGID_2_)" fill="#C1BFBB" width="392" height="20"/>
	<polygon clip-path="url(#SVGID_2_)" fill="#C1BFBB" points="1010,964.474 966,870.474 986,870.474 1030,964.474 	"/>
	<polygon clip-path="url(#SVGID_2_)" fill="#C1BFBB" points="706,964.474 750,870.474 730,870.474 686,964.474 	"/>
	<rect x="804" y="954.473" clip-path="url(#SVGID_2_)" fill="#C1BFBB" width="108" height="10"/>
	<rect x="830" y="944.473" clip-path="url(#SVGID_2_)" fill="#C1BFBB" width="56" height="16"/>
	<g clip-path="url(#SVGID_2_)">
		<defs>
			<rect id="SVGID_55_" width="2000" height="1400"/>
		</defs>
		<clipPath id="SVGID_56_">
			<use xlink:href="#SVGID_55_"  overflow="visible"/>
		</clipPath>
		<path clip-path="url(#SVGID_56_)" fill="#DB4C40" d="M1172,899.026v29.248c0,13.362,10.834,24.198,24.198,24.198h101.604
			c13.364,0,24.198-10.836,24.198-24.198v-29.248C1265.104,880.06,1204.759,912.817,1172,899.026"/>
	</g>
	<g clip-path="url(#SVGID_2_)">
		<defs>
			<rect id="SVGID_57_" width="2000" height="1400"/>
		</defs>
		<clipPath id="SVGID_58_">
			<use xlink:href="#SVGID_57_"  overflow="visible"/>
		</clipPath>
		<path clip-path="url(#SVGID_58_)" fill="#FFFFFF" d="M960.422,423.317c-35.521,0-64.422-28.901-64.422-64.422
			c0-35.522,28.901-64.422,64.422-64.422s64.42,28.9,64.42,64.422C1024.842,394.416,995.943,423.317,960.422,423.317
			 M960.422,314.473c-24.494,0-44.422,19.928-44.422,44.422c0,24.494,19.928,44.422,44.422,44.422s44.42-19.928,44.42-44.422
			C1004.842,334.401,984.916,314.473,960.422,314.473"/>
	</g>
	<g clip-path="url(#SVGID_2_)">
		<defs>
			<rect id="SVGID_59_" width="2000" height="1400"/>
		</defs>
		<clipPath id="SVGID_60_">
			<use xlink:href="#SVGID_59_"  overflow="visible"/>
		</clipPath>
		<path clip-path="url(#SVGID_60_)" fill="#FFFFFF" d="M1179.578,423.317c-35.521,0-64.422-28.901-64.422-64.422
			c0-35.522,28.9-64.422,64.422-64.422s64.422,28.9,64.422,64.422C1244,394.416,1215.1,423.317,1179.578,423.317 M1179.578,314.473
			c-24.494,0-44.422,19.928-44.422,44.422c0,24.494,19.928,44.422,44.422,44.422S1224,383.389,1224,358.895
			C1224,334.401,1204.072,314.473,1179.578,314.473"/>
	</g>
	<rect x="1224" y="358.473" clip-path="url(#SVGID_2_)" fill="#FFFFFF" width="20" height="277.527"/>
	<g clip-path="url(#SVGID_2_)">
		<defs>
			<rect id="SVGID_61_" width="2000" height="1400"/>
		</defs>
		<clipPath id="SVGID_62_">
			<use xlink:href="#SVGID_61_"  overflow="visible"/>
		</clipPath>
		<path clip-path="url(#SVGID_62_)" fill="#008FF6" d="M758.693,692.473l-60.553,132.352c-3.967,8.668-3.25,18.757,1.901,26.777
			s14.028,12.871,23.56,12.871h266.161c9.795,0,18.877-5.117,23.951-13.496c5.074-8.379,5.401-18.799,0.863-27.479l-68.511-131.025
			c-15.613,0-15.613-8-31.227-8c-15.608,0-15.608,8-31.217,8c-15.615,0-15.615-8-31.229-8c-15.615,0-15.615,8-31.23,8
			c-15.617,0-15.617-8-31.235-8C774.311,684.473,774.311,692.473,758.693,692.473"/>
	</g>
	<polygon clip-path="url(#SVGID_2_)" fill="#FFFFFF" points="858,738.473 838,738.473 838,294.473 960.422,294.473 960.422,314.473 
		858,314.473 	"/>
	<g clip-path="url(#SVGID_2_)">
		<defs>
			<rect id="SVGID_63_" width="2000" height="1400"/>
		</defs>
		<clipPath id="SVGID_64_">
			<use xlink:href="#SVGID_63_"  overflow="visible"/>
		</clipPath>
		<g opacity="0.2" clip-path="url(#SVGID_64_)">
			<g>
				<defs>
					<rect id="SVGID_65_" x="782" y="754.473" width="32" height="32"/>
				</defs>
				<clipPath id="SVGID_66_">
					<use xlink:href="#SVGID_65_"  overflow="visible"/>
				</clipPath>
				<path clip-path="url(#SVGID_66_)" fill="#FFFFFF" d="M814,770.474c0,8.838-7.163,16-16,16s-16-7.162-16-16s7.163-16,16-16
					S814,761.636,814,770.474"/>
			</g>
		</g>
	</g>
	<g clip-path="url(#SVGID_2_)">
		<defs>
			<rect id="SVGID_67_" width="2000" height="1400"/>
		</defs>
		<clipPath id="SVGID_68_">
			<use xlink:href="#SVGID_67_"  overflow="visible"/>
		</clipPath>
		<g opacity="0.3" clip-path="url(#SVGID_68_)">
			<g>
				<defs>
					<rect id="SVGID_69_" x="902" y="702.473" width="24" height="24"/>
				</defs>
				<clipPath id="SVGID_70_">
					<use xlink:href="#SVGID_69_"  overflow="visible"/>
				</clipPath>
				<path clip-path="url(#SVGID_70_)" fill="#FFFFFF" d="M926,714.474c0,6.629-5.372,12-12,12s-12-5.371-12-12s5.372-12,12-12
					S926,707.845,926,714.474"/>
			</g>
		</g>
	</g>
	<g clip-path="url(#SVGID_2_)">
		<defs>
			<rect id="SVGID_71_" width="2000" height="1400"/>
		</defs>
		<clipPath id="SVGID_72_">
			<use xlink:href="#SVGID_71_"  overflow="visible"/>
		</clipPath>
		<g opacity="0.1" clip-path="url(#SVGID_72_)">
			<g>
				<defs>
					<rect id="SVGID_73_" x="838" y="798.473" width="52" height="52"/>
				</defs>
				<clipPath id="SVGID_74_">
					<use xlink:href="#SVGID_73_"  overflow="visible"/>
				</clipPath>
				<path clip-path="url(#SVGID_74_)" fill="#FFFFFF" d="M890,824.474c0,14.36-11.641,26-26,26s-26-11.64-26-26
					c0-14.361,11.641-26,26-26S890,810.112,890,824.474"/>
			</g>
		</g>
	</g>
	<g clip-path="url(#SVGID_2_)">
		<defs>
			<rect id="SVGID_75_" width="2000" height="1400"/>
		</defs>
		<clipPath id="SVGID_76_">
			<use xlink:href="#SVGID_75_"  overflow="visible"/>
		</clipPath>
		<path clip-path="url(#SVGID_76_)" fill="#F9B938" d="M1247.538,696.935c0,7.477-6.061,13.539-13.538,13.539
			c-7.479,0-13.538-6.063-13.538-13.539c0-7.477,13.538-30.461,13.538-30.461S1247.538,689.458,1247.538,696.935"/>
	</g>
	<rect x="1160" y="784.473" clip-path="url(#SVGID_2_)" fill="#FFFFFF" width="16" height="6"/>
	<rect x="1160" y="802.473" clip-path="url(#SVGID_2_)" fill="#FFFFFF" width="8" height="6"/>
	<rect x="1160" y="820.473" clip-path="url(#SVGID_2_)" fill="#FFFFFF" width="8" height="6"/>
	<rect x="1160" y="838.473" clip-path="url(#SVGID_2_)" fill="#FFFFFF" width="8" height="6"/>
	<rect x="1160" y="856.473" clip-path="url(#SVGID_2_)" fill="#FFFFFF" width="16" height="6"/>
	<rect x="1160" y="874.473" clip-path="url(#SVGID_2_)" fill="#FFFFFF" width="8" height="6"/>
	<rect x="1160" y="892.473" clip-path="url(#SVGID_2_)" fill="#FFFFFF" width="8" height="6"/>
	<rect x="1160" y="910.473" clip-path="url(#SVGID_2_)" fill="#FFFFFF" width="8" height="6"/>
	<rect x="1160" y="928.473" clip-path="url(#SVGID_2_)" fill="#FFFFFF" width="16" height="6"/>
	<polyline clip-path="url(#SVGID_2_)" fill="#FFFFFF" points="876,508.473 892,508.473 892,486.473 804,486.473 804,508.473 
		820,508.473 	"/>
	<g clip-path="url(#SVGID_2_)">
		<defs>
			<rect id="SVGID_77_" width="2000" height="1400"/>
		</defs>
		<clipPath id="SVGID_78_">
			<use xlink:href="#SVGID_77_"  overflow="visible"/>
		</clipPath>
		<g opacity="0.3" clip-path="url(#SVGID_78_)">
			<g>
				<defs>
					<rect id="SVGID_79_" x="1214" y="778.473" width="26" height="186"/>
				</defs>
				<clipPath id="SVGID_80_">
					<use xlink:href="#SVGID_79_"  overflow="visible"/>
				</clipPath>
				<rect x="1214" y="778.473" clip-path="url(#SVGID_80_)" fill="#FFFFFF" width="26" height="186"/>
			</g>
		</g>
	</g>
	<g clip-path="url(#SVGID_2_)">
		<defs>
			<rect id="SVGID_81_" width="2000" height="1400"/>
		</defs>
		<clipPath id="SVGID_82_">
			<use xlink:href="#SVGID_81_"  overflow="visible"/>
		</clipPath>
		<g opacity="0.3" clip-path="url(#SVGID_82_)">
			<g>
				<defs>
					<rect id="SVGID_83_" x="1194" y="778.473" width="14" height="186"/>
				</defs>
				<clipPath id="SVGID_84_">
					<use xlink:href="#SVGID_83_"  overflow="visible"/>
				</clipPath>
				<rect x="1194" y="778.473" clip-path="url(#SVGID_84_)" fill="#FFFFFF" width="14" height="186"/>
			</g>
		</g>
	</g>
	<g clip-path="url(#SVGID_2_)">
		<defs>
			<rect id="SVGID_85_" width="2000" height="1400"/>
		</defs>
		<clipPath id="SVGID_86_">
			<use xlink:href="#SVGID_85_"  overflow="visible"/>
		</clipPath>
		<path clip-path="url(#SVGID_86_)" fill="#FFFFFF" d="M1334,760h-193.999c0,11.52,8.954,20.473,19.999,20h174V760z"/>
	</g>
	<g clip-path="url(#SVGID_2_)">
		<defs>
			<rect id="SVGID_87_" width="2000" height="1400"/>
		</defs>
		<clipPath id="SVGID_88_">
			<use xlink:href="#SVGID_87_"  overflow="visible"/>
		</clipPath>
		<path clip-path="url(#SVGID_88_)" fill="#FFFFFF" d="M1069.264,423.317c-35.521,0-64.422-28.901-64.422-64.422
			c0-35.522,28.9-64.422,64.422-64.422s64.422,28.9,64.422,64.422C1133.686,394.416,1104.785,423.317,1069.264,423.317
			 M1069.264,314.473c-24.494,0-44.422,19.928-44.422,44.422c0,24.494,19.928,44.422,44.422,44.422s44.422-19.928,44.422-44.422
			C1113.686,334.401,1093.758,314.473,1069.264,314.473"/>
	</g>
	<g clip-path="url(#SVGID_2_)">
		<defs>
			<rect id="SVGID_89_" width="2000" height="1400"/>
		</defs>
		<clipPath id="SVGID_90_">
			<use xlink:href="#SVGID_89_"  overflow="visible"/>
		</clipPath>
		<g opacity="0.3" clip-path="url(#SVGID_90_)">
			<g>
				<defs>
					<rect id="SVGID_91_" x="695.602" y="508.473" width="152.398" height="356"/>
				</defs>
				<clipPath id="SVGID_92_">
					<use xlink:href="#SVGID_91_"  overflow="visible"/>
				</clipPath>
				<path clip-path="url(#SVGID_92_)" fill="#FFFFFF" d="M820,508.473v50L698.141,824.825c-3.967,8.668-3.25,18.757,1.9,26.777
					c5.151,8.021,14.028,12.871,23.561,12.871H848v-356H820z"/>
			</g>
		</g>
	</g>
	<polygon clip-path="url(#SVGID_2_)" fill="#FFFFFF" points="788,662.473 788,656.473 775.164,656.473 772.419,662.473 	"/>
	<polygon clip-path="url(#SVGID_2_)" fill="#FFFFFF" points="706.537,806.474 722,806.474 722,800.474 709.282,800.474 	"/>
	<polygon clip-path="url(#SVGID_2_)" fill="#FFFFFF" points="772,680.473 772,674.473 766.928,674.473 764.183,680.473 	"/>
	<polygon clip-path="url(#SVGID_2_)" fill="#FFFFFF" points="722,788.474 722,782.474 717.517,782.474 714.772,788.474 	"/>
	<polygon clip-path="url(#SVGID_2_)" fill="#FFFFFF" points="738,752.474 738,746.474 733.988,746.474 731.242,752.474 	"/>
	<polygon clip-path="url(#SVGID_2_)" fill="#FFFFFF" points="762,698.473 762,692.473 758.693,692.473 755.948,698.473 	"/>
	<polygon clip-path="url(#SVGID_2_)" fill="#FFFFFF" points="730,770.474 730,764.474 725.752,764.474 723.007,770.474 	"/>
	<polygon clip-path="url(#SVGID_2_)" fill="#FFFFFF" points="754,734.474 754,728.474 742.223,728.474 739.478,734.474 	"/>
	<polygon clip-path="url(#SVGID_2_)" fill="#FFFFFF" points="754,716.474 754,710.474 750.458,710.474 747.713,716.474 	"/>
	<g clip-path="url(#SVGID_2_)">
		<defs>
			<rect id="SVGID_93_" width="2000" height="1400"/>
		</defs>
		<clipPath id="SVGID_94_">
			<use xlink:href="#SVGID_93_"  overflow="visible"/>
		</clipPath>
		<g opacity="0.1" clip-path="url(#SVGID_94_)">
			<g>
				<defs>
					<rect id="SVGID_95_" x="131.731" y="964.473" width="1736.539" height="38"/>
				</defs>
				<clipPath id="SVGID_96_">
					<use xlink:href="#SVGID_95_"  overflow="visible"/>
				</clipPath>
				<rect x="131.731" y="964.473" clip-path="url(#SVGID_96_)" fill="#D1D9E8" width="1736.539" height="38"/>
			</g>
		</g>
	</g>
	<g clip-path="url(#SVGID_2_)">
		<defs>
			<rect id="SVGID_97_" width="2000" height="1400"/>
		</defs>
		<clipPath id="SVGID_98_">
			<use xlink:href="#SVGID_97_"  overflow="visible"/>
		</clipPath>
		<g opacity="0.1" clip-path="url(#SVGID_98_)">
			<g>
				<defs>
					<rect id="SVGID_99_" x="187.334" y="1026.68" width="1625.336" height="93.292"/>
				</defs>
				<clipPath id="SVGID_100_">
					<use xlink:href="#SVGID_99_"  overflow="visible"/>
				</clipPath>
				<rect x="187.333" y="1026.68" clip-path="url(#SVGID_100_)" fill="#D1D9E8" width="1625.333" height="93.292"/>
			</g>
		</g>
	</g>
	<g clip-path="url(#SVGID_2_)">
		<defs>
			<rect id="SVGID_101_" width="2000" height="1400"/>
		</defs>
		<clipPath id="SVGID_102_">
			<use xlink:href="#SVGID_101_"  overflow="visible"/>
		</clipPath>
		<g opacity="0.1" clip-path="url(#SVGID_102_)">
			<g>
				<defs>
					<rect id="SVGID_103_" x="239.716" y="1141.972" width="93.298" height="161.709"/>
				</defs>
				<clipPath id="SVGID_104_">
					<use xlink:href="#SVGID_103_"  overflow="visible"/>
				</clipPath>
				<rect x="239.717" y="1141.972" clip-path="url(#SVGID_104_)" fill="#D1D9E8" width="93.297" height="161.708"/>
			</g>
		</g>
	</g>
	<g clip-path="url(#SVGID_2_)">
		<defs>
			<rect id="SVGID_105_" width="2000" height="1400"/>
		</defs>
		<clipPath id="SVGID_106_">
			<use xlink:href="#SVGID_105_"  overflow="visible"/>
		</clipPath>
		<g opacity="0.1" clip-path="url(#SVGID_106_)">
			<g>
				<defs>
					<rect id="SVGID_107_" x="1666.99" y="1143.972" width="93.29" height="159.709"/>
				</defs>
				<clipPath id="SVGID_108_">
					<use xlink:href="#SVGID_107_"  overflow="visible"/>
				</clipPath>
				<rect x="1666.986" y="1143.972" clip-path="url(#SVGID_108_)" fill="#D1D9E8" width="93.297" height="159.708"/>
			</g>
		</g>
	</g>
	<g clip-path="url(#SVGID_2_)">
		<defs>
			<rect id="SVGID_109_" width="2000" height="1400"/>
		</defs>
		<clipPath id="SVGID_110_">
			<use xlink:href="#SVGID_109_"  overflow="visible"/>
		</clipPath>
		<g opacity="0.1" clip-path="url(#SVGID_110_)">
			<g>
				<defs>
					<rect id="SVGID_111_" x="1286" y="672.473" width="20" height="20"/>
				</defs>
				<clipPath id="SVGID_112_">
					<use xlink:href="#SVGID_111_"  overflow="visible"/>
				</clipPath>
				<path clip-path="url(#SVGID_112_)" fill="#D1D9E8" d="M1306,682.473c0,5.523-4.479,10-10,10c-5.522,0-10-4.477-10-10
					s4.478-10,10-10C1301.521,672.473,1306,676.95,1306,682.473"/>
			</g>
		</g>
	</g>
	<g clip-path="url(#SVGID_2_)">
		<defs>
			<rect id="SVGID_113_" width="2000" height="1400"/>
		</defs>
		<clipPath id="SVGID_114_">
			<use xlink:href="#SVGID_113_"  overflow="visible"/>
		</clipPath>
		<g opacity="0.1" clip-path="url(#SVGID_114_)">
			<g>
				<defs>
					<rect id="SVGID_115_" x="1320" y="556.473" width="32" height="32"/>
				</defs>
				<clipPath id="SVGID_116_">
					<use xlink:href="#SVGID_115_"  overflow="visible"/>
				</clipPath>
				<path clip-path="url(#SVGID_116_)" fill="#D1D9E8" d="M1352,572.473c0,8.836-7.163,16-16,16s-16-7.164-16-16
					c0-8.836,7.163-16,16-16S1352,563.637,1352,572.473"/>
			</g>
		</g>
	</g>
	<g clip-path="url(#SVGID_2_)">
		<defs>
			<rect id="SVGID_117_" width="2000" height="1400"/>
		</defs>
		<clipPath id="SVGID_118_">
			<use xlink:href="#SVGID_117_"  overflow="visible"/>
		</clipPath>
		<g opacity="0.1" clip-path="url(#SVGID_118_)">
			<g>
				<defs>
					<rect id="SVGID_119_" x="1112" y="612.473" width="32" height="32"/>
				</defs>
				<clipPath id="SVGID_120_">
					<use xlink:href="#SVGID_119_"  overflow="visible"/>
				</clipPath>
				<path clip-path="url(#SVGID_120_)" fill="#D1D9E8" d="M1128,644.473c-8.822,0-16-7.178-16-16c0-8.822,7.178-16,16-16
					s16,7.178,16,16C1144,637.295,1136.822,644.473,1128,644.473 M1128,616.473c-6.617,0-12,5.383-12,12c0,6.617,5.383,12,12,12
					s12-5.383,12-12C1140,621.856,1134.617,616.473,1128,616.473"/>
			</g>
		</g>
	</g>
	<g clip-path="url(#SVGID_2_)">
		<defs>
			<rect id="SVGID_121_" width="2000" height="1400"/>
		</defs>
		<clipPath id="SVGID_122_">
			<use xlink:href="#SVGID_121_"  overflow="visible"/>
		</clipPath>
		<g opacity="0.1" clip-path="url(#SVGID_122_)">
			<g>
				<defs>
					<rect id="SVGID_123_" x="1154.4" y="552.473" width="27.6" height="27.598"/>
				</defs>
				<clipPath id="SVGID_124_">
					<use xlink:href="#SVGID_123_"  overflow="visible"/>
				</clipPath>
				<polygon clip-path="url(#SVGID_124_)" fill="#D1D9E8" points="1168.201,552.473 1173.08,561.394 1182,566.272 1173.08,571.151 
					1168.201,580.071 1163.322,571.151 1154.402,566.272 1163.322,561.394 				"/>
			</g>
		</g>
	</g>
	<g clip-path="url(#SVGID_2_)">
		<defs>
			<rect id="SVGID_125_" width="2000" height="1400"/>
		</defs>
		<clipPath id="SVGID_126_">
			<use xlink:href="#SVGID_125_"  overflow="visible"/>
		</clipPath>
		<g opacity="0.85" clip-path="url(#SVGID_126_)">
			<g>
				<defs>
					<rect id="SVGID_127_" x="329.341" y="590.473" width="188" height="270"/>
				</defs>
				<clipPath id="SVGID_128_">
					<use xlink:href="#SVGID_127_"  overflow="visible"/>
				</clipPath>
				<path clip-path="url(#SVGID_128_)" fill="#FFFFFF" d="M452,677.253v-86.78h-58v86.78c-37.66,12.403-64.659,47.647-64.659,89.22
					c0,51.915,42.085,94,94,94s94-42.085,94-94C517.341,724.9,490.342,689.656,452,677.253"/>
			</g>
		</g>
	</g>
	<rect x="384" y="570" clip-path="url(#SVGID_2_)" fill="#FFFFFF" width="78" height="22"/>
	<rect x="1662" y="598" clip-path="url(#SVGID_2_)" fill="#FFFFFF" width="68" height="16"/>
	<g clip-path="url(#SVGID_2_)">
		<defs>
			<rect id="SVGID_129_" width="2000" height="1400"/>
		</defs>
		<clipPath id="SVGID_130_">
			<use xlink:href="#SVGID_129_"  overflow="visible"/>
		</clipPath>
		<g opacity="0.85" clip-path="url(#SVGID_130_)">
			<g>
				<defs>
					<rect id="SVGID_131_" x="1670" y="612.601" width="52" height="255.021"/>
				</defs>
				<clipPath id="SVGID_132_">
					<use xlink:href="#SVGID_131_"  overflow="visible"/>
				</clipPath>
				<path clip-path="url(#SVGID_132_)" fill="#FFFFFF" d="M1670,612.601v230.06c1.628,13.786,12.804,24.961,26.589,24.961
					c13.786,0,24.962-11.175,25.411-24.961v-230.06H1670z"/>
			</g>
		</g>
	</g>
	<rect x="1580" y="598" clip-path="url(#SVGID_2_)" fill="#FFFFFF" width="68" height="16"/>
	<g clip-path="url(#SVGID_2_)">
		<defs>
			<rect id="SVGID_133_" width="2000" height="1400"/>
		</defs>
		<clipPath id="SVGID_134_">
			<use xlink:href="#SVGID_133_"  overflow="visible"/>
		</clipPath>
		<g opacity="0.85" clip-path="url(#SVGID_134_)">
			<g>
				<defs>
					<rect id="SVGID_135_" x="1588" y="612.601" width="50.03" height="255.021"/>
				</defs>
				<clipPath id="SVGID_136_">
					<use xlink:href="#SVGID_135_"  overflow="visible"/>
				</clipPath>
				<path clip-path="url(#SVGID_136_)" fill="#FFFFFF" d="M1588,612.601v230.06c0.713,13.786,11.888,24.961,25.674,24.961
					c13.785,0,24.961-11.175,24.326-24.961v-230.06H1588z"/>
			</g>
		</g>
	</g>
	<rect x="1496" y="598" clip-path="url(#SVGID_2_)" fill="#FFFFFF" width="68" height="16"/>
	<g clip-path="url(#SVGID_2_)">
		<defs>
			<rect id="SVGID_137_" width="2000" height="1400"/>
		</defs>
		<clipPath id="SVGID_138_">
			<use xlink:href="#SVGID_137_"  overflow="visible"/>
		</clipPath>
		<g opacity="0.85" clip-path="url(#SVGID_138_)">
			<g>
				<defs>
					<rect id="SVGID_139_" x="1506" y="612.601" width="50" height="255.021"/>
				</defs>
				<clipPath id="SVGID_140_">
					<use xlink:href="#SVGID_139_"  overflow="visible"/>
				</clipPath>
				<path clip-path="url(#SVGID_140_)" fill="#FFFFFF" d="M1506,612.601v230.06c-0.203,13.786,10.972,24.961,24.758,24.961
					c13.785,0,24.961-11.175,25.242-24.961v-230.06H1506z"/>
			</g>
		</g>
	</g>
	<rect x="1490" y="946" clip-path="url(#SVGID_2_)" fill="#C1BFBB" width="337.17" height="18"/>
	<rect x="1764.334" y="586" clip-path="url(#SVGID_2_)" fill="#C1BFBB" width="15.501" height="360.738"/>
	<rect x="1470.891" y="646" clip-path="url(#SVGID_2_)" fill="#C1BFBB" width="285.566" height="8"/>
	<g clip-path="url(#SVGID_2_)">
		<defs>
			<rect id="SVGID_141_" width="2000" height="1400"/>
		</defs>
		<clipPath id="SVGID_142_">
			<use xlink:href="#SVGID_141_"  overflow="visible"/>
		</clipPath>
		<g opacity="0.85" clip-path="url(#SVGID_142_)">
			<g>
				<defs>
					<rect id="SVGID_143_" x="1506" y="720" width="50" height="147.622"/>
				</defs>
				<clipPath id="SVGID_144_">
					<use xlink:href="#SVGID_143_"  overflow="visible"/>
				</clipPath>
				<path clip-path="url(#SVGID_144_)" fill="#008FF6" d="M1506,720v122.661c-0.203,13.786,10.972,24.961,24.758,24.961
					c13.785,0,24.961-11.175,25.242-24.961V720H1506z"/>
			</g>
		</g>
	</g>
	<g clip-path="url(#SVGID_2_)">
		<defs>
			<rect id="SVGID_145_" width="2000" height="1400"/>
		</defs>
		<clipPath id="SVGID_146_">
			<use xlink:href="#SVGID_145_"  overflow="visible"/>
		</clipPath>
		<g opacity="0.85" clip-path="url(#SVGID_146_)">
			<g>
				<defs>
					<rect id="SVGID_147_" x="1588" y="766.141" width="50.03" height="101.481"/>
				</defs>
				<clipPath id="SVGID_148_">
					<use xlink:href="#SVGID_147_"  overflow="visible"/>
				</clipPath>
				<path clip-path="url(#SVGID_148_)" fill="#F9B938" d="M1588,766.141v76.521c0.713,13.785,11.888,24.961,25.674,24.961
					c13.785,0,24.961-11.176,24.326-24.961v-76.521H1588z"/>
			</g>
		</g>
	</g>
	<g clip-path="url(#SVGID_2_)">
		<defs>
			<rect id="SVGID_149_" width="2000" height="1400"/>
		</defs>
		<clipPath id="SVGID_150_">
			<use xlink:href="#SVGID_149_"  overflow="visible"/>
		</clipPath>
		<g opacity="0.85" clip-path="url(#SVGID_150_)">
			<g>
				<defs>
					<rect id="SVGID_151_" x="1670" y="702.473" width="52" height="165.149"/>
				</defs>
				<clipPath id="SVGID_152_">
					<use xlink:href="#SVGID_151_"  overflow="visible"/>
				</clipPath>
				<path clip-path="url(#SVGID_152_)" fill="#715AA9" d="M1670,702.474v140.188c1.628,13.785,12.804,24.961,26.589,24.961
					c13.786,0,24.962-11.176,25.411-24.961V702.474H1670z"/>
			</g>
		</g>
	</g>
	<g clip-path="url(#SVGID_2_)">
		<defs>
			<rect id="SVGID_153_" width="2000" height="1400"/>
		</defs>
		<clipPath id="SVGID_154_">
			<use xlink:href="#SVGID_153_"  overflow="visible"/>
		</clipPath>
		<path clip-path="url(#SVGID_154_)" fill="#DB4C40" d="M410.391,918.81c0,10.438,4.994,19.823,12.95,26.336
			c7.956-6.513,12.95-15.897,12.95-26.336c0-10.44-4.994-19.826-12.95-26.336C415.385,898.983,410.391,908.369,410.391,918.81"/>
	</g>
	<g clip-path="url(#SVGID_2_)">
		<defs>
			<rect id="SVGID_155_" width="2000" height="1400"/>
		</defs>
		<clipPath id="SVGID_156_">
			<use xlink:href="#SVGID_155_"  overflow="visible"/>
		</clipPath>
		<path clip-path="url(#SVGID_156_)" fill="#F9B938" d="M417.407,928.407c0,4.782,2.288,9.084,5.934,12.065
			c3.645-2.981,5.933-7.283,5.933-12.065c0-4.783-2.288-9.084-5.933-12.068C419.695,919.323,417.407,923.624,417.407,928.407"/>
	</g>
	<rect x="395.341" y="938.473" clip-path="url(#SVGID_2_)" fill="#C1BFBB" width="56" height="16"/>
	<rect x="220" y="946.738" clip-path="url(#SVGID_2_)" fill="#C1BFBB" width="256.279" height="16.665"/>
	<rect x="266" y="585.543" clip-path="url(#SVGID_2_)" fill="#C1BFBB" width="16" height="361.195"/>
	<rect x="290.714" y="606" clip-path="url(#SVGID_2_)" fill="#C1BFBB" width="187.565" height="6"/>
	<rect x="258" y="596" clip-path="url(#SVGID_2_)" fill="#FFFFFF" width="34" height="24"/>
	<g clip-path="url(#SVGID_2_)">
		<defs>
			<rect id="SVGID_157_" width="2000" height="1400"/>
		</defs>
		<clipPath id="SVGID_158_">
			<use xlink:href="#SVGID_157_"  overflow="visible"/>
		</clipPath>
		<g opacity="0.85" clip-path="url(#SVGID_158_)">
			<g>
				<defs>
					<rect id="SVGID_159_" x="329.711" y="774" width="187.259" height="86.473"/>
				</defs>
				<clipPath id="SVGID_160_">
					<use xlink:href="#SVGID_159_"  overflow="visible"/>
				</clipPath>
				<path clip-path="url(#SVGID_160_)" fill="#715AA9" d="M329.711,774c4.111,48.693,44.446,86.473,93.63,86.473
					c49.183,0,89.518-37.779,93.629-86.473H329.711z"/>
			</g>
		</g>
	</g>
	<g clip-path="url(#SVGID_2_)">
		<defs>
			<rect id="SVGID_161_" width="2000" height="1400"/>
		</defs>
		<clipPath id="SVGID_162_">
			<use xlink:href="#SVGID_161_"  overflow="visible"/>
		</clipPath>
		<g opacity="0.3" clip-path="url(#SVGID_162_)">
			<g>
				<defs>
					<rect id="SVGID_163_" x="378.119" y="785.473" width="24" height="24"/>
				</defs>
				<clipPath id="SVGID_164_">
					<use xlink:href="#SVGID_163_"  overflow="visible"/>
				</clipPath>
				<path clip-path="url(#SVGID_164_)" fill="#FFFFFF" d="M402.119,797.474c0,6.629-5.372,12-12,12s-12-5.371-12-12s5.372-12,12-12
					S402.119,790.845,402.119,797.474"/>
			</g>
		</g>
	</g>
	<g clip-path="url(#SVGID_2_)">
		<defs>
			<rect id="SVGID_165_" width="2000" height="1400"/>
		</defs>
		<clipPath id="SVGID_166_">
			<use xlink:href="#SVGID_165_"  overflow="visible"/>
		</clipPath>
		<g opacity="0.3" clip-path="url(#SVGID_166_)">
			<g>
				<defs>
					<rect id="SVGID_167_" x="420.289" y="829.766" width="15.543" height="15.543"/>
				</defs>
				<clipPath id="SVGID_168_">
					<use xlink:href="#SVGID_167_"  overflow="visible"/>
				</clipPath>
				<path clip-path="url(#SVGID_168_)" fill="#FFFFFF" d="M435.832,837.537c0,4.293-3.479,7.772-7.772,7.772
					c-4.292,0-7.771-3.479-7.771-7.772s3.479-7.771,7.771-7.771C432.353,829.766,435.832,833.244,435.832,837.537"/>
			</g>
		</g>
	</g>
	<g clip-path="url(#SVGID_2_)">
		<defs>
			<rect id="SVGID_169_" width="2000" height="1400"/>
		</defs>
		<clipPath id="SVGID_170_">
			<use xlink:href="#SVGID_169_"  overflow="visible"/>
		</clipPath>
		<g opacity="0.3" clip-path="url(#SVGID_170_)">
			<g>
				<defs>
					<rect id="SVGID_171_" x="434.35" y="774.574" width="34.118" height="12.433"/>
				</defs>
				<clipPath id="SVGID_172_">
					<use xlink:href="#SVGID_171_"  overflow="visible"/>
				</clipPath>
				<path clip-path="url(#SVGID_172_)" fill="#FFFFFF" d="M434.35,774.574c2.319,7.212,9.076,12.433,17.059,12.433
					c7.984,0,14.74-5.221,17.059-12.433H434.35z"/>
			</g>
		</g>
	</g>
	<rect x="1756.457" y="638" clip-path="url(#SVGID_2_)" fill="#FFFFFF" width="31.256" height="22"/>
</g>
</svg>
