<?xml version="1.0" encoding="utf-8"?>
<!-- Generator: Adobe Illustrator 16.0.0, SVG Export Plug-In . SVG Version: 6.00 Build 0)  -->
<!DOCTYPE svg PUBLIC "-//W3C//DTD SVG 1.1//EN" "http://www.w3.org/Graphics/SVG/1.1/DTD/svg11.dtd">
<svg version="1.1" id="Layer_1" xmlns="http://www.w3.org/2000/svg" xmlns:xlink="http://www.w3.org/1999/xlink" x="0px" y="0px"
	 width="2000px" height="1400px" viewBox="0 0 2000 1400" enable-background="new 0 0 2000 1400" xml:space="preserve">
<g>
	<defs>
		<rect id="SVGID_1_" width="2000" height="1400"/>
	</defs>
	<clipPath id="SVGID_2_">
		<use xlink:href="#SVGID_1_"  overflow="visible"/>
	</clipPath>
	<g clip-path="url(#SVGID_2_)">
		<defs>
			<rect id="SVGID_3_" width="2000" height="1400"/>
		</defs>
		<clipPath id="SVGID_4_">
			<use xlink:href="#SVGID_3_"  overflow="visible"/>
		</clipPath>
		<g opacity="0.1" clip-path="url(#SVGID_4_)">
			<g>
				<defs>
					<rect id="SVGID_5_" x="593.422" y="240.53" width="211.572" height="136.22"/>
				</defs>
				<clipPath id="SVGID_6_">
					<use xlink:href="#SVGID_5_"  overflow="visible"/>
				</clipPath>
				<path clip-path="url(#SVGID_6_)" fill="#D1D9E8" d="M607.042,267.773h65.083c7.524,0,13.623,6.099,13.623,13.622
					c0,7.504-6.069,13.589-13.567,13.619h-29.139c-7.522,0-13.621,6.099-13.621,13.623c0,7.523,6.099,13.622,13.621,13.622h24.488
					c0.019,0,0.037,0.003,0.056,0.003h40.595c7.498,0.03,13.567,6.115,13.567,13.619c0,7.523-6.099,13.621-13.623,13.621h-4.539
					c-7.524,0-13.623,6.099-13.623,13.622c0,7.524,6.099,13.623,13.623,13.623h87.785c7.524,0,13.623-6.099,13.623-13.623
					c0-7.523-6.099-13.622-13.623-13.622h-9.082c0.257,0,0.507-0.025,0.759-0.038c-7.171-0.395-12.867-6.316-12.867-13.583
					c0-7.268,5.696-13.19,12.867-13.584c-0.252-0.014-0.502-0.038-0.759-0.038h9.082c7.524,0,13.623-6.099,13.623-13.622
					c0-7.524-6.099-13.623-13.623-13.623h-45.027c0.238-0.003,0.47-0.023,0.704-0.036c-7.171-0.394-12.867-6.316-12.867-13.583
					c0-7.268,5.696-13.19,12.867-13.584c-0.252-0.013-0.502-0.038-0.759-0.038h9.082c7.524,0,13.623-6.099,13.623-13.622
					c0-7.524-6.099-13.623-13.623-13.623H607.042c-7.522,0-13.621,6.099-13.621,13.623
					C593.421,261.675,599.52,267.773,607.042,267.773"/>
			</g>
		</g>
	</g>
	<g clip-path="url(#SVGID_2_)">
		<defs>
			<rect id="SVGID_7_" width="2000" height="1400"/>
		</defs>
		<clipPath id="SVGID_8_">
			<use xlink:href="#SVGID_7_"  overflow="visible"/>
		</clipPath>
		<g opacity="0.1" clip-path="url(#SVGID_8_)">
			<g>
				<defs>
					<rect id="SVGID_9_" x="1035.85" y="885.488" width="280.801" height="74.541"/>
				</defs>
				<clipPath id="SVGID_10_">
					<use xlink:href="#SVGID_9_"  overflow="visible"/>
				</clipPath>
				<path clip-path="url(#SVGID_10_)" fill="#D1D9E8" d="M1208.336,910.335h-17.944c-6.861,0-12.424,5.562-12.424,12.424
					c0,6.861,5.563,12.424,12.424,12.424h113.833c6.863,0,12.426,5.562,12.426,12.423s-5.563,12.424-12.426,12.424h-255.953
					c-6.859,0-12.422-5.563-12.422-12.424s5.563-12.423,12.422-12.423h82.285c-0.234,0-0.462-0.022-0.691-0.036
					c6.54-0.358,11.733-5.76,11.733-12.388c0-6.629-5.193-12.029-11.733-12.389c0.229-0.013,0.457-0.035,0.691-0.035h-22.285
					c-6.859,0-12.422-5.562-12.422-12.423s5.563-12.424,12.422-12.424h100.064c6.862,0,12.424,5.563,12.424,12.424
					S1215.198,910.335,1208.336,910.335"/>
			</g>
		</g>
	</g>
	<g clip-path="url(#SVGID_2_)">
		<defs>
			<rect id="SVGID_11_" width="2000" height="1400"/>
		</defs>
		<clipPath id="SVGID_12_">
			<use xlink:href="#SVGID_11_"  overflow="visible"/>
		</clipPath>
		<g opacity="0.1" clip-path="url(#SVGID_12_)">
			<g>
				<defs>
					<rect id="SVGID_13_" x="429.208" y="909.291" width="175.572" height="81.733"/>
				</defs>
				<clipPath id="SVGID_14_">
					<use xlink:href="#SVGID_13_"  overflow="visible"/>
				</clipPath>
				<path clip-path="url(#SVGID_14_)" fill="#D1D9E8" d="M530.616,936.536h-4.54c-7.524,0-13.622,6.099-13.622,13.622
					c0,7.522,6.098,13.622,13.622,13.622h65.084c7.521,0,13.62,6.099,13.62,13.621c0,7.524-6.099,13.622-13.62,13.622H442.831
					c-7.524,0-13.623-6.098-13.623-13.622c0-7.522,6.099-13.621,13.623-13.621h9.081c-0.257,0-0.506-0.025-0.758-0.038
					c7.17-0.396,12.866-6.317,12.866-13.584c0-7.268-5.696-13.19-12.866-13.583c0.252-0.015,0.501-0.039,0.758-0.039h-9.081
					c-7.524,0-13.623-6.1-13.623-13.622c0-7.524,6.099-13.623,13.623-13.623h87.785c7.524,0,13.623,6.099,13.623,13.623
					C544.239,930.437,538.14,936.536,530.616,936.536"/>
			</g>
		</g>
	</g>
	<g clip-path="url(#SVGID_2_)">
		<defs>
			<rect id="SVGID_15_" width="2000" height="1400"/>
		</defs>
		<clipPath id="SVGID_16_">
			<use xlink:href="#SVGID_15_"  overflow="visible"/>
		</clipPath>
		<g opacity="0.7" clip-path="url(#SVGID_16_)">
			<g>
				<defs>
					<rect id="SVGID_17_" x="251.768" y="966.824" width="269.84" height="144.719"/>
				</defs>
				<clipPath id="SVGID_18_">
					<use xlink:href="#SVGID_17_"  overflow="visible"/>
				</clipPath>
				<path clip-path="url(#SVGID_18_)" fill="#202935" d="M521.492,1014.691h0.116l-0.135-0.06
					c-1.008-3.36-8.482-23.874-41.424-23.874H455.52v-23.934h-28.669h-91.416h-38.543l-19.572,8.8
					c-11.196,0-20.316,6.096-25.552,15.134c5.236,9.039,14.356,15.134,25.552,15.134l19.572,8.8h0.228v0.419h44.127l11.603,96.433
					h26.218l31.839-96.433h110.701C521.608,1015.11,521.569,1014.953,521.492,1014.691"/>
			</g>
		</g>
	</g>
	<g clip-path="url(#SVGID_2_)">
		<defs>
			<rect id="SVGID_19_" width="2000" height="1400"/>
		</defs>
		<clipPath id="SVGID_20_">
			<use xlink:href="#SVGID_19_"  overflow="visible"/>
		</clipPath>
		<path clip-path="url(#SVGID_20_)" fill="#F9B938" d="M277.32,962.538c-11.196,0-20.316,6.095-25.551,15.134
			c5.235,9.038,14.355,15.134,25.551,15.134c11.195,0,21.583-6.096,26.819-15.134C298.903,968.633,288.515,962.538,277.32,962.538"
			/>
	</g>
	<polygon clip-path="url(#SVGID_2_)" fill="#DB4C40" points="637,846.402 648.446,850.803 648.446,826.869 637,831.269 	"/>
	<g clip-path="url(#SVGID_2_)">
		<defs>
			<rect id="SVGID_21_" width="2000" height="1400"/>
		</defs>
		<clipPath id="SVGID_22_">
			<use xlink:href="#SVGID_21_"  overflow="visible"/>
		</clipPath>
		<path clip-path="url(#SVGID_22_)" fill="#FFFFFF" d="M521.608,1001.867l-0.135-0.06c-1.008-3.36-8.482-23.874-41.424-23.874
			H455.52V954H296v47.867h1.12v0.419h224.488c0,0-0.039-0.157-0.116-0.419H521.608z"/>
	</g>
	<g clip-path="url(#SVGID_2_)">
		<defs>
			<rect id="SVGID_23_" width="2000" height="1400"/>
		</defs>
		<clipPath id="SVGID_24_">
			<use xlink:href="#SVGID_23_"  overflow="visible"/>
		</clipPath>
		<path clip-path="url(#SVGID_24_)" fill="#FFFFFF" d="M334.986,931.672c-4.948-11.8-16.496-19.48-29.292-19.48v41.547h38.543
			L334.986,931.672z"/>
	</g>
	<g clip-path="url(#SVGID_2_)">
		<defs>
			<rect id="SVGID_25_" width="2000" height="1400"/>
		</defs>
		<clipPath id="SVGID_26_">
			<use xlink:href="#SVGID_25_"  overflow="visible"/>
		</clipPath>
		<path clip-path="url(#SVGID_26_)" fill="#C1BFBB" d="M421.604,977.824H296V1004h183.853
			C457.657,996.704,437.83,988.375,421.604,977.824"/>
	</g>
	<polygon clip-path="url(#SVGID_2_)" fill="#FFFFFF" points="379.067,1098.457 352.851,1098.457 335.435,954 426.851,954 	"/>
	<g clip-path="url(#SVGID_2_)">
		<defs>
			<rect id="SVGID_27_" width="2000" height="1400"/>
		</defs>
		<clipPath id="SVGID_28_">
			<use xlink:href="#SVGID_27_"  overflow="visible"/>
		</clipPath>
		<path clip-path="url(#SVGID_28_)" fill="#99D8FF" d="M480.048,977.672c0-13.217-10.714-23.934-23.934-23.934h-7.107v23.934
			H480.048z"/>
	</g>
	<rect x="296" y="912.192" clip-path="url(#SVGID_2_)" fill="#DB4C40" width="9.92" height="41.433"/>
	<polygon clip-path="url(#SVGID_2_)" fill="#D1D9E8" points="1716.063,1162.593 1719.643,1169.139 1726.191,1172.721 
		1719.643,1176.302 1716.063,1182.848 1712.484,1176.302 1705.936,1172.721 1712.484,1169.139 	"/>
	<polygon clip-path="url(#SVGID_2_)" fill="#D1D9E8" points="261.896,1132.72 265.475,1139.266 272.024,1142.848 265.475,1146.429 
		261.896,1152.977 258.317,1146.429 251.768,1142.848 258.317,1139.266 	"/>
	<polygon clip-path="url(#SVGID_2_)" fill="#D1D9E8" points="537.885,822.854 541.464,829.399 548.013,832.981 541.464,836.563 
		537.885,843.108 534.306,836.563 527.757,832.981 534.306,829.399 	"/>
	<polygon clip-path="url(#SVGID_2_)" fill="#D1D9E8" points="907.392,370.981 910.971,377.527 917.52,381.109 910.971,384.69 
		907.392,391.236 903.813,384.69 897.264,381.109 903.813,377.527 	"/>
	<polygon clip-path="url(#SVGID_2_)" fill="#D1D9E8" points="252.395,470.296 255.974,476.843 262.522,480.425 255.974,484.006 
		252.395,490.552 248.816,484.006 242.267,480.425 248.816,476.843 	"/>
	<polygon clip-path="url(#SVGID_2_)" fill="#D1D9E8" points="1744.294,768.636 1747.873,775.182 1754.422,778.764 1747.873,782.345 
		1744.294,788.891 1740.715,782.345 1734.166,778.764 1740.715,775.182 	"/>
	<polygon clip-path="url(#SVGID_2_)" fill="#D1D9E8" points="1099.408,986.461 1102.986,993.007 1109.535,996.589 1102.986,1000.17 
		1099.408,1006.716 1095.828,1000.17 1089.279,996.589 1095.828,993.007 	"/>
	<g clip-path="url(#SVGID_2_)">
		<defs>
			<rect id="SVGID_29_" width="2000" height="1400"/>
		</defs>
		<clipPath id="SVGID_30_">
			<use xlink:href="#SVGID_29_"  overflow="visible"/>
		</clipPath>
		<g opacity="0.7" clip-path="url(#SVGID_30_)">
			<g>
				<defs>
					<rect id="SVGID_31_" x="1379.439" y="1099.224" width="219.881" height="61.601"/>
				</defs>
				<clipPath id="SVGID_32_">
					<use xlink:href="#SVGID_31_"  overflow="visible"/>
				</clipPath>
				<path clip-path="url(#SVGID_32_)" fill="#202935" d="M1599.32,1099.225h-219.875v17.6h35.056c15.058,26.277,43.349,44,75.805,44
					s60.747-17.723,75.805-44h33.21V1099.225z"/>
			</g>
		</g>
	</g>
	<rect x="1484" y="1001.597" clip-path="url(#SVGID_2_)" fill="#715AA9" width="9.799" height="36.255"/>
	<g clip-path="url(#SVGID_2_)">
		<defs>
			<rect id="SVGID_33_" width="2000" height="1400"/>
		</defs>
		<clipPath id="SVGID_34_">
			<use xlink:href="#SVGID_33_"  overflow="visible"/>
		</clipPath>
		<path clip-path="url(#SVGID_34_)" fill="#DB4C40" d="M1498.12,1002.424c0,4.86-3.94,8.801-8.801,8.801
			c-4.859,0-8.8-3.94-8.8-8.801c0-4.859,3.94-8.8,8.8-8.8C1494.18,993.624,1498.12,997.564,1498.12,1002.424"/>
	</g>
	<g clip-path="url(#SVGID_2_)">
		<defs>
			<rect id="SVGID_35_" width="2000" height="1400"/>
		</defs>
		<clipPath id="SVGID_36_">
			<use xlink:href="#SVGID_35_"  overflow="visible"/>
		</clipPath>
		<path clip-path="url(#SVGID_36_)" fill="#715AA9" d="M1489.32,1034.414c-38.818,0-72.355,20.78-90.2,51.549h180.399
			C1561.675,1055.194,1528.138,1034.414,1489.32,1034.414"/>
	</g>
	<g clip-path="url(#SVGID_2_)">
		<defs>
			<rect id="SVGID_37_" width="2000" height="1400"/>
		</defs>
		<clipPath id="SVGID_38_">
			<use xlink:href="#SVGID_37_"  overflow="visible"/>
		</clipPath>
		<g opacity="0.4" clip-path="url(#SVGID_38_)">
			<g>
				<defs>
					<rect id="SVGID_39_" x="1414.26" y="1103.223" width="152.101" height="44.401"/>
				</defs>
				<clipPath id="SVGID_40_">
					<use xlink:href="#SVGID_39_"  overflow="visible"/>
				</clipPath>
				<path clip-path="url(#SVGID_40_)" fill="#715AA9" d="M1490.306,1147.624c-32.624,0-61.052-17.898-76.05-44.401h152.101
					C1551.357,1129.726,1522.93,1147.624,1490.306,1147.624"/>
			</g>
		</g>
	</g>
	<rect x="1378" y="1086.024" clip-path="url(#SVGID_2_)" fill="#F9B938" width="222" height="17.976"/>
	<g clip-path="url(#SVGID_2_)">
		<defs>
			<rect id="SVGID_41_" width="2000" height="1400"/>
		</defs>
		<clipPath id="SVGID_42_">
			<use xlink:href="#SVGID_41_"  overflow="visible"/>
		</clipPath>
		<g opacity="0.3" clip-path="url(#SVGID_42_)">
			<g>
				<defs>
					<rect id="SVGID_43_" x="1378" y="1086.024" width="222" height="8.8"/>
				</defs>
				<clipPath id="SVGID_44_">
					<use xlink:href="#SVGID_43_"  overflow="visible"/>
				</clipPath>
				<rect x="1378" y="1086.024" clip-path="url(#SVGID_44_)" fill="#FFFFFF" width="222" height="8.8"/>
			</g>
		</g>
	</g>
	<g clip-path="url(#SVGID_2_)">
		<defs>
			<rect id="SVGID_45_" width="2000" height="1400"/>
		</defs>
		<clipPath id="SVGID_46_">
			<use xlink:href="#SVGID_45_"  overflow="visible"/>
		</clipPath>
		<path clip-path="url(#SVGID_46_)" fill="#99D8FF" d="M1493.743,1034.474c1.412,15.337,14.299,27.351,30.005,27.351h35.847
			C1542.248,1045.562,1519.191,1035.321,1493.743,1034.474"/>
	</g>
	<g clip-path="url(#SVGID_2_)">
		<defs>
			<rect id="SVGID_47_" width="2000" height="1400"/>
		</defs>
		<clipPath id="SVGID_48_">
			<use xlink:href="#SVGID_47_"  overflow="visible"/>
		</clipPath>
		<g opacity="0.7" clip-path="url(#SVGID_48_)">
			<g>
				<defs>
					<rect id="SVGID_49_" x="1405.41" y="372.64" width="255.2" height="87.784"/>
				</defs>
				<clipPath id="SVGID_50_">
					<use xlink:href="#SVGID_49_"  overflow="visible"/>
				</clipPath>
				<path clip-path="url(#SVGID_50_)" fill="#202935" d="M1660.607,383.424h-24.199v5.269l-48.168-16.055h-156.433v34.986h-0.238
					v-28.6l-26.161,6.6v22l26.354,6.6v37.4h-4.592c-2.43,0-4.401,1.97-4.401,4.4c0,2.43,1.972,4.4,4.401,4.4h48.399
					c2.43,0,4.4-1.97,4.4-4.4c0-2.43-1.971-4.4-4.4-4.4h-1.801l33.599-30.8h117.012l36.141-24.094l-0.32-0.106h0.408V383.424z"/>
			</g>
		</g>
	</g>
	<polygon clip-path="url(#SVGID_2_)" fill="#FFFFFF" points="1588.24,358 1432,358 1432,407.624 1624.379,407.624 1660.52,383.531 	
		"/>
	<polygon clip-path="url(#SVGID_2_)" fill="#715AA9" points="1468.97,335.024 1432,335.024 1432,383.424 1521.77,383.424 	"/>
	<g clip-path="url(#SVGID_2_)">
		<defs>
			<rect id="SVGID_51_" width="2000" height="1400"/>
		</defs>
		<clipPath id="SVGID_52_">
			<use xlink:href="#SVGID_51_"  overflow="visible"/>
		</clipPath>
		<g opacity="0.6" clip-path="url(#SVGID_52_)">
			<g>
				<defs>
					<rect id="SVGID_53_" x="1432" y="335.02" width="89.77" height="48.4"/>
				</defs>
				<clipPath id="SVGID_54_">
					<use xlink:href="#SVGID_53_"  overflow="visible"/>
				</clipPath>
				<polygon clip-path="url(#SVGID_54_)" fill="#202935" points="1468.97,335.024 1432,335.024 1432,383.424 1521.77,383.424 				
					"/>
			</g>
		</g>
	</g>
	<polygon clip-path="url(#SVGID_2_)" fill="#715AA9" points="1468.97,442.824 1432,442.824 1432,394.424 1521.77,394.424 	"/>
	<g clip-path="url(#SVGID_2_)">
		<defs>
			<rect id="SVGID_55_" width="2000" height="1400"/>
		</defs>
		<clipPath id="SVGID_56_">
			<use xlink:href="#SVGID_55_"  overflow="visible"/>
		</clipPath>
		<g opacity="0.6" clip-path="url(#SVGID_56_)">
			<g>
				<defs>
					<rect id="SVGID_57_" x="1432" y="394.42" width="89.77" height="48.404"/>
				</defs>
				<clipPath id="SVGID_58_">
					<use xlink:href="#SVGID_57_"  overflow="visible"/>
				</clipPath>
				<polygon clip-path="url(#SVGID_58_)" fill="#202935" points="1468.97,442.824 1432,442.824 1432,394.424 1521.77,394.424 				
					"/>
			</g>
		</g>
	</g>
	<polygon clip-path="url(#SVGID_2_)" fill="#DB4C40" points="1404,372.424 1431.569,365.824 1431.569,401.024 1404,394.424 	"/>
	<g clip-path="url(#SVGID_2_)">
		<defs>
			<rect id="SVGID_59_" width="2000" height="1400"/>
		</defs>
		<clipPath id="SVGID_60_">
			<use xlink:href="#SVGID_59_"  overflow="visible"/>
		</clipPath>
		<g opacity="0.2" clip-path="url(#SVGID_60_)">
			<g>
				<defs>
					<rect id="SVGID_61_" x="1431.57" y="383.53" width="188.88" height="24.094"/>
				</defs>
				<clipPath id="SVGID_62_">
					<use xlink:href="#SVGID_61_"  overflow="visible"/>
				</clipPath>
				<path clip-path="url(#SVGID_62_)" fill="#202935" d="M1522.008,383.53h-90.438v24.094h188.885
					C1572.607,401.024,1544.008,394.425,1522.008,383.53"/>
			</g>
		</g>
	</g>
	<polygon clip-path="url(#SVGID_2_)" fill="#99D8FF" points="1604.163,363.624 1571.351,363.624 1596.808,376.824 1641.534,376.824 
			"/>
	<g clip-path="url(#SVGID_2_)">
		<defs>
			<rect id="SVGID_63_" width="2000" height="1400"/>
		</defs>
		<clipPath id="SVGID_64_">
			<use xlink:href="#SVGID_63_"  overflow="visible"/>
		</clipPath>
		<path clip-path="url(#SVGID_64_)" fill="#715AA9" d="M1479.97,442.824c0,2.43-1.971,4.4-4.4,4.4h-48.4
			c-2.43,0-4.399-1.97-4.399-4.4c0-2.43,1.97-4.4,4.399-4.4h48.4C1477.999,438.424,1479.97,440.395,1479.97,442.824"/>
	</g>
	<g clip-path="url(#SVGID_2_)">
		<defs>
			<rect id="SVGID_65_" width="2000" height="1400"/>
		</defs>
		<clipPath id="SVGID_66_">
			<use xlink:href="#SVGID_65_"  overflow="visible"/>
		</clipPath>
		<path clip-path="url(#SVGID_66_)" fill="#715AA9" d="M1479.97,335.024c0,2.43-1.971,4.4-4.4,4.976h-48.4
			c-2.43-0.576-4.399-2.546-4.399-4.976c0-2.43,1.97-4.4,4.399-5.024h48.4C1477.999,330.625,1479.97,332.594,1479.97,335.024"/>
	</g>
	<g clip-path="url(#SVGID_2_)">
		<defs>
			<rect id="SVGID_67_" width="2000" height="1400"/>
		</defs>
		<clipPath id="SVGID_68_">
			<use xlink:href="#SVGID_67_"  overflow="visible"/>
		</clipPath>
		<g opacity="0.7" clip-path="url(#SVGID_68_)">
			<g>
				<defs>
					<rect id="SVGID_69_" x="387.808" y="346.22" width="264" height="37.4"/>
				</defs>
				<clipPath id="SVGID_70_">
					<use xlink:href="#SVGID_69_"  overflow="visible"/>
				</clipPath>
				<path clip-path="url(#SVGID_70_)" fill="#202935" d="M563.808,346.224h-151.8c-13.368,0-24.2,10.83-24.2,24.2v13.2h264v-13.2
					C651.808,370.424,629.808,346.224,563.808,346.224"/>
			</g>
		</g>
	</g>
	<g clip-path="url(#SVGID_2_)">
		<defs>
			<rect id="SVGID_71_" width="2000" height="1400"/>
		</defs>
		<clipPath id="SVGID_72_">
			<use xlink:href="#SVGID_71_"  overflow="visible"/>
		</clipPath>
		<path clip-path="url(#SVGID_72_)" fill="#99D8FF" d="M555.008,333.024h-116.6c0-26.833,21.751-50.6,48.583-50.6
			C545.291,282.424,555.008,333.024,555.008,333.024"/>
	</g>
	<rect x="480.296" y="278.024" clip-path="url(#SVGID_2_)" fill="#008FF6" width="17.512" height="55"/>
	<g clip-path="url(#SVGID_2_)">
		<defs>
			<rect id="SVGID_73_" width="2000" height="1400"/>
		</defs>
		<clipPath id="SVGID_74_">
			<use xlink:href="#SVGID_73_"  overflow="visible"/>
		</clipPath>
		<g opacity="0.2" clip-path="url(#SVGID_74_)">
			<g>
				<defs>
					<rect id="SVGID_75_" x="480.296" y="324.22" width="17.512" height="8.8"/>
				</defs>
				<clipPath id="SVGID_76_">
					<use xlink:href="#SVGID_75_"  overflow="visible"/>
				</clipPath>
				<rect x="480.296" y="324.224" clip-path="url(#SVGID_76_)" fill="#202935" width="17.512" height="8.8"/>
			</g>
		</g>
	</g>
	<rect x="387.808" y="357.224" clip-path="url(#SVGID_2_)" fill="#F9B938" width="264" height="13.2"/>
	<g clip-path="url(#SVGID_2_)">
		<defs>
			<rect id="SVGID_77_" width="2000" height="1400"/>
		</defs>
		<clipPath id="SVGID_78_">
			<use xlink:href="#SVGID_77_"  overflow="visible"/>
		</clipPath>
		<path clip-path="url(#SVGID_78_)" fill="#008FF6" d="M563.808,333.024h-151.8c-13.368,0-24.2,10.83-24.2,24.2h264
			C651.808,357.225,629.808,333.024,563.808,333.024"/>
	</g>
	<polygon clip-path="url(#SVGID_2_)" fill="#008FF6" points="409.808,315.424 403.208,315.424 412.008,333.024 418.608,333.024 	"/>
	<g clip-path="url(#SVGID_2_)">
		<defs>
			<rect id="SVGID_79_" width="2000" height="1400"/>
		</defs>
		<clipPath id="SVGID_80_">
			<use xlink:href="#SVGID_79_"  overflow="visible"/>
		</clipPath>
		<path clip-path="url(#SVGID_80_)" fill="#DB4C40" d="M414.208,314.324c0,4.252-3.446,7.7-7.7,7.7s-7.7-3.448-7.7-7.7
			s3.446-7.7,7.7-7.7S414.208,310.072,414.208,314.324"/>
	</g>
	<g clip-path="url(#SVGID_2_)">
		<defs>
			<rect id="SVGID_81_" width="2000" height="1400"/>
		</defs>
		<clipPath id="SVGID_82_">
			<use xlink:href="#SVGID_81_"  overflow="visible"/>
		</clipPath>
		<g opacity="0.3" clip-path="url(#SVGID_82_)">
			<g>
				<defs>
					<rect id="SVGID_83_" x="581.408" y="357.22" width="15.4" height="13.2"/>
				</defs>
				<clipPath id="SVGID_84_">
					<use xlink:href="#SVGID_83_"  overflow="visible"/>
				</clipPath>
				<rect x="581.408" y="357.224" clip-path="url(#SVGID_84_)" fill="#FFFFFF" width="15.4" height="13.2"/>
			</g>
		</g>
	</g>
	<g clip-path="url(#SVGID_2_)">
		<defs>
			<rect id="SVGID_85_" width="2000" height="1400"/>
		</defs>
		<clipPath id="SVGID_86_">
			<use xlink:href="#SVGID_85_"  overflow="visible"/>
		</clipPath>
		<g opacity="0.3" clip-path="url(#SVGID_86_)">
			<g>
				<defs>
					<rect id="SVGID_87_" x="614.408" y="357.22" width="4.4" height="13.2"/>
				</defs>
				<clipPath id="SVGID_88_">
					<use xlink:href="#SVGID_87_"  overflow="visible"/>
				</clipPath>
				<rect x="614.408" y="357.224" clip-path="url(#SVGID_88_)" fill="#FFFFFF" width="4.4" height="13.2"/>
			</g>
		</g>
	</g>
	<g clip-path="url(#SVGID_2_)">
		<defs>
			<rect id="SVGID_89_" width="2000" height="1400"/>
		</defs>
		<clipPath id="SVGID_90_">
			<use xlink:href="#SVGID_89_"  overflow="visible"/>
		</clipPath>
		<g opacity="0.3" clip-path="url(#SVGID_90_)">
			<g>
				<defs>
					<rect id="SVGID_91_" x="627.608" y="357.22" width="17.6" height="13.2"/>
				</defs>
				<clipPath id="SVGID_92_">
					<use xlink:href="#SVGID_91_"  overflow="visible"/>
				</clipPath>
				<rect x="627.608" y="357.224" clip-path="url(#SVGID_92_)" fill="#FFFFFF" width="17.6" height="13.2"/>
			</g>
		</g>
	</g>
	<polygon clip-path="url(#SVGID_2_)" fill="#D1D9E8" points="1636.408,253.624 1629.808,253.624 1629.808,247.024 1625.408,247.024 
		1625.408,253.624 1618.808,253.624 1618.808,258.024 1625.408,258.024 1625.408,264.624 1629.808,264.624 1629.808,258.024 
		1636.408,258.024 	"/>
	<polygon clip-path="url(#SVGID_2_)" fill="#D1D9E8" points="1294.095,1229.769 1287.494,1229.769 1287.494,1223.169 
		1283.095,1223.169 1283.095,1229.769 1276.494,1229.769 1276.494,1234.169 1283.095,1234.169 1283.095,1240.769 1287.494,1240.769 
		1287.494,1234.169 1294.095,1234.169 	"/>
	<polygon clip-path="url(#SVGID_2_)" fill="#D1D9E8" points="1236.494,438.224 1229.895,438.224 1229.895,431.624 1225.494,431.624 
		1225.494,438.224 1218.895,438.224 1218.895,442.624 1225.494,442.624 1225.494,449.224 1229.895,449.224 1229.895,442.624 
		1236.494,442.624 	"/>
	<polygon clip-path="url(#SVGID_2_)" fill="#D1D9E8" points="466.608,568.815 460.008,568.815 460.008,562.215 455.608,562.215 
		455.608,568.815 449.008,568.815 449.008,573.215 455.608,573.215 455.608,579.815 460.008,579.815 460.008,573.215 
		466.608,573.215 	"/>
	<polygon clip-path="url(#SVGID_2_)" fill="#D1D9E8" points="1525.589,542 1518.988,542 1518.988,535.4 1514.589,535.4 
		1514.589,542 1507.988,542 1507.988,546.4 1514.589,546.4 1514.589,553 1518.988,553 1518.988,546.4 1525.589,546.4 	"/>
	<polygon clip-path="url(#SVGID_2_)" fill="#D1D9E8" points="609.608,1114.225 603.008,1114.225 603.008,1107.624 598.608,1107.624 
		598.608,1114.225 592.008,1114.225 592.008,1118.624 598.608,1118.624 598.608,1125.225 603.008,1125.225 603.008,1118.624 
		609.608,1118.624 	"/>
	<polygon clip-path="url(#SVGID_2_)" fill="#D1D9E8" points="1152.55,244.824 1145.95,244.824 1145.95,238.224 1141.55,238.224 
		1141.55,244.824 1134.95,244.824 1134.95,249.224 1141.55,249.224 1141.55,255.824 1145.95,255.824 1145.95,249.224 
		1152.55,249.224 	"/>
	<g clip-path="url(#SVGID_2_)">
		<defs>
			<rect id="SVGID_93_" width="2000" height="1400"/>
		</defs>
		<clipPath id="SVGID_94_">
			<use xlink:href="#SVGID_93_"  overflow="visible"/>
		</clipPath>
		<g opacity="0.1" clip-path="url(#SVGID_94_)">
			<g>
				<defs>
					<rect id="SVGID_95_" x="1721.41" y="828.354" width="89.17" height="96.471"/>
				</defs>
				<clipPath id="SVGID_96_">
					<use xlink:href="#SVGID_95_"  overflow="visible"/>
				</clipPath>
				<path clip-path="url(#SVGID_96_)" fill="#D1D9E8" d="M1767.745,828.354c4.823,7.525,7.631,16.468,7.631,26.07
					c0,26.731-21.669,48.4-48.399,48.4c-1.885,0-3.74-0.119-5.568-0.328c8.602,13.424,23.641,22.328,40.768,22.328
					c26.731,0,48.4-21.669,48.4-48.4C1810.576,851.578,1791.851,831.116,1767.745,828.354"/>
			</g>
		</g>
	</g>
	<g clip-path="url(#SVGID_2_)">
		<defs>
			<rect id="SVGID_97_" width="2000" height="1400"/>
		</defs>
		<clipPath id="SVGID_98_">
			<use xlink:href="#SVGID_97_"  overflow="visible"/>
		</clipPath>
		<g opacity="0.1" clip-path="url(#SVGID_98_)">
			<g>
				<defs>
					<rect id="SVGID_99_" x="213.194" y="293.57" width="121.754" height="86.5"/>
				</defs>
				<clipPath id="SVGID_100_">
					<use xlink:href="#SVGID_99_"  overflow="visible"/>
				</clipPath>
				<path clip-path="url(#SVGID_100_)" fill="#D1D9E8" d="M334.613,318.679c-2.037-6.802-12.526-9.141-26.475-8.443
					c-10.642-13.635-28.908-20.104-46.475-14.842c-17.571,5.265-29.266,20.713-30.666,37.954
					c-12.029,7.086-19.507,14.806-17.47,21.61c2.04,6.804,12.529,9.141,26.475,8.444c10.648,13.636,28.911,20.105,46.482,14.841
					c17.567-5.263,29.265-20.711,30.659-37.952C329.175,333.203,336.653,325.485,334.613,318.679 M219.901,353.048
					c-0.637-2.128,3.076-6.634,11.158-11.909c0.273,2.696,0.783,5.402,1.588,8.092c0.809,2.69,1.868,5.229,3.122,7.629
					C226.119,356.897,220.542,355.175,219.901,353.048 M317.084,332.498c-0.273-2.694-0.78-5.4-1.588-8.09
					c-0.806-2.69-1.868-5.23-3.122-7.632c9.651-0.036,15.232,1.686,15.868,3.814C328.882,322.715,325.167,327.223,317.084,332.498"
					/>
			</g>
		</g>
	</g>
	<g clip-path="url(#SVGID_2_)">
		<defs>
			<rect id="SVGID_101_" width="2000" height="1400"/>
		</defs>
		<clipPath id="SVGID_102_">
			<use xlink:href="#SVGID_101_"  overflow="visible"/>
		</clipPath>
		<path clip-path="url(#SVGID_102_)" fill="#008FF6" d="M804.053,627.47c0-57.558-80.846-80.846-80.846-80.846h-13.2v102.85h94.046
			V627.47z"/>
	</g>
	<g clip-path="url(#SVGID_2_)">
		<defs>
			<rect id="SVGID_103_" width="2000" height="1400"/>
		</defs>
		<clipPath id="SVGID_104_">
			<use xlink:href="#SVGID_103_"  overflow="visible"/>
		</clipPath>
		<g opacity="0.2" clip-path="url(#SVGID_104_)">
			<g>
				<defs>
					<rect id="SVGID_105_" x="710.008" y="546.624" width="13.2" height="102.85"/>
				</defs>
				<clipPath id="SVGID_106_">
					<use xlink:href="#SVGID_105_"  overflow="visible"/>
				</clipPath>
				<rect x="710.008" y="546.624" clip-path="url(#SVGID_106_)" fill="#FFFFFF" width="13.2" height="102.85"/>
			</g>
		</g>
	</g>
	<g clip-path="url(#SVGID_2_)">
		<defs>
			<rect id="SVGID_107_" width="2000" height="1400"/>
		</defs>
		<clipPath id="SVGID_108_">
			<use xlink:href="#SVGID_107_"  overflow="visible"/>
		</clipPath>
		<path clip-path="url(#SVGID_108_)" fill="#DB4C40" d="M729.808,771.024h620.4c13.364,0,24.2-10.835,24.2-24.2H729.808V771.024z"/>
	</g>
	<g clip-path="url(#SVGID_2_)">
		<defs>
			<rect id="SVGID_109_" width="2000" height="1400"/>
		</defs>
		<clipPath id="SVGID_110_">
			<use xlink:href="#SVGID_109_"  overflow="visible"/>
		</clipPath>
		<path clip-path="url(#SVGID_110_)" fill="#F0F3F7" d="M710.008,641.224v105.6h664.4
			c-106.197-101.726-253.551-164.973-409.2-164.973C809.558,581.851,710.008,641.224,710.008,641.224"/>
	</g>
	<g clip-path="url(#SVGID_2_)">
		<defs>
			<rect id="SVGID_111_" width="2000" height="1400"/>
		</defs>
		<clipPath id="SVGID_112_">
			<use xlink:href="#SVGID_111_"  overflow="visible"/>
		</clipPath>
		<g opacity="0.6" clip-path="url(#SVGID_112_)">
			<g>
				<defs>
					<rect id="SVGID_113_" x="843.989" y="581.851" width="530.421" height="164.973"/>
				</defs>
				<clipPath id="SVGID_114_">
					<use xlink:href="#SVGID_113_"  overflow="visible"/>
				</clipPath>
				<path clip-path="url(#SVGID_114_)" fill="#FFFFFF" d="M843.989,594.15c101.572,26.666,192.223,80.251,263.888,152.674h266.53
					c-106.196-101.727-253.55-164.974-409.2-164.974C919.623,581.851,878.859,586.947,843.989,594.15"/>
			</g>
		</g>
	</g>
	<g clip-path="url(#SVGID_2_)">
		<defs>
			<rect id="SVGID_115_" width="2000" height="1400"/>
		</defs>
		<clipPath id="SVGID_116_">
			<use xlink:href="#SVGID_115_"  overflow="visible"/>
		</clipPath>
		<path clip-path="url(#SVGID_116_)" fill="#99D8FF" d="M1255.605,658.824c-23.644-13.332-48.283-25.11-73.727-35.2h-93.472
			c0,19.44,15.759,35.2,35.2,35.2H1255.605z"/>
	</g>
	<g clip-path="url(#SVGID_2_)">
		<defs>
			<rect id="SVGID_117_" width="2000" height="1400"/>
		</defs>
		<clipPath id="SVGID_118_">
			<use xlink:href="#SVGID_117_"  overflow="visible"/>
		</clipPath>
		<g opacity="0.5" clip-path="url(#SVGID_118_)">
			<g>
				<defs>
					<rect id="SVGID_119_" x="1088.41" y="623.624" width="167.2" height="35.2"/>
				</defs>
				<clipPath id="SVGID_120_">
					<use xlink:href="#SVGID_119_"  overflow="visible"/>
				</clipPath>
				<path clip-path="url(#SVGID_120_)" fill="#99D8FF" d="M1123.607,658.824h132v-0.237c-23.445-13.246-47.886-24.939-73.175-34.963
					h-94.024C1088.408,643.064,1104.167,658.824,1123.607,658.824"/>
			</g>
		</g>
	</g>
	<g clip-path="url(#SVGID_2_)">
		<defs>
			<rect id="SVGID_121_" width="2000" height="1400"/>
		</defs>
		<clipPath id="SVGID_122_">
			<use xlink:href="#SVGID_121_"  overflow="visible"/>
		</clipPath>
		<path clip-path="url(#SVGID_122_)" fill="#99D8FF" d="M1143.408,658.824h112.614c-23.572-13.342-48.151-25.117-73.59-35.2h-74.225
			C1108.208,643.064,1123.967,658.824,1143.408,658.824"/>
	</g>
	<polygon clip-path="url(#SVGID_2_)" fill="#F9B938" points="663.808,640 648.408,640 648.408,735.824 663.808,735.824 
		710.008,716.024 710.008,661.024 	"/>
	<g clip-path="url(#SVGID_2_)">
		<defs>
			<rect id="SVGID_123_" width="2000" height="1400"/>
		</defs>
		<clipPath id="SVGID_124_">
			<use xlink:href="#SVGID_123_"  overflow="visible"/>
		</clipPath>
		<g opacity="0.3" clip-path="url(#SVGID_124_)">
			<g>
				<defs>
					<rect id="SVGID_125_" x="648.408" y="640" width="15.4" height="47.424"/>
				</defs>
				<clipPath id="SVGID_126_">
					<use xlink:href="#SVGID_125_"  overflow="visible"/>
				</clipPath>
				<rect x="648.408" y="640" clip-path="url(#SVGID_126_)" fill="#FFFFFF" width="15.4" height="47.424"/>
			</g>
		</g>
	</g>
	<g clip-path="url(#SVGID_2_)">
		<defs>
			<rect id="SVGID_127_" width="2000" height="1400"/>
		</defs>
		<clipPath id="SVGID_128_">
			<use xlink:href="#SVGID_127_"  overflow="visible"/>
		</clipPath>
		<g opacity="0.85" clip-path="url(#SVGID_128_)">
			<g>
				<defs>
					<rect id="SVGID_129_" x="1057.61" y="700.624" width="17.6" height="17.6"/>
				</defs>
				<clipPath id="SVGID_130_">
					<use xlink:href="#SVGID_129_"  overflow="visible"/>
				</clipPath>
				<path clip-path="url(#SVGID_130_)" fill="#F0F3F7" d="M1075.208,709.424c0,4.86-3.94,8.801-8.8,8.801
					c-4.86,0-8.801-3.94-8.801-8.801c0-4.859,3.94-8.8,8.801-8.8C1071.268,700.624,1075.208,704.564,1075.208,709.424"/>
			</g>
		</g>
	</g>
	<g clip-path="url(#SVGID_2_)">
		<defs>
			<rect id="SVGID_131_" width="2000" height="1400"/>
		</defs>
		<clipPath id="SVGID_132_">
			<use xlink:href="#SVGID_131_"  overflow="visible"/>
		</clipPath>
		<g opacity="0.85" clip-path="url(#SVGID_132_)">
			<g>
				<defs>
					<rect id="SVGID_133_" x="1090.61" y="700.624" width="17.6" height="17.6"/>
				</defs>
				<clipPath id="SVGID_134_">
					<use xlink:href="#SVGID_133_"  overflow="visible"/>
				</clipPath>
				<path clip-path="url(#SVGID_134_)" fill="#F0F3F7" d="M1108.208,709.424c0,4.86-3.94,8.801-8.8,8.801
					c-4.86,0-8.801-3.94-8.801-8.801c0-4.859,3.94-8.8,8.801-8.8C1104.268,700.624,1108.208,704.564,1108.208,709.424"/>
			</g>
		</g>
	</g>
	<g clip-path="url(#SVGID_2_)">
		<defs>
			<rect id="SVGID_135_" width="2000" height="1400"/>
		</defs>
		<clipPath id="SVGID_136_">
			<use xlink:href="#SVGID_135_"  overflow="visible"/>
		</clipPath>
		<g opacity="0.85" clip-path="url(#SVGID_136_)">
			<g>
				<defs>
					<rect id="SVGID_137_" x="1123.61" y="700.624" width="17.6" height="17.6"/>
				</defs>
				<clipPath id="SVGID_138_">
					<use xlink:href="#SVGID_137_"  overflow="visible"/>
				</clipPath>
				<path clip-path="url(#SVGID_138_)" fill="#F0F3F7" d="M1141.208,709.424c0,4.86-3.94,8.801-8.8,8.801
					c-4.86,0-8.801-3.94-8.801-8.801c0-4.859,3.94-8.8,8.801-8.8C1137.268,700.624,1141.208,704.564,1141.208,709.424"/>
			</g>
		</g>
	</g>
	<polygon clip-path="url(#SVGID_2_)" fill="#008FF6" points="769.513,828.508 856.301,828.508 954.33,678.624 769.513,678.624 	"/>
	<g clip-path="url(#SVGID_2_)">
		<defs>
			<rect id="SVGID_139_" width="2000" height="1400"/>
		</defs>
		<clipPath id="SVGID_140_">
			<use xlink:href="#SVGID_139_"  overflow="visible"/>
		</clipPath>
		<g opacity="0.2" clip-path="url(#SVGID_140_)">
			<g>
				<defs>
					<rect id="SVGID_141_" x="843.101" y="678.624" width="111.229" height="149.884"/>
				</defs>
				<clipPath id="SVGID_142_">
					<use xlink:href="#SVGID_141_"  overflow="visible"/>
				</clipPath>
				<polygon clip-path="url(#SVGID_142_)" fill="#FFFFFF" points="941.13,678.625 843.101,828.509 856.301,828.509 954.33,678.625 
									"/>
			</g>
		</g>
	</g>
	<g clip-path="url(#SVGID_2_)">
		<defs>
			<rect id="SVGID_143_" width="2000" height="1400"/>
		</defs>
		<clipPath id="SVGID_144_">
			<use xlink:href="#SVGID_143_"  overflow="visible"/>
		</clipPath>
		<path clip-path="url(#SVGID_144_)" fill="#008FF6" d="M875.113,830.424c0,3.646-2.954,6.601-6.6,6.601H758.408
			c-3.646,0-6.6-2.955-6.6-6.601c0-3.645,2.954-6.6,6.6-6.6h110.105C872.159,823.824,875.113,826.779,875.113,830.424"/>
	</g>
	<g clip-path="url(#SVGID_2_)">
		<defs>
			<rect id="SVGID_145_" width="2000" height="1400"/>
		</defs>
		<clipPath id="SVGID_146_">
			<use xlink:href="#SVGID_145_"  overflow="visible"/>
		</clipPath>
		<g opacity="0.2" clip-path="url(#SVGID_146_)">
			<g>
				<defs>
					<rect id="SVGID_147_" x="751.808" y="823.824" width="123.305" height="13.2"/>
				</defs>
				<clipPath id="SVGID_148_">
					<use xlink:href="#SVGID_147_"  overflow="visible"/>
				</clipPath>
				<path clip-path="url(#SVGID_148_)" fill="#FFFFFF" d="M875.113,830.424c0,3.646-2.954,6.601-6.6,6.601H758.408
					c-3.646,0-6.6-2.955-6.6-6.601c0-3.645,2.954-6.6,6.6-6.6h110.105C872.159,823.824,875.113,826.779,875.113,830.424"/>
			</g>
		</g>
	</g>
	<g clip-path="url(#SVGID_2_)">
		<defs>
			<rect id="SVGID_149_" width="2000" height="1400"/>
		</defs>
		<clipPath id="SVGID_150_">
			<use xlink:href="#SVGID_149_"  overflow="visible"/>
		</clipPath>
		<g opacity="0.1" clip-path="url(#SVGID_150_)">
			<g>
				<defs>
					<rect id="SVGID_151_" x="793.698" y="240.53" width="46.219" height="27.34"/>
				</defs>
				<clipPath id="SVGID_152_">
					<use xlink:href="#SVGID_151_"  overflow="visible"/>
				</clipPath>
				<path clip-path="url(#SVGID_152_)" fill="#D1D9E8" d="M826.249,267.865h-18.882c-7.518,0-13.669-6.151-13.669-13.668
					c0-7.518,6.151-13.669,13.669-13.669h18.882c7.518,0,13.668,6.151,13.668,13.669
					C839.917,261.714,833.767,267.865,826.249,267.865"/>
			</g>
		</g>
	</g>
	<g clip-path="url(#SVGID_2_)">
		<defs>
			<rect id="SVGID_153_" width="2000" height="1400"/>
		</defs>
		<clipPath id="SVGID_154_">
			<use xlink:href="#SVGID_153_"  overflow="visible"/>
		</clipPath>
		<g opacity="0.1" clip-path="url(#SVGID_154_)">
			<g>
				<defs>
					<rect id="SVGID_155_" x="1618.189" y="571.015" width="93.881" height="64.684"/>
				</defs>
				<clipPath id="SVGID_156_">
					<use xlink:href="#SVGID_155_"  overflow="visible"/>
				</clipPath>
				<path clip-path="url(#SVGID_156_)" fill="#D1D9E8" d="M1708.748,591.395l-8.058,2.663c-8.65-4.964-24.323-9.005-39.943-5.371
					l-2.348-7.104c1.531-1.623,2.169-3.994,1.42-6.261c-1.087-3.29-4.635-5.075-7.924-3.988c-3.29,1.087-5.075,4.635-3.988,7.924
					c0.749,2.267,2.674,3.792,4.871,4.182l2.348,7.105c-14.71,6.388-24.89,18.972-28.878,28.113l-8.059,2.663l3.325,10.062
					l8.059-2.663c9.18,5.268,26.433,9.994,42.8,4.585c16.369-5.409,27.408-19.483,31.642-29.185l8.059-2.663L1708.748,591.395z"/>
			</g>
		</g>
	</g>
	<g clip-path="url(#SVGID_2_)">
		<defs>
			<rect id="SVGID_157_" width="2000" height="1400"/>
		</defs>
		<clipPath id="SVGID_158_">
			<use xlink:href="#SVGID_157_"  overflow="visible"/>
		</clipPath>
		<g opacity="0.1" clip-path="url(#SVGID_158_)">
			<g>
				<defs>
					<rect id="SVGID_159_" x="827.056" y="1077.642" width="189.994" height="131.161"/>
				</defs>
				<clipPath id="SVGID_160_">
					<use xlink:href="#SVGID_159_"  overflow="visible"/>
				</clipPath>
				<path clip-path="url(#SVGID_160_)" fill="#D1D9E8" d="M959.738,1139.737l-8.614,15.538l-6.346-3.52l15.282-27.564l-17.22-9.547
					l7.274-13.121c3.022-0.046,5.939-1.625,7.51-4.458c2.337-4.216,0.814-9.528-3.402-11.866c-4.216-2.337-9.528-0.813-11.865,3.402
					c-1.571,2.833-1.365,6.143,0.197,8.73l-7.274,13.121l-17.22-9.546l-15.281,27.566l-6.347-3.52l8.614-15.537l-57.317-31.775
					l-20.673,37.291l57.317,31.775l7.192-12.974l6.346,3.518l-15.281,27.566l4.898,2.715l-3.897,7.029l6.73,3.73l-3.897,7.029
					l18.743,10.391l3.897-7.028l6.73,3.73l3.896-7.028l4.899,2.715l15.282-27.565l6.346,3.519l-7.192,12.974l57.317,31.775
					l20.673-37.291L959.738,1139.737z"/>
			</g>
		</g>
	</g>
	<g clip-path="url(#SVGID_2_)">
		<defs>
			<rect id="SVGID_161_" width="2000" height="1400"/>
		</defs>
		<clipPath id="SVGID_162_">
			<use xlink:href="#SVGID_161_"  overflow="visible"/>
		</clipPath>
		<g opacity="0.1" clip-path="url(#SVGID_162_)">
			<g>
				<defs>
					<rect id="SVGID_163_" x="280.056" y="632.253" width="124.95" height="34.645"/>
				</defs>
				<clipPath id="SVGID_164_">
					<use xlink:href="#SVGID_163_"  overflow="visible"/>
				</clipPath>
				<path clip-path="url(#SVGID_164_)" fill="#D1D9E8" d="M387.684,632.253h-12.805h-81.36c-1.904,0-3.463,1.558-3.463,3.463
					c0,1.905,1.559,3.463,3.463,3.463h66.278c1.905,0,3.463,1.558,3.463,3.463c0,1.904-1.558,3.463-3.463,3.463h-46.278
					c-1.904,0-3.463,1.558-3.463,3.463c0,1.904,1.559,3.463,3.463,3.463h34.278c1.905,0,3.463,1.558,3.463,3.462
					c0,1.905-1.558,3.463-3.462,3.464h-64.279c-1.904,0-3.463,1.558-3.463,3.463c0,1.904,1.559,3.462,3.463,3.462h91.36h12.484
					c0.108,0.002,0.212,0.017,0.321,0.017c9.567,0,17.323-7.756,17.323-17.323C405.006,640.009,397.25,632.253,387.684,632.253"/>
			</g>
		</g>
	</g>
	<g clip-path="url(#SVGID_2_)">
		<defs>
			<rect id="SVGID_165_" width="2000" height="1400"/>
		</defs>
		<clipPath id="SVGID_166_">
			<use xlink:href="#SVGID_165_"  overflow="visible"/>
		</clipPath>
		<path clip-path="url(#SVGID_166_)" fill="#2A344B" d="M400.326,649.575c0,6.935-5.622,12.558-12.558,12.558
			c-6.935,0-12.558-5.623-12.558-12.558c0-6.936,5.623-12.558,12.558-12.558C394.704,637.017,400.326,642.639,400.326,649.575"/>
	</g>
</g>
</svg>
